<svg id="圖層_1" data-name="圖層 1" xmlns="http://www.w3.org/2000/svg" viewBox="0 0 237.34 252.05"><defs><style>.cls-1{fill:#e46e47;}.cls-2{fill:#fff6f2;}.cls-3{fill:#63342c;}.cls-4{fill:#fffcfa;}.cls-5{fill:#854d42;}.cls-6{fill:#cc561b;}.cls-7{fill:#524c4a;}.cls-8{fill:#4b4a4a;}</style></defs><title>icon</title><g id="Group_1623" data-name="Group 1623"><g id="Group_27" data-name="Group 27"><g id="Group_20" data-name="Group 20"><path id="Path_46" data-name="Path 46" class="cls-1" d="M181.64,136.8a343.31,343.31,0,0,0-12.37-46C162.72,72.27,158.91,49.27,146,33.86c-9.34-11.16-22.64-18.51-36.73-21.77C81.54,5.68,49.61,15.32,35.78,41.6a252.57,252.57,0,0,0-18.3,43.45c-4.27,14.12-9.4,27.3-13,41.58-7.59,30-5.85,62.48,7.84,91a61,61,0,0,0,5.84,11.47c4.92,7.7,11.5,15.76,21.44,12.46,8.89-3,10.86-13.31,18.35-18.2,17.11-11.18,50.09-10.6,66.79,1.16,7.32,5.15,8.92,15.57,17.7,18.83,9.83,3.65,16.68-4.17,21.87-11.7a61.26,61.26,0,0,0,6.24-11.26C185.05,192.68,187.42,164.71,181.64,136.8Z"/><g id="Path_47" data-name="Path 47"><path id="Path_271" data-name="Path 271" class="cls-1" d="M79.89,4.94C82.45,8.35,85,15.29,79,16.58l21.77,4.07s3.53-12.23-4.32-17.89c0,0,1.86,7.4-.18,10.44,0,0-5.12-9.92-10.39-11.24,1.6,3.91,3.18,7.19,1.66,11.33A58.3,58.3,0,0,1,79.89,4.94Z"/><path id="Path_272" data-name="Path 272" class="cls-1" d="M100.75,22.61a1.84,1.84,0,0,1-.33,0L78.65,18.51a2,2,0,0,1-.05-3.85c1.42-.3,1.8-.92,2-1.36.65-1.75-.63-5-2.25-7.18a2,2,0,1,1,3.14-2.36,55,55,0,0,0,4.72,5.5,20,20,0,0,0-1.8-5.79l-.31-.76A2,2,0,0,1,86.36.06c3.49.87,6.7,4.55,8.88,7.67a26.31,26.31,0,0,0-.69-4.5,2,2,0,0,1,3.06-2.06c3.72,2.69,5.76,7.05,5.91,12.6a26.91,26.91,0,0,1-.86,7.42A2,2,0,0,1,100.75,22.61ZM83.86,15.49l15.4,2.88a20.58,20.58,0,0,0-.12-8,8.59,8.59,0,0,1-1.23,4,2,2,0,0,1-2.73.54,2.17,2.17,0,0,1-.65-.73,36.45,36.45,0,0,0-4.72-6.94A11.81,11.81,0,0,1,89.39,14a2,2,0,0,1-2.52,1.16,1.77,1.77,0,0,1-.63-.38c-.56-.5-1.11-1-1.64-1.53a7.15,7.15,0,0,1-.36,1.45A6.1,6.1,0,0,1,83.86,15.49Z"/></g><path id="Path_48" data-name="Path 48" class="cls-2" d="M37,78.56c6,17.17,26.51,30.1,51.07,30.52s45.52-11.77,52.09-28.72c3.26-12.68.38-21.65.38-21.65A39.49,39.49,0,0,0,128,41.46c-5.64-4.65-17.65-5-23.74-1L98,44.67a15.92,15.92,0,0,1-17.64-.31L74.19,40c-6-4.3-17.95-4.31-23.76.15a39.49,39.49,0,0,0-13.1,16.8A41.21,41.21,0,0,0,37,78.56Z"/><g id="Path_49" data-name="Path 49"><path id="Path_273" data-name="Path 273" class="cls-3" d="M86.5,75.84a13.19,13.19,0,0,0,5.27-1,1.68,1.68,0,0,0,.91-2.19,1.67,1.67,0,0,0-1.52-1L82,71.48a1.67,1.67,0,0,0-.71,3.2A13.06,13.06,0,0,0,86.5,75.84Z"/><path id="Path_274" data-name="Path 274" class="cls-3" d="M86.47,76.11a13.47,13.47,0,0,1-5.3-1.19,1.94,1.94,0,0,1,.83-3.7l9.17.16a1.94,1.94,0,0,1,.7,3.73,13.58,13.58,0,0,1-5.34,1ZM82,71.74a1.41,1.41,0,0,0-.6,2.7,12.77,12.77,0,0,0,5.09,1.14h.06a12.71,12.71,0,0,0,5.13-1,1.41,1.41,0,0,0-.51-2.72Z"/></g><circle id="Ellipse_4" data-name="Ellipse 4" class="cls-2" cx="117.9" cy="68.7" r="10.49"/><ellipse id="Ellipse_5" data-name="Ellipse 5" class="cls-4" cx="64.29" cy="65.13" rx="3.81" ry="3.2" transform="translate(-16.74 22.59) rotate(-17.67)"/><path id="Path_50" data-name="Path 50" class="cls-5" d="M36.42,57.88a93.63,93.63,0,0,1,17.91-2.94c7.38-.4,16.7.24,21.93,5.72s-2.48,10.42-7.51,12.81c-8.19,3.9-17.14,6.06-24.9,10.74-.36.22-1.72,1-3.38,2.09a35.2,35.2,0,0,1-4.32-8.84A45.22,45.22,0,0,1,36.42,57.88Z"/><ellipse id="Ellipse_6" data-name="Ellipse 6" class="cls-4" cx="108.8" cy="65.91" rx="3.2" ry="3.81" transform="translate(10.11 146.18) rotate(-70.33)"/><path id="Path_51" data-name="Path 51" class="cls-5" d="M141.2,59.71a93,93,0,0,0-17.8-3.56c-7.36-.66-16.69-.35-22.12,4.94s2.12,10.51,7.06,13.08c8,4.18,16.92,6.65,24.51,11.59.35.23,1.68,1.09,3.31,2.21a35.84,35.84,0,0,0,4.62-8.68A45.23,45.23,0,0,0,141.2,59.71Z"/><g id="Path_52" data-name="Path 52"><path id="Path_275" data-name="Path 275" class="cls-6" d="M36.41,218.57a1.63,1.63,0,0,1-1.39-.83c-2.15-3.8-2.26-6-2.26-6.23l3.26-.08v0a12.67,12.67,0,0,0,1.84,4.74,1.64,1.64,0,0,1-.62,2.22,1.59,1.59,0,0,1-.82.21Z"/></g><g id="Path_53" data-name="Path 53"><path id="Path_276" data-name="Path 276" class="cls-6" d="M43.93,221.06a1.65,1.65,0,0,1-1.4-.82c-2.14-3.8-2.25-6-2.26-6.24l3.27-.07v0a12.52,12.52,0,0,0,1.84,4.73,1.65,1.65,0,0,1-1.45,2.44Z"/></g><g id="Path_54" data-name="Path 54"><path id="Path_277" data-name="Path 277" class="cls-6" d="M43,208.29a1.64,1.64,0,0,1-1.4-.83c-2.14-3.79-2.25-6-2.25-6.23l3.26-.07v0a12.69,12.69,0,0,0,1.84,4.73,1.64,1.64,0,0,1-.62,2.22,1.6,1.6,0,0,1-.83.21Z"/></g><g id="Path_55" data-name="Path 55"><path id="Path_278" data-name="Path 278" class="cls-6" d="M61.82,123.59a1.64,1.64,0,0,1-1.58-1.35c-.73-4.3-.1-6.4,0-6.63l3.1,1v0a12.79,12.79,0,0,0,.14,5.08,1.63,1.63,0,0,1-1.33,1.88h0A1.08,1.08,0,0,1,61.82,123.59Z"/></g><g id="Path_56" data-name="Path 56"><path id="Path_279" data-name="Path 279" class="cls-6" d="M67.3,120.44a1.62,1.62,0,0,1-1.58-1.35c-.74-4.3-.1-6.4,0-6.63l3.1,1v0a12.79,12.79,0,0,0,.13,5.08,1.62,1.62,0,0,1-1.33,1.88h0A1,1,0,0,1,67.3,120.44Z"/></g><ellipse id="Ellipse_7" data-name="Ellipse 7" class="cls-3" cx="63.08" cy="65.67" rx="8.06" ry="6.77" transform="translate(-16.96 22.25) rotate(-17.67)"/><ellipse id="Ellipse_8" data-name="Ellipse 8" class="cls-4" cx="65.44" cy="64.8" rx="2.5" ry="2.1" transform="translate(-16.58 22.92) rotate(-17.67)"/><ellipse id="Ellipse_9" data-name="Ellipse 9" class="cls-3" cx="113.68" cy="66.56" rx="6.77" ry="8.06" transform="translate(12.74 151.2) rotate(-70.33)"/><ellipse id="Ellipse_10" data-name="Ellipse 10" class="cls-4" cx="110.97" cy="65.6" rx="2.1" ry="2.5" transform="translate(11.84 148.01) rotate(-70.33)"/><g id="Path_57" data-name="Path 57"><path id="Path_280" data-name="Path 280" class="cls-6" d="M19.42,168.48a1.58,1.58,0,0,1-1.49-1.15c-1.15-4.05-.75-6.14-.7-6.37a1.58,1.58,0,0,1,3.09.65,12.34,12.34,0,0,0,.65,4.86,1.59,1.59,0,0,1-1.09,1.95,1.76,1.76,0,0,1-.46.06Z"/></g><g id="Path_58" data-name="Path 58"><path id="Path_281" data-name="Path 281" class="cls-6" d="M25.92,172.35a1.58,1.58,0,0,1-1.49-1.14c-1.15-4.06-.75-6.15-.71-6.38a1.58,1.58,0,0,1,3.09.65,12.53,12.53,0,0,0,.66,4.86,1.59,1.59,0,0,1-1.09,1.95A1.82,1.82,0,0,1,25.92,172.35Z"/></g><g id="Path_59" data-name="Path 59"><path id="Path_282" data-name="Path 282" class="cls-6" d="M27.92,160.7a1.58,1.58,0,0,1-1.49-1.14c-1.16-4.06-.76-6.15-.71-6.38a1.58,1.58,0,1,1,3.09.65,12.52,12.52,0,0,0,.65,4.86,1.58,1.58,0,0,1-1.09,1.95,1.68,1.68,0,0,1-.45.06Z"/></g><g id="Path_60" data-name="Path 60"><path id="Path_283" data-name="Path 283" class="cls-6" d="M132.81,188.5a1.59,1.59,0,0,1-1.54-1.41c-.46-4.19.28-6.18.37-6.4a1.57,1.57,0,1,1,2.93,1.15,12.49,12.49,0,0,0-.16,4.91,1.58,1.58,0,0,1-1.39,1.74h-.21Z"/></g><g id="Path_61" data-name="Path 61"><path id="Path_284" data-name="Path 284" class="cls-6" d="M138,193.33a1.57,1.57,0,0,1-1.54-1.4c-.46-4.19.28-6.19.36-6.4a1.58,1.58,0,0,1,2.94,1.15,12.26,12.26,0,0,0-.16,4.9,1.58,1.58,0,0,1-1.4,1.74Z"/></g><g id="Path_62" data-name="Path 62"><path id="Path_285" data-name="Path 285" class="cls-6" d="M141.68,182.16a1.57,1.57,0,0,1-1.53-1.41c-.47-4.19.27-6.19.36-6.4a1.57,1.57,0,1,1,2.93,1.15,12.49,12.49,0,0,0-.16,4.91,1.58,1.58,0,0,1-1.39,1.74h-.21Z"/></g><g id="Path_63" data-name="Path 63"><path id="Path_286" data-name="Path 286" class="cls-7" d="M142.76,238.77s-1.92.2-1.87,4.17c0,0-.35,5.87.79,6.25,0,0,1.47,1.46,2.79-5.17C144.47,244,145.64,238.7,142.76,238.77Z"/><path id="Path_287" data-name="Path 287" class="cls-8" d="M142,249.71a1,1,0,0,1-.56-.19c-1.19-.58-1.08-4.8-1-6.61-.06-4.24,2.13-4.52,2.22-4.53h0c.75,0,2,.28,2.3,2.51a9.84,9.84,0,0,1,0,2.17,7.32,7.32,0,0,1-.17,1.06c-.68,3.43-1.5,5.24-2.51,5.55A1.06,1.06,0,0,1,142,249.71Zm.77-10.55c-.15,0-1.56.44-1.52,3.77-.17,2.9.08,5.69.52,5.88a.38.38,0,0,1,.15.09.23.23,0,0,0,.18,0c.24-.09,1.11-.71,2-5h0c.2-.87.52-3.35-.3-4.34a1.14,1.14,0,0,0-1-.43Z"/></g><g id="Path_64" data-name="Path 64"><path id="Path_288" data-name="Path 288" class="cls-7" d="M150.65,238.91s-1.92.2-1.87,4.16c0,0-.35,5.87.79,6.25,0,0,1.47,1.47,2.79-5.16C152.36,244.15,153.53,238.84,150.65,238.91Z"/><path id="Path_289" data-name="Path 289" class="cls-8" d="M149.92,249.85a1,1,0,0,1-.56-.19c-1.19-.59-1.08-4.8-1-6.61,0-4.24,2.13-4.52,2.23-4.54h0a2,2,0,0,1,2,1.31,8.42,8.42,0,0,1,.09,4.4h0c-.68,3.45-1.5,5.27-2.51,5.58A1.1,1.1,0,0,1,149.92,249.85Zm.76-10.55c-.15,0-1.55.44-1.51,3.77-.17,2.9.08,5.69.52,5.88a.29.29,0,0,1,.15.09.19.19,0,0,0,.18,0c.24-.08,1.11-.7,1.95-5v0c.19-.87.51-3.34-.3-4.34a1.2,1.2,0,0,0-1-.42Z"/></g><g id="Path_65" data-name="Path 65"><path id="Path_290" data-name="Path 290" class="cls-7" d="M144.84,240.25s.18-1.44,2.34-1.4a2,2,0,0,1,2,2v.08c0,2,0,10.79-3.18,10.74C146,251.66,142.57,250.88,144.84,240.25Z"/><path id="Path_291" data-name="Path 291" class="cls-8" d="M146,252.05h-.08c-.39-.09-3.74-1.17-1.46-11.86.09-.63.77-1.76,2.73-1.73h0a2.35,2.35,0,0,1,2.39,2.3v.58c0,2.24-.1,8.2-2.05,10.09A2.08,2.08,0,0,1,146,252.05Zm1.18-12.81c-1.72,0-1.92.95-1.94,1.06v0c-2,9.41.52,10.8.84,10.93a1.28,1.28,0,0,0,.9-.41c1.72-1.67,1.79-7.59,1.82-9.53v-.4a1.59,1.59,0,0,0-1.52-1.67h-.1Zm-2.33,1Z"/></g><g id="Path_66" data-name="Path 66"><path id="Path_292" data-name="Path 292" class="cls-7" d="M44.75,237.06s1.91.27,1.72,4.23c0,0,.14,5.88-1,6.22,0,0-1.52,1.41-2.61-5.27C42.86,242.24,41.87,236.89,44.75,237.06Z"/><path id="Path_293" data-name="Path 293" class="cls-8" d="M45.09,248a.85.85,0,0,1-.31-.06c-1-.34-1.75-2.19-2.31-5.66h0a8.29,8.29,0,0,1,.24-4.39,2,2,0,0,1,2.05-1.25h0c.09,0,2.27.38,2.06,4.64,0,1.79,0,6-1.2,6.55A1.06,1.06,0,0,1,45.09,248Zm-1.85-5.85h0c.7,4.29,1.54,4.94,1.78,5a.19.19,0,0,0,.19,0,.29.29,0,0,1,.14-.08c.45-.17.79-3,.72-5.83.16-3.35-1.23-3.81-1.38-3.84a1.13,1.13,0,0,0-1,.38c-.85,1-.62,3.46-.46,4.34Z"/></g><g id="Path_67" data-name="Path 67"><path id="Path_294" data-name="Path 294" class="cls-7" d="M36.07,236.91s1.92.27,1.73,4.23c0,0,.14,5.87-1,6.21,0,0-1.52,1.42-2.61-5.26C34.18,242.09,33.2,236.74,36.07,236.91Z"/><path id="Path_295" data-name="Path 295" class="cls-8" d="M36.42,247.87a.81.81,0,0,1-.31-.06c-1-.34-1.75-2.19-2.31-5.66h0a8.29,8.29,0,0,1,.24-4.39,2,2,0,0,1,2.05-1.25h0c.09,0,2.26.38,2.06,4.64.05,1.79,0,6-1.2,6.54A1,1,0,0,1,36.42,247.87ZM34.57,242h0c.7,4.29,1.54,4.94,1.78,5a.19.19,0,0,0,.19,0,.29.29,0,0,1,.14-.08c.45-.17.79-2.95.72-5.83.16-3.35-1.23-3.81-1.38-3.85a1.16,1.16,0,0,0-1,.39c-.86,1-.62,3.46-.46,4.34Z"/></g><g id="Path_68" data-name="Path 68"><path id="Path_296" data-name="Path 296" class="cls-7" d="M42.23,238.45S42.09,237,39.94,237a2,2,0,0,0-2.08,1.93V239c0,2-.43,10.78,2.81,10.84C40.67,249.82,44.12,249.16,42.23,238.45Z"/><path id="Path_297" data-name="Path 297" class="cls-8" d="M40.66,250.21a2.09,2.09,0,0,1-1.5-.68c-1.89-2-1.75-7.92-1.7-10.16V239a2.33,2.33,0,0,1,2.3-2.39,1,1,0,0,1,.17,0h0c2,0,2.6,1.19,2.67,1.82,1.89,10.71-1.48,11.72-1.87,11.8Zm0-.39Zm-.74-12.45h0a1.59,1.59,0,0,0-1.67,1.49v.52c0,2-.18,7.87,1.48,9.6a1.38,1.38,0,0,0,.89.44c.31-.12,2.9-1.4,1.22-10.9v0c0-.11-.19-1.1-1.91-1.13Z"/></g><g id="Group_19" data-name="Group 19"><g id="Path_79" data-name="Path 79"><path id="Path_306" data-name="Path 306" class="cls-7" d="M229.93,186.78s-1,1.45,1.76,3.81c0,0,3.86,3.78,4.8,3.23,0,0,1.91-.14-1.89-5.06C234.6,188.76,231.63,184.74,229.93,186.78Z"/><path id="Path_307" data-name="Path 307" class="cls-8" d="M236.28,194.22c-1.28,0-3.75-2.3-4.84-3.37-3-2.53-1.85-4.21-1.8-4.28l0,0a1.93,1.93,0,0,1,2.6-.39,8.67,8.67,0,0,1,2.61,2.4h0c2,2.55,2.74,4.22,2.35,5.11a.94.94,0,0,1-.63.52A.74.74,0,0,1,236.28,194.22ZM230.23,187c-.07.12-.63,1.34,1.7,3.32,1.91,1.87,4,3.39,4.39,3.19l.15-.05a.14.14,0,0,0,.11-.11c.09-.22.18-1.2-2.26-4.36h0c-.45-.61-2-2.37-3.19-2.41h0a1.08,1.08,0,0,0-.87.43Z"/></g><g id="Path_80" data-name="Path 80"><path id="Path_308" data-name="Path 308" class="cls-7" d="M224.15,190.54s1.78.06,2,3.7c0,0,.71,5.35-.31,5.78,0,0-1.25,1.44-2.9-4.55C222.93,195.46,221.51,190.67,224.15,190.54Z"/><path id="Path_309" data-name="Path 309" class="cls-8" d="M225.45,200.53l-.2,0c-.94-.22-1.81-1.84-2.67-4.95,0-.12-.92-3.18.1-4.62a1.78,1.78,0,0,1,1.46-.76h0c.08,0,2.1.12,2.34,4,.21,1.64.59,5.49-.46,6.11A.93.93,0,0,1,225.45,200.53Zm-1.3-9.62a1.1,1.1,0,0,0-.88.45c-.68,1-.22,3.21,0,4,1.06,3.86,1.89,4.37,2.12,4.44a.17.17,0,0,0,.17,0,.38.38,0,0,1,.13-.09c.39-.2.43-2.77.09-5.4-.19-3.07-1.5-3.36-1.64-3.38Z"/></g><g id="Path_81" data-name="Path 81"><path id="Path_310" data-name="Path 310" class="cls-7" d="M226,190.35s-.61-1.18,1-2.29a1.84,1.84,0,0,1,2.56.45l0,.06c1,1.56,5.72,8.11,3.25,9.77,0,0-2.1.86-5.06-4.27A34.57,34.57,0,0,1,226,190.35Z"/><path id="Path_311" data-name="Path 311" class="cls-8" d="M232.41,198.77c-.89,0-2.69-.63-4.94-4.52a32.55,32.55,0,0,1-1.84-3.75c-.26-.51-.34-1.73,1.16-2.74a2.15,2.15,0,0,1,3,.48l.09.13.21.31c2,2.9,4.18,6.51,3.76,8.68a1.9,1.9,0,0,1-.82,1.29.15.15,0,0,1-.07,0A1.35,1.35,0,0,1,232.41,198.77Zm-4.27-10.69a1.76,1.76,0,0,0-.94.29c-1.37.91-.92,1.81-.92,1.82l0,0a33.61,33.61,0,0,0,1.79,3.67c2.54,4.39,4.34,4.18,4.59,4.13a1.22,1.22,0,0,0,.48-.79c.41-2.16-2.65-6.66-3.65-8.14l-.22-.31a1.37,1.37,0,0,0-1.15-.7Z"/></g></g><g id="Path_82" data-name="Path 82"><path id="Path_312" data-name="Path 312" class="cls-1" d="M170.42,140.06a356.83,356.83,0,0,1,26.5,28.88c6.61,7.94,19.8,32,30.84,21.31,14.94-14.47-13.62-42.68-23.63-53.11-13.43-14-28.94-26.1-45-37.38"/><path id="Path_313" data-name="Path 313" class="cls-6" d="M221.6,194.63c-.23,0-.47,0-.7,0-8-.71-15.63-11.36-21.22-19.13-1.56-2.18-2.91-4.06-4.06-5.44a357,357,0,0,0-26.38-28.75,1.69,1.69,0,0,1,2.35-2.43,356.78,356.78,0,0,1,26.64,29c1.22,1.47,2.6,3.39,4.2,5.62,4.92,6.84,12.34,17.17,18.77,17.74a6.69,6.69,0,0,0,5.38-2.19c13.07-12.66-11.69-38.3-22.26-49.25-.5-.52-1-1-1.41-1.47-11.5-12-25.7-23.78-44.71-37.17a1.69,1.69,0,0,1,1.85-2.84l.1.07c19.19,13.52,33.55,25.47,45.2,37.6l1.41,1.46c5.52,5.72,14.76,15.29,20.82,25.2,7.68,12.57,8.14,22.27,1.35,28.84A10.12,10.12,0,0,1,221.6,194.63Z"/></g><g id="Path_83" data-name="Path 83"><path id="Path_314" data-name="Path 314" class="cls-3" d="M85.62,88.23a30.6,30.6,0,0,1-6.18-.73,1.85,1.85,0,1,1,.88-3.6h0c.13,0,13,3,16.26-4.45a1.86,1.86,0,0,1,3.4,1.49c-1.92,4.38-6.17,6.89-12.28,7.25C87,88.23,86.29,88.25,85.62,88.23Z"/></g></g></g></g></svg>