<svg id="圖層_1" data-name="圖層 1" xmlns="http://www.w3.org/2000/svg" viewBox="0 0 252.22 226.33"><defs><style>.cls-1{fill:#caaa60;opacity:0.47;isolation:isolate;}.cls-2{fill:#ffcf63;}.cls-3{fill:#ffeec7;}.cls-4{fill:#524c4a;}.cls-5{fill:#4b4a4a;}.cls-6{fill:#e46e47;}.cls-7{fill:#cc561b;}.cls-8{fill:#fff6f2;}.cls-9{fill:#63342c;}.cls-10{fill:#fffcfa;}.cls-11{fill:#854d42;}</style></defs><title>icon</title><g id="Group_1639" data-name="Group 1639"><path id="Path_819" data-name="Path 819" class="cls-1" d="M72,173.43A68.91,68.91,0,0,1,8,89.51q-2.58.93-5.13,2.08A68.93,68.93,0,0,0,97.55,174c.45-1.53.87-3.07,1.22-4.62A68.55,68.55,0,0,1,72,173.43Z"/><path id="Path_820" data-name="Path 820" class="cls-2" d="M141,113.27a68.94,68.94,0,0,1-76.5,60.44h0A68.94,68.94,0,1,1,141,113.27Z"/><path id="Path_821" data-name="Path 821" class="cls-3" d="M61.88,96.22a116.77,116.77,0,0,0-8.66,9.54,26.64,26.64,0,0,1-5.41,5c-4.07,2.7-8.57.49-9.06-4.38a11.27,11.27,0,0,1,.43-4A30,30,0,0,1,46.52,89.2c1.79-1.88,1.69-2.73-.39-4.23s-4.47-3-6.71-4.58a2.72,2.72,0,0,0-3.83.36,1.66,1.66,0,0,0-.16.21A37.62,37.62,0,0,0,29.9,89c-1.92,3.84-1.94,3.83-6,2.54-5.72-1.82-5.72-1.82-7.57,3.92-.27.83-.55,1.65-.8,2.49-.79,2.7-.46,3.31,2.21,4.25,1.2.43,2.42.78,3.64,1.19,3.58,1.18,3.51,1.18,3.65,5,.35,9.28,4.36,16.23,13.24,19.7,7.86,3.07,14.63.62,20.69-4.69,3.74-3.28,6.62-7.3,9.91-11a20,20,0,0,1,4.26-3.8c4.75-3,10.19-.45,10.76,5.15a16.21,16.21,0,0,1-1.58,8.59,38.6,38.6,0,0,1-7.8,11.36c-2,1.93-1.86,2.72.4,4.32,2,1.37,3.94,2.68,5.94,4,2.68,1.76,3.48,1.68,5.76-.69a42.16,42.16,0,0,0,6.89-10.28c1.47-2.9,1.64-3,4.82-2l4.33,1.35c1.82.56,3.15,0,3.79-1.82.72-2.1,1.4-4.23,2-6.36a2.55,2.55,0,0,0-1.34-3.34,2.05,2.05,0,0,0-.55-.16c-2-.64-3.91-1.37-5.9-1.92S97.91,115.12,98,113a22.42,22.42,0,0,0-3.55-13.42C87.23,88.36,71.88,86.82,61.88,96.22Z"/><path id="Path_822" data-name="Path 822" class="cls-1" d="M72.93,117.5A62.48,62.48,0,0,1,51.42,31.79h0A63.14,63.14,0,0,1,57.7,23.1c-1.64-.23-3.3-.42-5-.53A62.46,62.46,0,0,0,93.13,128.91c1-1,2-2.08,3-3.17A62.26,62.26,0,0,1,72.93,117.5Z"/><path id="Path_823" data-name="Path 823" class="cls-2" d="M154.76,94.59a62.49,62.49,0,0,1-85.71,21.52h0A62.48,62.48,0,0,1,47.54,30.4h0A62.48,62.48,0,1,1,154.76,94.59Z"/><path id="Path_824" data-name="Path 824" class="cls-3" d="M109.92,44.12a105.6,105.6,0,0,0-11.66-.56,23.68,23.68,0,0,1-6.64-.89c-4.24-1.29-5.28-5.71-2.16-8.86a10.38,10.38,0,0,1,3.06-2A27.05,27.05,0,0,1,106,29.33c2.35.17,2.88-.39,2.73-2.71s-.44-4.88-.66-7.33a2.47,2.47,0,0,0-2.45-2.48h-.25a34.87,34.87,0,0,0-8.82.77c-3.79.87-3.8.85-5.24-2.73-2-5.06-2-5.06-7.1-3-.73.29-1.47.56-2.2.87-2.35,1-2.58,1.58-1.7,4,.39,1.08.84,2.14,1.26,3.23,1.24,3.18,1.2,3.14-1.4,5.44C73.87,31,71.31,37.76,74,46c2.38,7.27,8,10.6,15.2,11.78,4.45.73,8.93.42,13.4.6a18,18,0,0,1,5.11.8c4.86,1.57,6.18,6.86,2.59,10.49a14.62,14.62,0,0,1-6.92,3.84,35,35,0,0,1-12.44,1.08c-2.47-.26-3,.26-2.78,2.76.16,2.16.39,4.31.62,6.46.32,2.89.83,3.4,3.8,3.64a38.43,38.43,0,0,0,11.16-1.1c2.88-.64,3-.56,4.16,2.24.52,1.26,1,2.54,1.55,3.81.65,1.6,1.79,2.23,3.45,1.6,1.89-.7,3.78-1.45,5.63-2.24a2.31,2.31,0,0,0,1.57-2.85,2.21,2.21,0,0,0-.21-.5c-.69-1.73-1.3-3.52-2.06-5.23s-.37-3,1.15-4.09a20.28,20.28,0,0,0,7.33-10.2C130,57.34,122.26,45.7,109.92,44.12Z"/><g id="Group_1581" data-name="Group 1581"><g id="Group_1578" data-name="Group 1578"><path id="Path_825" data-name="Path 825" class="cls-4" d="M51.53,87A16.68,16.68,0,0,0,49,83.86c-.88-1-5.42-7.17-6.92-5.75a2.51,2.51,0,0,0-.43,2.29,12.29,12.29,0,0,0,2.3,4.4c1.08,1.56,5,7.83,6.86,6.22A3,3,0,0,0,51.53,87Z"/><path id="Path_826" data-name="Path 826" class="cls-5" d="M50.07,91.72h-.22c-1.75-.23-3.9-3.09-6-6.14l-.35-.52-.22-.32a11.7,11.7,0,0,1-2.15-4.25,2.83,2.83,0,0,1,.56-2.69,1.24,1.24,0,0,1,.95-.33c1.6.1,3.93,2.81,6,5.34.28.34.5.62.63.76l.47.51a13.23,13.23,0,0,1,2.16,2.77,3.39,3.39,0,0,1-.87,4.51A1.48,1.48,0,0,1,50.07,91.72ZM42.6,78.35a.3.3,0,0,0-.25.09,2.13,2.13,0,0,0-.3,1.88,10.84,10.84,0,0,0,2,3.91l.22.32.36.53c1,1.51,3.73,5.54,5.33,5.75a.58.58,0,0,0,.51-.15,2.51,2.51,0,0,0,.66-3.43h0a12.25,12.25,0,0,0-2-2.57l-.48-.53c-.15-.16-.37-.44-.65-.79-1.1-1.35-4-4.93-5.35-5Z"/></g><g id="Group_1579" data-name="Group 1579"><path id="Path_827" data-name="Path 827" class="cls-4" d="M47.77,93.28a14.28,14.28,0,0,0-3.61-1.5c-2.68-1-5.37-2-8-3.15-.05,0-.27.19-.3.22-1.15,1-.72,2.37.23,3.42a15.19,15.19,0,0,0,4.83,3.12c1.49.72,3,1.33,4.55,1.9.69.25,1.83.93,2.48.64a2.68,2.68,0,0,0,1-1.88A2.85,2.85,0,0,0,47.77,93.28Z"/><path id="Path_828" data-name="Path 828" class="cls-5" d="M47.59,98.45a4.74,4.74,0,0,1-1.75-.53l-.51-.22c-1.8-.66-3.26-1.27-4.59-1.9a15.57,15.57,0,0,1-5-3.23,3.45,3.45,0,0,1-1-2.45,2.27,2.27,0,0,1,.84-1.6c.21-.2.47-.43.77-.29,2.69,1.21,5.52,2.25,8,3.13.26.1.55.19.84.28A10.48,10.48,0,0,1,48,92.92h0a3.32,3.32,0,0,1,1.42,3.16,3.12,3.12,0,0,1-1.3,2.26A1.55,1.55,0,0,1,47.59,98.45ZM36.22,89.14l0,0,0,0a1.41,1.41,0,0,0-.52,1,2.59,2.59,0,0,0,.8,1.8,14.94,14.94,0,0,0,4.69,3c1.3.62,2.74,1.22,4.52,1.87l.57.24c.5.23,1.25.56,1.57.42A2.35,2.35,0,0,0,48.56,96a2.42,2.42,0,0,0-1.05-2.37h0a9.71,9.71,0,0,0-2.64-1.15L44,92.2c-2.39-.87-5.14-1.88-7.79-3.06Z"/></g><g id="Group_1580" data-name="Group 1580"><path id="Path_829" data-name="Path 829" class="cls-4" d="M48.56,88.47a2.61,2.61,0,0,0-.51-.59c-.92-.73-2-1.3-3-1.95-2.41-1.62-4.82-3.88-7.37-5.2-1.79-.92-3.3.32-2.65,2.43a10.11,10.11,0,0,0,3,3.9,51.94,51.94,0,0,0,7.44,5.77c1.3.86,2.92,1.86,3.58-.35A5.43,5.43,0,0,0,48.56,88.47Z"/><path id="Path_830" data-name="Path 830" class="cls-5" d="M47.68,94.27a5,5,0,0,1-2.46-1.07,51.69,51.69,0,0,1-7.51-5.83l-.21-.2a9.74,9.74,0,0,1-2.85-3.89,2.57,2.57,0,0,1,.58-2.84,2.42,2.42,0,0,1,2.7-.1,33.08,33.08,0,0,1,4.68,3.2c.9.69,1.82,1.41,2.73,2,.33.22.7.45,1,.66a18.52,18.52,0,0,1,1.95,1.32,2.84,2.84,0,0,1,.6.69,5.86,5.86,0,0,1,.53,4.38,2.15,2.15,0,0,1-1.23,1.56A1.49,1.49,0,0,1,47.68,94.27ZM36.56,80.87a1.14,1.14,0,0,0-.76.25,1.75,1.75,0,0,0-.3,1.9,9,9,0,0,0,2.62,3.51l.21.21a51.8,51.8,0,0,0,7.38,5.72c.61.41,1.64,1.09,2.23.87.29-.1.52-.43.68-1a5,5,0,0,0-.44-3.65h0a1.68,1.68,0,0,0-.41-.47A17.73,17.73,0,0,0,45.92,87c-.36-.22-.72-.44-1.07-.68-.93-.62-1.87-1.35-2.78-2.05a31.82,31.82,0,0,0-4.55-3.11A1.89,1.89,0,0,0,36.56,80.87Z"/></g></g><g id="Group_1585" data-name="Group 1585"><g id="Group_1582" data-name="Group 1582"><path id="Path_831" data-name="Path 831" class="cls-4" d="M34.38,161.38a16.82,16.82,0,0,0-3.1-2.67c-1-.8-6.62-6.07-7.84-4.4a2.47,2.47,0,0,0,0,2.32,12.4,12.4,0,0,0,3.05,3.92c1.34,1.33,6.34,6.8,7.87,4.87A2.94,2.94,0,0,0,34.38,161.38Z"/><path id="Path_832" data-name="Path 832" class="cls-5" d="M33.47,166.27c-1.76,0-4.34-2.38-6.86-5l-.44-.45-.27-.27A11.64,11.64,0,0,1,23,156.8a2.83,2.83,0,0,1,.06-2.75,1.21,1.21,0,0,1,.88-.5c1.59-.19,4.37,2.06,6.84,4.17.34.29.6.52.76.63s.36.28.55.42a13.84,13.84,0,0,1,2.62,2.33h0a3.39,3.39,0,0,1,0,4.6,1.56,1.56,0,0,1-1.13.57Zm-9.3-11.84h-.1a.36.36,0,0,0-.27.14,2.15,2.15,0,0,0,.05,1.9A10.73,10.73,0,0,0,26.53,160l.27.27.45.46c1.28,1.3,4.66,4.77,6.28,4.7a.6.6,0,0,0,.48-.24,2.52,2.52,0,0,0,0-3.5,12.91,12.91,0,0,0-2.45-2.16l-.57-.43c-.18-.14-.44-.36-.79-.66-1.29-1.1-4.65-4-6.06-4Z"/></g><g id="Group_1583" data-name="Group 1583"><path id="Path_833" data-name="Path 833" class="cls-4" d="M31.81,168.2a14,14,0,0,0-3.82-.82c-2.82-.48-5.64-1-8.43-1.66,0,0-.23.24-.26.27-.95,1.17-.28,2.45.85,3.32a15.22,15.22,0,0,0,5.31,2.2c1.59.43,3.21.76,4.82,1,.73.13,2,.59,2.56.19a2.73,2.73,0,0,0,.68-2A2.87,2.87,0,0,0,31.81,168.2Z"/><path id="Path_834" data-name="Path 834" class="cls-5" d="M32.18,173.34a6.37,6.37,0,0,1-1.43-.23l-.54-.13c-1.9-.33-3.45-.66-4.87-1a15.73,15.73,0,0,1-5.46-2.28,3.48,3.48,0,0,1-1.46-2.23,2.26,2.26,0,0,1,.54-1.72c.17-.23.38-.51.71-.43,2.86.7,5.83,1.23,8.4,1.65l.87.13a9.92,9.92,0,0,1,3.07.74h0a3.32,3.32,0,0,1,2,2.85,3.09,3.09,0,0,1-.88,2.45A1.62,1.62,0,0,1,32.18,173.34ZM19.69,166.2l0,0,0,0a1.37,1.37,0,0,0-.34,1.06A2.66,2.66,0,0,0,20.42,169a14.89,14.89,0,0,0,5.16,2.13c1.39.38,2.91.7,4.78,1l.6.13c.53.13,1.33.33,1.63.13a2.42,2.42,0,0,0,.49-1.64,2.45,2.45,0,0,0-1.46-2.14h0a9.36,9.36,0,0,0-2.8-.65l-.9-.13c-2.51-.42-5.41-.92-8.23-1.61Zm-.24,0Z"/></g><g id="Group_1584" data-name="Group 1584"><path id="Path_835" data-name="Path 835" class="cls-4" d="M31.71,163.32a2,2,0,0,0-.6-.48c-1-.56-2.19-.93-3.26-1.4-2.67-1.15-5.45-2.94-8.18-3.77-1.94-.59-3.19.91-2.18,2.86a10.3,10.3,0,0,0,3.61,3.3,51.72,51.72,0,0,0,8.36,4.33c1.43.62,3.2,1.31,3.46-1A5.44,5.44,0,0,0,31.71,163.32Z"/><path id="Path_836" data-name="Path 836" class="cls-5" d="M31.53,169.22a6.08,6.08,0,0,1-2.25-.65,51.4,51.4,0,0,1-8.43-4.37L20.6,164a9.92,9.92,0,0,1-3.51-3.3,2.6,2.6,0,0,1,.06-2.9,2.39,2.39,0,0,1,2.64-.59,31.92,31.92,0,0,1,5.18,2.3c1,.52,2.05,1.06,3.05,1.49.37.16.77.31,1.15.46a21.61,21.61,0,0,1,2.15.95A2.83,2.83,0,0,1,32,163h0a5.91,5.91,0,0,1,1.32,4.22,2.18,2.18,0,0,1-.93,1.75A1.8,1.8,0,0,1,31.53,169.22ZM18.85,158a1.24,1.24,0,0,0-1,.42,1.72,1.72,0,0,0,0,1.92,9.17,9.17,0,0,0,3.21,3l.25.16a50.12,50.12,0,0,0,8.29,4.3c.68.29,1.8.78,2.35.46a1.36,1.36,0,0,0,.5-1.08,5.07,5.07,0,0,0-1.09-3.52h0a1.83,1.83,0,0,0-.49-.39,18.88,18.88,0,0,0-2.06-.9c-.38-.15-.79-.31-1.17-.48-1-.44-2.09-1-3.1-1.51a31.41,31.41,0,0,0-5-2.25,2.37,2.37,0,0,0-.69-.11Z"/></g></g><g id="Group_1586" data-name="Group 1586"><path id="Path_837" data-name="Path 837" class="cls-6" d="M121.05,81.71s-7.71,16.74-45.79,7.05c0,0-16.37-7.19-19.59-7.23s-7.69,2-8.7,5.53-7,15,18,28.65c0,0,18,8.82,27,12.55s9.39,4.71,9,7.4S98.81,155.58,97.34,159,96,179.54,78.94,176.4a80.49,80.49,0,0,1-20.69-6.29c-3.36-1.63-5.93-4.18-9.07-6-3.34-1.93-11.63-6-15.18-3.49-5,3.51-8,12.07-5.09,17.55C34.84,189.37,49,198.24,59.4,204.44c25.91,15.4,59.22,20.39,89,21.71,27.48,1.22,57.95-3.56,78.23-23.76,37.71-37.58,38.19-176.54-28.77-185.72S127.56,52.1,121.05,81.71Z"/></g><g id="Group_1587" data-name="Group 1587"><path id="Path_838" data-name="Path 838" class="cls-6" d="M173.28,8.18s6.45,8.68-.57,10.33L192,21.73S195,10.86,187.91,6c0,0,1.77,6.52,0,9.24,0,0-4.7-8.69-9.39-9.77,0,0,3.53,8.15,1.78,10.33Z"/><path id="Path_839" data-name="Path 839" class="cls-6" d="M192,23.44l-.28,0-19.33-3.23a1.71,1.71,0,0,1-.11-3.35c1.52-.35,1.76-1,1.84-1.23.27-.74.07-3.28-2.25-6.41A1.71,1.71,0,0,1,174.53,7l4.26,4.58A33.11,33.11,0,0,0,177,6.13a1.72,1.72,0,0,1,2-2.35c3.13.73,6.06,4,8,6.72a20,20,0,0,0-.7-4.07,1.72,1.72,0,0,1,2.63-1.86c3.33,2.31,5.21,6.13,5.43,11a23.39,23.39,0,0,1-.63,6.56A1.71,1.71,0,0,1,192,23.44Zm-15-6,13.63,2.28a18.14,18.14,0,0,0-.28-7.3,7.65,7.65,0,0,1-1,3.67,1.71,1.71,0,0,1-2.94-.12,31.68,31.68,0,0,0-4.6-6.37c1,3.54.92,5.83-.17,7.19a1.72,1.72,0,0,1-1.27.64,1.77,1.77,0,0,1-1.32-.55l-1.4-1.51a5.25,5.25,0,0,1-.3,1.36,4.49,4.49,0,0,1-.31.71Z"/></g><g id="Group_1588" data-name="Group 1588"><path id="Path_840" data-name="Path 840" class="cls-7" d="M216.2,110.35h-.13a1.43,1.43,0,0,1-1.29-1.55h0a11.11,11.11,0,0,0-.23-4.41,1.4,1.4,0,0,1,.75-1.85h0a1.43,1.43,0,0,1,1.87.77c.08.19.79,2,.44,5.76A1.41,1.41,0,0,1,216.2,110.35Z"/></g><g id="Group_1589" data-name="Group 1589"><path id="Path_841" data-name="Path 841" class="cls-7" d="M208.15,117.68H208a1.43,1.43,0,0,1-1.29-1.55,11.11,11.11,0,0,0-.23-4.41,1.41,1.41,0,0,1,.74-1.85h0a1.43,1.43,0,0,1,1.87.77c.08.19.78,2,.44,5.76A1.41,1.41,0,0,1,208.15,117.68Z"/></g><path id="Path_842" data-name="Path 842" class="cls-8" d="M138.08,69.67c5.58,15.09,24,26.18,45.69,26.14s40.06-11.19,45.59-26.3c2.66-11.27,0-19.15,0-19.15a34.9,34.9,0,0,0-11.34-15c-5.07-4-15.7-4.15-21-.46l-5.49,3.8a14.07,14.07,0,0,1-15.61,0l-5.5-3.79c-5.37-3.7-16-3.5-21,.54a34.93,34.93,0,0,0-11.29,15.08A36.42,36.42,0,0,0,138.08,69.67Z"/><g id="Group_1590" data-name="Group 1590"><path id="Path_843" data-name="Path 843" class="cls-9" d="M183.72,66.76a11.7,11.7,0,0,0,4.63-1,1.49,1.49,0,0,0-.58-2.85l-8.12,0a1.48,1.48,0,0,0-1.47,1.49,1.46,1.46,0,0,0,.9,1.35A11.53,11.53,0,0,0,183.72,66.76Z"/><path id="Path_844" data-name="Path 844" class="cls-9" d="M183.69,67A11.94,11.94,0,0,1,179,66a1.7,1.7,0,0,1-1-1.93,1.67,1.67,0,0,1,1.67-1.36l8.12,0h0a1.71,1.71,0,0,1,.67,3.29,11.81,11.81,0,0,1-4.73,1Zm0-.23Zm4.05-3.57h0l-8.11,0a1.25,1.25,0,0,0-.49,2.4,11.67,11.67,0,0,0,4.55.92h0a11.43,11.43,0,0,0,4.54-.94,1.25,1.25,0,0,0-.49-2.4Z"/></g><path id="Path_845" data-name="Path 845" class="cls-9" d="M176.38,72.53a1.74,1.74,0,0,0-2.46-.14h0a1.75,1.75,0,0,0-.14,2.45,7.45,7.45,0,0,0,5.66,2.45,7.54,7.54,0,0,0,4.3-1.39,7.53,7.53,0,0,0,4.34,1.3,7.44,7.44,0,0,0,5.6-2.57,1.74,1.74,0,0,0-.19-2.45h0a1.74,1.74,0,0,0-2.45.19,4.11,4.11,0,0,1-6,.07,1.75,1.75,0,0,0-2.48-.11l-.14.13a4.09,4.09,0,0,1-6,.07Z"/><circle id="Ellipse_102" data-name="Ellipse 102" class="cls-8" cx="214.2" cy="59.59" r="9.28"/><ellipse id="Ellipse_103" data-name="Ellipse 103" class="cls-10" cx="161.91" cy="57.3" rx="3.37" ry="2.83" transform="translate(-9.83 55.12) rotate(-18.76)"/><path id="Path_846" data-name="Path 846" class="cls-11" d="M137.5,51.51a82.38,82.38,0,0,1,15.79-2.91c6.53-.48,14.78-.07,19.5,4.68s-2,9.27-6.42,11.47c-7.18,3.58-15.06,5.65-21.84,9.92-.31.2-1.5.93-3,1.9a31.83,31.83,0,0,1-4-7.74A40.15,40.15,0,0,1,137.5,51.51Z"/><ellipse id="Ellipse_104" data-name="Ellipse 104" class="cls-10" cx="205.3" cy="57.22" rx="2.83" ry="3.37" transform="translate(85.72 233.64) rotate(-71.44)"/><path id="Path_847" data-name="Path 847" class="cls-11" d="M229.69,51.35a82.25,82.25,0,0,0-15.8-2.86c-6.52-.46-14.77,0-19.48,4.76s2.05,9.25,6.47,11.44c7.2,3.56,15.07,5.6,21.87,9.84.32.2,1.5.93,3,1.89a31.45,31.45,0,0,0,3.94-7.75A39.84,39.84,0,0,0,229.69,51.35Z"/><g id="Group_1591" data-name="Group 1591"><path id="Path_848" data-name="Path 848" class="cls-9" d="M160.54,62.11a7.33,7.33,0,0,1-3.31-.79,5.6,5.6,0,0,1-1.92-8.58,1.68,1.68,0,0,1,2.37-.32h0a1.69,1.69,0,0,1,.32,2.36h0a2.35,2.35,0,0,0-.51,2,2.38,2.38,0,0,0,1.3,1.57,4.26,4.26,0,0,0,5.09-1.14,2.38,2.38,0,0,0,.5-2,1.69,1.69,0,0,1,3.3-.74,5.7,5.7,0,0,1-1.12,4.76,7.45,7.45,0,0,1-4.3,2.69A8.24,8.24,0,0,1,160.54,62.11Z"/></g><g id="Group_1592" data-name="Group 1592"><path id="Path_849" data-name="Path 849" class="cls-9" d="M204.73,62.06a7.08,7.08,0,0,1-3.31-.79,5.6,5.6,0,0,1-1.92-8.58,1.7,1.7,0,0,1,2.37-.32h0a1.7,1.7,0,0,1,.32,2.37,2.23,2.23,0,0,0,.79,3.53,4,4,0,0,0,2.73.3c1.87-.42,3.18-2,2.86-3.4a1.69,1.69,0,0,1,1.28-2h0a1.69,1.69,0,0,1,2,1.28c.73,3.27-1.7,6.61-5.42,7.44A7.62,7.62,0,0,1,204.73,62.06Z"/></g><g id="Group_1593" data-name="Group 1593"><path id="Path_850" data-name="Path 850" class="cls-7" d="M200.18,112.58a1.33,1.33,0,0,1-1.29-1,14.14,14.14,0,0,1-.4-5.57,1.34,1.34,0,0,1,1.58-1h0a1.32,1.32,0,0,1,1,1.56,12.49,12.49,0,0,0,.4,4.43,1.33,1.33,0,0,1-1,1.59A1.45,1.45,0,0,1,200.18,112.58Z"/></g><g id="Group_1597" data-name="Group 1597"><g id="Group_1594" data-name="Group 1594"><path id="Path_851" data-name="Path 851" class="cls-7" d="M246.26,131.73a1.34,1.34,0,0,1-.4-.06,1.37,1.37,0,0,1-.92-1.71,10.53,10.53,0,0,0,.64-4.23,1.38,1.38,0,0,1,1.08-1.61h0a1.38,1.38,0,0,1,1.62,1.09c0,.2.36,2-.71,5.54A1.37,1.37,0,0,1,246.26,131.73Z"/></g><g id="Group_1595" data-name="Group 1595"><path id="Path_852" data-name="Path 852" class="cls-7" d="M240.54,135.16a1.34,1.34,0,0,1-.4-.06,1.37,1.37,0,0,1-.92-1.71,10.68,10.68,0,0,0,.64-4.23,1.35,1.35,0,0,1,1.07-1.6h0a1.39,1.39,0,0,1,1.62,1.09c0,.2.36,2-.71,5.55A1.36,1.36,0,0,1,240.54,135.16Z"/></g><g id="Group_1596" data-name="Group 1596"><path id="Path_853" data-name="Path 853" class="cls-7" d="M239,124.48a1.39,1.39,0,0,1-.4-.06,1.37,1.37,0,0,1-.91-1.71,10.79,10.79,0,0,0,.64-4.21,1.38,1.38,0,0,1,1.08-1.62h0A1.39,1.39,0,0,1,241,118c0,.2.35,2-.71,5.55A1.39,1.39,0,0,1,239,124.48Z"/></g></g><g id="Group_1603" data-name="Group 1603"><g id="Group_1598" data-name="Group 1598"><path id="Path_854" data-name="Path 854" class="cls-7" d="M215,194.83a1.35,1.35,0,0,1-.73-.21,1.38,1.38,0,0,1-.44-1.89,10.68,10.68,0,0,0,1.72-3.92,1.36,1.36,0,0,1,1.45-1.27h0a1.38,1.38,0,0,1,1.28,1.47c0,.2-.18,2.05-2.13,5.17A1.38,1.38,0,0,1,215,194.83Z"/></g><g id="Group_1599" data-name="Group 1599"><path id="Path_855" data-name="Path 855" class="cls-7" d="M208.58,196.66a1.44,1.44,0,0,1-.73-.21,1.39,1.39,0,0,1-.44-1.9,10.64,10.64,0,0,0,1.72-3.91,1.36,1.36,0,0,1,1.45-1.27h0a1.39,1.39,0,0,1,1.29,1.47,12.58,12.58,0,0,1-2.13,5.17A1.41,1.41,0,0,1,208.58,196.66Z"/></g><g id="Group_1600" data-name="Group 1600"><path id="Path_856" data-name="Path 856" class="cls-7" d="M148.49,204.05a1.4,1.4,0,0,1-1.2-.7,1.37,1.37,0,0,1,.52-1.87,10.71,10.71,0,0,0,3.38-2.59,1.37,1.37,0,0,1,1.9-.43h0a1.38,1.38,0,0,1,.42,1.9h0c-.11.17-1.14,1.71-4.34,3.52A1.46,1.46,0,0,1,148.49,204.05Z"/></g><g id="Group_1601" data-name="Group 1601"><path id="Path_857" data-name="Path 857" class="cls-7" d="M142.11,213.73a1.38,1.38,0,0,1-.68-2.58,10.66,10.66,0,0,0,3.39-2.61,1.36,1.36,0,0,1,1.88-.42h0a1.38,1.38,0,0,1,.42,1.9c-.11.17-1.15,1.71-4.35,3.52A1.43,1.43,0,0,1,142.11,213.73Z"/></g><g id="Group_1602" data-name="Group 1602"><path id="Path_858" data-name="Path 858" class="cls-7" d="M209.85,185.94a1.44,1.44,0,0,1-.73-.21,1.39,1.39,0,0,1-.44-1.9,10.64,10.64,0,0,0,1.72-3.91,1.36,1.36,0,0,1,1.45-1.27h0a1.39,1.39,0,0,1,1.29,1.47,12.58,12.58,0,0,1-2.13,5.17A1.39,1.39,0,0,1,209.85,185.94Z"/></g></g><g id="Group_1607" data-name="Group 1607"><g id="Group_1604" data-name="Group 1604"><path id="Path_859" data-name="Path 859" class="cls-7" d="M98.1,188.67a1.37,1.37,0,0,1-.71-2.55,10.87,10.87,0,0,0,3.31-2.72,1.35,1.35,0,0,1,1.87-.47h0a1.38,1.38,0,0,1,.48,1.9c-.1.17-1.09,1.74-4.24,3.64A1.36,1.36,0,0,1,98.1,188.67Z"/></g><g id="Group_1605" data-name="Group 1605"><path id="Path_860" data-name="Path 860" class="cls-7" d="M91.55,187.39a1.37,1.37,0,0,1-.71-2.55,10.84,10.84,0,0,0,3.31-2.71,1.37,1.37,0,0,1,1.87-.48h0a1.37,1.37,0,0,1,.48,1.89c-.1.17-1.09,1.74-4.24,3.64A1.36,1.36,0,0,1,91.55,187.39Z"/></g><g id="Group_1606" data-name="Group 1606"><path id="Path_861" data-name="Path 861" class="cls-7" d="M97.54,178.41a1.38,1.38,0,0,1-.72-2.55,10.75,10.75,0,0,0,3.31-2.72,1.36,1.36,0,0,1,1.87-.47h0a1.39,1.39,0,0,1,.47,1.9c-.1.17-1.09,1.74-4.23,3.64A1.39,1.39,0,0,1,97.54,178.41Z"/></g></g><g id="Group_1611" data-name="Group 1611"><g id="Group_1608" data-name="Group 1608"><path id="Path_862" data-name="Path 862" class="cls-7" d="M156.38,148.43a1.62,1.62,0,0,1-.44-.07,1.38,1.38,0,0,1-.86-1.75,10.94,10.94,0,0,0,.77-4.2,1.36,1.36,0,0,1,1.12-1.58h0a1.38,1.38,0,0,1,1.59,1.14,12.47,12.47,0,0,1-.88,5.52A1.38,1.38,0,0,1,156.38,148.43Z"/></g><g id="Group_1609" data-name="Group 1609"><path id="Path_863" data-name="Path 863" class="cls-7" d="M144.43,143.57a1.29,1.29,0,0,1-.43-.07,1.38,1.38,0,0,1-.87-1.74,10.66,10.66,0,0,0,.77-4.21A1.37,1.37,0,0,1,145,136h0a1.39,1.39,0,0,1,1.59,1.14c0,.2.29,2-.88,5.52A1.38,1.38,0,0,1,144.43,143.57Z"/></g><g id="Group_1610" data-name="Group 1610"><path id="Path_864" data-name="Path 864" class="cls-7" d="M138,146a1.31,1.31,0,0,1-.44-.07,1.38,1.38,0,0,1-.87-1.74h0a10.72,10.72,0,0,0,.78-4.19,1.37,1.37,0,0,1,2.71-.46h0a12.43,12.43,0,0,1-.88,5.51A1.38,1.38,0,0,1,138,146Z"/></g></g><g id="Group_1612" data-name="Group 1612"><path id="Path_865" data-name="Path 865" class="cls-7" d="M129.1,92a1.42,1.42,0,0,1-1.4-1.16c-.7-3.73-.18-5.58-.12-5.78a1.43,1.43,0,0,1,1.78-.93h0a1.42,1.42,0,0,1,.94,1.76,11.15,11.15,0,0,0,.2,4.42A1.42,1.42,0,0,1,129.37,92Z"/></g><g id="Group_1613" data-name="Group 1613"><path id="Path_866" data-name="Path 866" class="cls-7" d="M134.29,89a1.41,1.41,0,0,1-1.4-1.15c-.71-3.74-.19-5.58-.12-5.78a1.41,1.41,0,0,1,1.78-.93h0a1.42,1.42,0,0,1,.94,1.76,11.17,11.17,0,0,0,.2,4.42A1.43,1.43,0,0,1,134.56,89,1.23,1.23,0,0,1,134.29,89Z"/></g></g></svg>