<svg id="圖層_1" data-name="圖層 1" xmlns="http://www.w3.org/2000/svg" viewBox="0 0 37.93 190.84"><defs><style>.cls-1{fill:#ffeda6;}.cls-2{fill:#4d5972;}.cls-3{fill:#ffc318;}.cls-4{fill:#f37566;}.cls-5{fill:#524c4a;}.cls-6{fill:#4b4a4a;}.cls-7{fill:#e46e47;}.cls-8{fill:#cc561b;}</style></defs><title>icon</title><path id="Path_71" data-name="Path 71" class="cls-1" d="M5.24,3.27a1.14,1.14,0,0,1-1.56-.45h0l-.28-.5-.08,6.9,8-4.45L5.4,1.2l.29.51A1.16,1.16,0,0,1,5.24,3.27Z"/><path id="Path_72" data-name="Path 72" class="cls-2" d="M3.39,2.31l.29.51a1.15,1.15,0,0,0,2-1.12L5.4,1.2,3.42,0Z"/><path id="Path_73" data-name="Path 73" class="cls-3" d="M24.58,47.39l8-4.48L11.35,4.79l0,0-8,4.45v0Z"/><path id="Path_74" data-name="Path 74" class="cls-4" d="M32.72,57.31l4-2.25a2.29,2.29,0,0,0,.89-3.1l-2.81-5-8,4.48,2.81,5a2.27,2.27,0,0,0,3.1.88Z"/><rect id="Rectangle_2" data-name="Rectangle 2" class="cls-1" x="25.12" y="44.86" width="9.19" height="4.59" transform="translate(-19.2 20.44) rotate(-29.14)"/><g id="Group_18" data-name="Group 18"><g id="Path_75" data-name="Path 75"><path id="Path_298" data-name="Path 298" class="cls-5" d="M19.63,42s1.75-.31,1.46-3.93c0,0-.06-5.41-1.12-5.69,0,0-1.45-1.25-2.23,4.92C17.74,37.3,17,42.26,19.63,42Z"/><path id="Path_299" data-name="Path 299" class="cls-6" d="M19.4,42.38a1.74,1.74,0,0,1-1.28-.56c-1.19-1.26-.79-4.24-.74-4.57.41-3.19,1-4.92,1.95-5.27a.93.93,0,0,1,.81.08c1.13.46,1.29,4.33,1.31,6,.32,3.88-1.67,4.28-1.76,4.29h0Zm.23-.37Zm0,0Zm0-9.37-.1,0c-.22.1-1,.72-1.48,4.69-.12.82-.25,3.12.55,4a1.12,1.12,0,0,0,.93.33c.13,0,1.4-.5,1.15-3.55,0-2.68-.43-5.22-.85-5.36a.39.39,0,0,1-.14-.08l-.06,0Z"/></g><g id="Path_76" data-name="Path 76"><path id="Path_300" data-name="Path 300" class="cls-5" d="M26.38,43.43s-1.21-1.3,1.21-4c0,0,3.29-4.29,4.31-3.87,0,0,1.9-.13-1.17,5.27C30.73,40.81,28.34,45.21,26.38,43.43Z"/><path id="Path_301" data-name="Path 301" class="cls-6" d="M27.36,44.22a1.85,1.85,0,0,1-1.22-.52l0,0c-.06-.06-1.41-1.57,1.2-4.5,1-1.31,3.46-4.3,4.63-4a.9.9,0,0,1,.7.42c.51.82,0,2.58-1.61,5.39-.16.3-1.65,2.91-3.35,3.2A1.84,1.84,0,0,1,27.36,44.22Zm-.72-1a1.13,1.13,0,0,0,.94.3c1.1-.19,2.33-1.94,2.83-2.84h0c2-3.52,1.75-4.44,1.62-4.64a.17.17,0,0,0-.11-.09h0a.33.33,0,0,1-.17,0c-.42-.14-2.27,1.65-3.88,3.75-2,2.31-1.31,3.44-1.23,3.55Z"/></g><g id="Path_77" data-name="Path 77"><path id="Path_302" data-name="Path 302" class="cls-5" d="M25,42.29s-.4,1.27-2.35.89a1.84,1.84,0,0,1-1.49-2.13s0,0,0-.07c.36-1.84,1.69-9.78,4.61-9.21,0,0,2.09.88.56,6.61A34,34,0,0,1,25,42.29Z"/><path id="Path_303" data-name="Path 303" class="cls-6" d="M23.24,43.6a4,4,0,0,1-.69-.07,2.16,2.16,0,0,1-1.79-2.47l0-.16.06-.35c.39-2,1.41-7.41,3.49-8.81a1.9,1.9,0,0,1,1.48-.33l.08,0c.24.11,2.33,1.18.76,7a34.54,34.54,0,0,1-1.35,3.94A2,2,0,0,1,23.24,43.6Zm2.24-11.5a1.21,1.21,0,0,0-.74.24c-1.83,1.24-2.84,6.59-3.17,8.34L21.5,41a1.47,1.47,0,0,0,1.1,1.76h.09c1.61.32,1.93-.63,1.93-.64a0,0,0,0,0,0,0A31,31,0,0,0,26,38.27c1.31-4.89-.11-6-.33-6.16Z"/></g></g><g id="Path_78" data-name="Path 78"><path id="Path_304" data-name="Path 304" class="cls-7" d="M31,153.79C26.51,129.09,27,103.88,29.32,79c.94-10.28,8.62-36.62-6.74-36.87C1.79,41.77,2,81.91,1.73,96.37c-.64,31.06,5.91,62.51,12,92.78"/><path id="Path_305" data-name="Path 305" class="cls-8" d="M13.74,190.84a1.68,1.68,0,0,1-1.62-1.36l-.47-2.3C5.63,157.49-.58,126.79,0,96.34l0-2c.14-8,.37-21.25,3.1-32.55,3.45-14.32,10-21.5,19.43-21.34h0a9.94,9.94,0,0,1,7.87,3.47C35.63,50,33.52,63,32,72.42c-.43,2.64-.81,4.93-1,6.71-2.72,29.49-2.2,53.12,1.64,74.36a1.7,1.7,0,0,1-3.34.61c-3.89-21.55-4.42-45.47-1.67-75.28.17-1.9.56-4.24,1-6.95C30.07,63.07,32,51,27.9,46.05a6.67,6.67,0,0,0-5.33-2.25h0C4.36,43.5,3.73,79.14,3.47,94.36l0,2C2.81,126.48,9,157,15,186.5l.47,2.31a1.69,1.69,0,0,1-1.33,2A1.5,1.5,0,0,1,13.74,190.84Z"/></g></svg>