<svg id="圖層_1" data-name="圖層 1" xmlns="http://www.w3.org/2000/svg" viewBox="0 0 60 60"><defs><style>.cls-1{fill:#d6ffb4;}.cls-2{fill:#63342c;stroke:#63342c;stroke-width:0.75px;}</style></defs><title>icon</title><rect id="Rectangle_95" data-name="Rectangle 95" class="cls-1" x="4.27" y="47.05" width="13.96" height="9.43" transform="translate(-40.53 62.93) rotate(-89.91)"/><rect id="Rectangle_96" data-name="Rectangle 96" class="cls-1" x="18.77" y="42.72" width="22.68" height="9.43" transform="translate(-17.37 77.47) rotate(-89.91)"/><rect id="Rectangle_97" data-name="Rectangle 97" class="cls-1" x="29.19" y="34.24" width="39.6" height="9.43" transform="translate(9.95 87.87) rotate(-89.91)"/><path id="Path_473" data-name="Path 473" class="cls-2" d="M57.23,57.66H54.66l.06-37.31a3.15,3.15,0,0,0-3.14-3.15H45.83a3.16,3.16,0,0,0-3.15,3.14l-.06,37.31H36.1l0-20.4A3.16,3.16,0,0,0,33,34.06H27.24a3.15,3.15,0,0,0-3.15,3.15l0,20.4H17.53l0-10.56a3.15,3.15,0,0,0-3.15-3.15H8.66A3.16,3.16,0,0,0,5.5,47V57.57H2.78a1.17,1.17,0,1,0,0,2.34L57.22,60a1.17,1.17,0,1,0,0-2.34Zm-42-.07H7.83V47a.81.81,0,0,1,.81-.81H14.4a.8.8,0,0,1,.8.81Zm18.57,0H26.39l0-20.41a.8.8,0,0,1,.8-.8H33a.82.82,0,0,1,.8.81Zm18.56,0H45L45,20.33a.81.81,0,0,1,.81-.81h5.74a.81.81,0,0,1,.81.81Z"/><path id="Path_474" data-name="Path 474" class="cls-2" d="M54.75,1.24A1.16,1.16,0,0,0,53.65,0H46.37a1.17,1.17,0,0,0,0,2.34h4.38L39.15,13.91,34.79,9.54a1.18,1.18,0,0,0-1.66,0h0L12,30.56a1.17,1.17,0,1,0,1.66,1.66L34,12l4.37,4.37a1.18,1.18,0,0,0,1.66,0h0L52.41,4V8a1.17,1.17,0,0,0,1.17,1.18A1.19,1.19,0,0,0,54.75,8V1.24Z"/><circle id="Ellipse_79" data-name="Ellipse 79" class="cls-2" cx="8.91" cy="35.47" r="1.17"/></svg>