<svg id="圖層_1" data-name="圖層 1" xmlns="http://www.w3.org/2000/svg" viewBox="0 0 60 60"><defs><style>.cls-1{fill:#63342c;}</style></defs><title>icon</title><g id="Group_146" data-name="Group 146"><g id="Group_145" data-name="Group 145"><path id="Path_376" data-name="Path 376" class="cls-1" d="M32.7,42.66a4.69,4.69,0,0,0,4.68,4.69H42.9a4.69,4.69,0,0,0,4.68-4.69V37.15a4.68,4.68,0,0,0-4.68-4.69H37.39a4.69,4.69,0,0,0-4.69,4.69Zm4.68-5.51H42.9v5.51H37.39Z"/><circle id="Ellipse_61" data-name="Ellipse 61" class="cls-1" cx="45.23" cy="24.61" r="2.34"/><circle id="Ellipse_62" data-name="Ellipse 62" class="cls-1" cx="35.04" cy="24.61" r="2.34"/><path id="Path_377" data-name="Path 377" class="cls-1" d="M57.66,41.25A2.34,2.34,0,0,0,60,38.91h0V14.06a9.39,9.39,0,0,0-9.37-9.37H47.58V2.34a2.35,2.35,0,0,0-4.69,0h0V4.69H32.23V2.34a2.35,2.35,0,0,0-4.69,0V4.69H17V2.34a2.35,2.35,0,0,0-4.69,0h0V4.69H9.38A9.38,9.38,0,0,0,0,14.06V50.63A9.38,9.38,0,0,0,9.38,60H50.63A9.39,9.39,0,0,0,60,50.63a2.35,2.35,0,1,0-4.69,0,4.69,4.69,0,0,1-4.69,4.68H9.38a4.69,4.69,0,0,1-4.69-4.68V14.06A4.69,4.69,0,0,1,9.38,9.38H12.3v2.34a2.35,2.35,0,0,0,4.69,0V9.38H27.54v2.34a2.35,2.35,0,0,0,4.69,0V9.38H42.89v2.34a2.35,2.35,0,0,0,4.69,0h0V9.38h3.05a4.69,4.69,0,0,1,4.68,4.68V38.91A2.35,2.35,0,0,0,57.66,41.25Z"/><circle id="Ellipse_63" data-name="Ellipse 63" class="cls-1" cx="14.65" cy="45" r="2.34"/><circle id="Ellipse_64" data-name="Ellipse 64" class="cls-1" cx="14.65" cy="24.61" r="2.34"/><circle id="Ellipse_65" data-name="Ellipse 65" class="cls-1" cx="14.65" cy="34.8" r="2.34"/><circle id="Ellipse_66" data-name="Ellipse 66" class="cls-1" cx="24.84" cy="34.8" r="2.34"/><circle id="Ellipse_67" data-name="Ellipse 67" class="cls-1" cx="24.84" cy="24.61" r="2.34"/><circle id="Ellipse_68" data-name="Ellipse 68" class="cls-1" cx="24.84" cy="45" r="2.34"/></g></g></svg>