<svg id="圖層_1" data-name="圖層 1" xmlns="http://www.w3.org/2000/svg" xmlns:xlink="http://www.w3.org/1999/xlink" viewBox="0 0 90 90"><defs><style>.cls-1{fill:url(#未命名漸層_2);}.cls-2{fill:#ffeec7;}</style><linearGradient id="未命名漸層_2" x1="-800.03" y1="567.42" x2="-800.03" y2="566.41" gradientTransform="matrix(82.74, 33.94, 33.94, -82.74, 46995.15, 74107.94)" gradientUnits="userSpaceOnUse"><stop offset="0" stop-color="#ffd95b"/><stop offset="1" stop-color="#ff5637"/></linearGradient></defs><title>icon</title><g id="Group_1624" data-name="Group 1624"><path id="Path_485" data-name="Path 485" class="cls-1" d="M71.94,81a45,45,0,1,1,9.1-63h0a45,45,0,0,1-9.1,63Z"/><path id="Path_486" data-name="Path 486" class="cls-2" d="M54.12,42.06a74.1,74.1,0,0,0-7.61-3.56,17.56,17.56,0,0,1-4.18-2.41c-2.47-2-2-5.25,1-6.5a7.39,7.39,0,0,1,2.58-.5,19.57,19.57,0,0,1,9.66,2c1.52.76,2,.53,2.56-1.05s1-3.38,1.56-5.07a1.77,1.77,0,0,0-1-2.32l-.16-.06a25,25,0,0,0-6.08-1.9c-2.77-.46-2.77-.47-2.75-3.25,0-3.92,0-3.92-3.9-4-.57,0-1.13,0-1.7,0-1.84,0-2.16.35-2.23,2.2,0,.83,0,1.65,0,2.49,0,2.46-.05,2.42-2.42,3.25-5.71,2-9.28,5.84-9.73,12-.4,5.49,2.43,9.24,6.91,12,2.76,1.7,5.83,2.72,8.76,4.07a13,13,0,0,1,3.19,1.92,4.4,4.4,0,0,1-1.14,7.7,10.54,10.54,0,0,1-5.66.67,25.23,25.23,0,0,1-8.59-2.68c-1.58-.85-2-.63-2.61,1.08-.49,1.48-.92,3-1.35,4.48-.58,2-.38,2.49,1.54,3.46a27.25,27.25,0,0,0,7.73,2.31c2.1.37,2.16.45,2.16,2.63,0,1,0,2,0,3a1.76,1.76,0,0,0,1.48,2,1.7,1.7,0,0,0,.39,0c1.44,0,2.91.06,4.36,0a1.67,1.67,0,0,0,1.82-1.48,2.41,2.41,0,0,0,0-.38c0-1.34.09-2.7.06-4a2.13,2.13,0,0,1,1.83-2.4h0A14.56,14.56,0,0,0,58.29,63C63.9,56.35,61.91,46.49,54.12,42.06Z"/></g></svg>