<svg id="圖層_1" data-name="圖層 1" xmlns="http://www.w3.org/2000/svg" xmlns:xlink="http://www.w3.org/1999/xlink" viewBox="0 0 289.84 221.25"><defs><style>.cls-1{fill:url(#未命名漸層_2);}.cls-2{fill:url(#未命名漸層_2-2);}.cls-3{fill:#ffedc6;}.cls-4{fill:#d56541;}.cls-5{fill:#ffe6d2;}.cls-6{fill:#bb3922;}.cls-7{fill:#662f2f;}.cls-8{fill:#a35f53;}.cls-9{fill:#f6ecf1;}.cls-10{fill:#ef8789;}.cls-11{fill:#c45321;}.cls-12{fill:#f7b351;}.cls-13{fill:#716663;}.cls-14{fill:none;}</style><linearGradient id="未命名漸層_2" x1="-926.07" y1="292.26" x2="-926.07" y2="291.26" gradientTransform="matrix(150.6, 0, 0, -200.58, 139592.77, 58642.78)" gradientUnits="userSpaceOnUse"><stop offset="0" stop-color="#ffd95b"/><stop offset="1" stop-color="#ff5637"/></linearGradient><linearGradient id="未命名漸層_2-2" x1="-926.54" y1="292.22" x2="-926.54" y2="291.22" gradientTransform="matrix(187.13, 0, 0, -197.67, 173476.98, 57779.22)" xlink:href="#未命名漸層_2"/></defs><title>icon</title><g id="Group_1621" data-name="Group 1621"><g id="Group_296" data-name="Group 296"><path id="Path_573" data-name="Path 573" class="cls-1" d="M132.57,20.67a102.51,102.51,0,0,1-78,188.6l.45.24A102.52,102.52,0,1,0,132.57,20.67Z"/><path id="Path_574" data-name="Path 574" class="cls-2" d="M184.59,88.58a102.28,102.28,0,0,0-52-67.91,102.52,102.52,0,0,0-78,188.6A102.5,102.5,0,0,0,184.58,88.58Z"/></g><path id="Path_575" data-name="Path 575" class="cls-3" d="M119,104.05c-7.3-.83-14.64-.71-22-.72a44.74,44.74,0,0,1-12.51-1.48c-8-2.32-10.1-10.6-4.32-16.62a19.19,19.19,0,0,1,5.69-3.85,51.1,51.1,0,0,1,25.28-5.06c4.42.26,5.41-.81,5.06-5.17-.36-4.6-1-9.18-1.45-13.78-.33-3.08-2.08-4.48-5.15-4.56A64.2,64.2,0,0,0,93,54.51c-7.11,1.74-7.13,1.7-9.94-5-4-9.45-4-9.45-13.44-5.52-1.38.57-2.77,1.1-4.13,1.7-4.38,2-4.81,3.06-3.09,7.58.77,2,1.66,4,2.47,6,2.43,6,2.36,5.87-2.48,10.28-11.67,10.69-16.29,23.58-11,39,4.69,13.61,15.33,19.71,28.94,21.72,8.38,1.25,16.8.55,25.23.76a34.17,34.17,0,0,1,9.64,1.35c9.18,2.82,11.82,12.74,5.17,19.67a27.66,27.66,0,0,1-12.91,7.43,66,66,0,0,1-23.38,2.4c-4.67-.41-5.58.59-5.17,5.29.37,4.05.87,8.1,1.37,12.13.67,5.43,1.65,6.38,7.25,6.73,7.12.42,14.07-.74,21-2.38,5.4-1.29,5.64-1.13,7.88,4.09,1,2.36,2,4.77,3,7.13,1.27,3,3.43,4.14,6.55,2.92,3.53-1.39,7.06-2.85,10.52-4.39,2.85-1.25,3.67-3.42,2.47-6.33-1.35-3.25-2.55-6.59-4-9.79s-.79-5.53,2-7.72a38.24,38.24,0,0,0,13.52-19.43C157.14,128.34,142.21,106.67,119,104.05Z"/></g><g id="Group_1622" data-name="Group 1622"><path id="Path_633" data-name="Path 633" class="cls-4" d="M288.07,88.92c-4.88-30.13-23.7-53.65-52.52-60.68,2.72-4.51,5.06-13.56,6.1-16.28.72-1.88,1.16-10.06-6.39-10.38-4.65-.19-7.2,3.63-9,6.39-1.91,3-5.82,2.73-6.76-1.75-.6-2.87-2.07-5-5.7-5-2.76,0-5.43,2.84-6,5.92-.71,3.86-3.36,4.65-4.5,3.23-3.23-4-6.61-4.95-9.27-3.35-2.4,1.46-2.56,5-1.2,7.65s4.1,9.91,5.36,13.33c-28.67,6.17-47.32,27.22-52.3,61-5.08,34.34,29.27,59.15,71.09,60C259.44,149.69,293.62,123.19,288.07,88.92Z"/><path id="Path_634" data-name="Path 634" class="cls-4" d="M218.86,150.07H217c-25.66-.49-48.74-10-61.74-25.32-8.82-10.41-12.45-22.85-10.5-36,2.5-16.91,8.4-30.84,17.54-41.41C171,37.18,182.59,30.38,196.6,27.11c-1.31-3.51-3.62-9.58-4.83-11.94-1.58-3.07-1.39-7.35,1.65-9.2,3.32-2,7.36-.66,10.8,3.62a.57.57,0,0,0,.62.2c.61-.16,1.44-1,1.79-2.9.7-3.8,3.9-6.89,7.15-6.89h0c3.71,0,6,2,6.85,6,.33,1.56,1.09,2.56,2.08,2.75a2.61,2.61,0,0,0,2.53-1.39C227,4.65,229.91.17,235.3.4a7.63,7.63,0,0,1,6.39,3.33,11,11,0,0,1,1.06,8.64c-.28.71-.66,2-1.11,3.38a83.83,83.83,0,0,1-4.32,11.71c27.51,7.35,46.87,30.13,51.91,61.27,2.21,13.68-1.59,26.64-11,37.5C265.21,141.24,243.12,150.07,218.86,150.07ZM196.64,7.44a3.8,3.8,0,0,0-2,.56c-1.83,1.11-1.83,4-.77,6.1,1.38,2.69,4,9.59,5.42,13.46l.47,1.28-1.33.29c-14.1,3-25.67,9.68-34.39,19.76s-14.56,23.74-17,40.2c-1.84,12.45,1.61,24.25,10,34.13,12.56,14.84,35,24,60,24.47l1.87,0c23.58,0,45-8.54,57.57-23,8.94-10.31,12.56-22.61,10.46-35.57-5-30.72-24.28-53-51.63-59.73L233.69,29l.84-1.38c1.9-3.15,3.67-8.82,4.85-12.57.48-1.53.85-2.74,1.15-3.52a8.72,8.72,0,0,0-.82-6.5,5.32,5.32,0,0,0-4.51-2.27h-.3c-3.56,0-5.66,2.77-7.65,5.85a4.93,4.93,0,0,1-5,2.44c-1.95-.37-3.43-2.08-4-4.59-.6-2.86-2-4.08-4.54-4.09h0c-2.09,0-4.34,2.31-4.82,5s-1.79,4.32-3.54,4.76a2.93,2.93,0,0,1-3-1c-1.91-2.39-3.91-3.64-5.73-3.64Z"/><path id="Path_635" data-name="Path 635" class="cls-5" d="M277.46,99.18c3.17,23.72-27.63,41.38-60.44,40.1-31.59-1.23-63.47-16.3-59.45-40.1C161.4,76.52,169.74,51.59,195.69,57c10.62,2.2,11.56,5.64,21.34,5.36,8.34-.24,9.81-3.06,16.84-5.44C260.73,47.77,274.51,77.11,277.46,99.18Z"/><path id="Path_636" data-name="Path 636" class="cls-6" d="M220.34,140.53c-1.12,0-2.25,0-3.37-.07-23.63-.92-45.19-9.26-54.93-21.24-5-6.13-6.87-12.94-5.64-20.24,2.23-13.17,6.56-31.62,18.47-39.76,5.79-4,12.88-5.12,21.06-3.42a49.89,49.89,0,0,1,9.76,3.09A23.34,23.34,0,0,0,217,61.14a21.24,21.24,0,0,0,10.5-2.8,44.08,44.08,0,0,1,6-2.58c8.64-2.94,16.57-2.23,23.55,2.11,5.8,3.6,10.93,9.82,14.83,18A79.81,79.81,0,0,1,278.62,99c1.08,8.11-1.61,16-7.78,22.75C260.33,133.34,240.77,140.53,220.34,140.53ZM188.93,57.41a22.09,22.09,0,0,0-12.73,3.76C165,68.8,160.89,86.63,158.74,99.37c-1.12,6.6.61,12.78,5.14,18.35,9.33,11.48,30.2,19.48,53.18,20.37,21,.83,41.39-6.21,52-17.91,5.69-6.25,8.17-13.46,7.19-20.85-1.8-13.45-8.24-31.85-20.49-39.45-6.35-4-13.6-4.58-21.55-1.89a44.13,44.13,0,0,0-5.7,2.46,23.47,23.47,0,0,1-11.49,3,25.5,25.5,0,0,1-12.27-2.43,47.64,47.64,0,0,0-9.34-3,32.53,32.53,0,0,0-6.52-.7Z"/><path id="Path_637" data-name="Path 637" class="cls-7" d="M217.46,111.47c-3.37,0-6.17-1.49-6.65-3.55a.95.95,0,1,1,1.83-.48v0c.21.88,2,2.1,4.8,2.1s4.63-1,4.79-2a1,1,0,0,1,1.09-.78.94.94,0,0,1,.78,1.09C223.76,110,221.08,111.47,217.46,111.47Z"/><path id="Path_638" data-name="Path 638" class="cls-7" d="M225,98.65c0,2.63-3.5,4.77-7.82,4.77s-7.82-2.14-7.82-4.77,3.5-2.86,7.82-2.86S225,96,225,98.65Z"/><path id="Path_639" data-name="Path 639" class="cls-7" d="M217.14,103.77c-4.5,0-8.16-2.3-8.16-5.12s3.7-3.2,8.16-3.2,8.16.24,8.16,3.2S221.64,103.77,217.14,103.77Zm0-7.64c-4.85,0-7.48.4-7.48,2.52,0,2.44,3.36,4.43,7.48,4.43s7.48-2,7.48-4.43C224.62,96.53,222,96.13,217.14,96.13Z"/><path id="Path_640" data-name="Path 640" class="cls-8" d="M274.1,84.17c-6.62-1.82-34.32-9.34-41.84,3-4.59,7.56,1.21,13.94,6.87,16.76,9.22,4.6,31.3,13.44,33.18,14.69C283.05,105.06,275.44,87.88,274.1,84.17Z"/><ellipse id="Ellipse_88" data-name="Ellipse 88" class="cls-7" cx="248.14" cy="93.45" rx="10.27" ry="12.19" transform="translate(78.68 297.38) rotate(-70.91)"/><ellipse id="Ellipse_89" data-name="Ellipse 89" class="cls-9" cx="243.7" cy="92.11" rx="3.19" ry="3.78" transform="translate(76.97 292.29) rotate(-70.91)"/><path id="Path_641" data-name="Path 641" class="cls-8" d="M160.79,84.17c6.62-1.82,34.32-9.34,41.84,3,4.59,7.56-1.21,13.94-6.87,16.76-9.22,4.6-31.3,13.44-33.17,14.69C151.85,105.06,159.45,87.88,160.79,84.17Z"/><ellipse id="Ellipse_90" data-name="Ellipse 90" class="cls-7" cx="186.77" cy="93.45" rx="12.19" ry="10.27" transform="translate(-20.29 66.21) rotate(-19.09)"/><ellipse id="Ellipse_91" data-name="Ellipse 91" class="cls-9" cx="191.21" cy="92.11" rx="3.78" ry="3.19" transform="translate(-19.61 67.59) rotate(-19.09)"/><path id="Path_642" data-name="Path 642" class="cls-10" d="M273.7,116.05c-1.83,4.83-7.45,8.51-11.4,11.4a11.4,11.4,0,1,1,11.4-11.4Z"/><path id="Path_643" data-name="Path 643" class="cls-10" d="M160.58,116.05c1.83,4.83,7.45,8.51,11.4,11.4a11.4,11.4,0,1,0-11.4-11.4Z"/><path id="Path_644" data-name="Path 644" class="cls-4" d="M220.34,140.53c-1.12,0-2.25,0-3.37-.07-23.63-.92-45.19-9.26-54.93-21.24-5-6.13-6.87-12.94-5.64-20.24,2.23-13.17,6.56-31.62,18.47-39.76,5.79-4,12.88-5.12,21.06-3.42a49.89,49.89,0,0,1,9.76,3.09A23.34,23.34,0,0,0,217,61.14a21.24,21.24,0,0,0,10.5-2.8,44.08,44.08,0,0,1,6-2.58c8.64-2.94,16.57-2.23,23.55,2.11,5.8,3.6,10.93,9.82,14.83,18A79.81,79.81,0,0,1,278.62,99c1.08,8.11-1.61,16-7.78,22.75C260.33,133.34,240.77,140.53,220.34,140.53ZM188.93,57.41a22.09,22.09,0,0,0-12.73,3.76C165,68.8,160.89,86.63,158.74,99.37c-1.12,6.6.61,12.78,5.14,18.35,9.33,11.48,30.2,19.48,53.18,20.37,21,.83,41.39-6.21,52-17.91,5.69-6.25,8.17-13.46,7.19-20.85-1.8-13.45-8.24-31.85-20.49-39.45-6.35-4-13.6-4.58-21.55-1.89a44.13,44.13,0,0,0-5.7,2.46,23.47,23.47,0,0,1-11.49,3,25.5,25.5,0,0,1-12.27-2.43,47.64,47.64,0,0,0-9.34-3,32.53,32.53,0,0,0-6.52-.7Z"/><path id="Path_645" data-name="Path 645" class="cls-11" d="M283.42,103.79a1.42,1.42,0,0,1-1.42-1.42,1.53,1.53,0,0,1,0-.3,18.89,18.89,0,0,0-.57-9,1.42,1.42,0,0,1,2.68-.93h0a21.58,21.58,0,0,1,.66,10.55A1.41,1.41,0,0,1,283.42,103.79Z"/><path id="Path_646" data-name="Path 646" class="cls-11" d="M280.92,85.75a1.42,1.42,0,0,1-1.4-1.18c-1.06-6.1-2.82-8.68-2.84-8.71a1.41,1.41,0,0,1,.33-2,1.43,1.43,0,0,1,2,.33c.09.13,2.14,3.05,3.33,9.88a1.42,1.42,0,0,1-1.16,1.64Z"/><path id="Path_647" data-name="Path 647" class="cls-11" d="M151.64,106.42a1.41,1.41,0,0,1-1.36-1c-2.38-7.63,0-17.1.14-17.5a1.42,1.42,0,0,1,2.75.72c0,.09-2.32,9.09-.18,15.94a1.42,1.42,0,0,1-.93,1.78,1.52,1.52,0,0,1-.42.06Z"/><path id="Path_648" data-name="Path 648" class="cls-11" d="M213.83,31.16a5.32,5.32,0,0,1-1.26-.18c-1.34-.35-8.08-2.65-9.68-13.73a1.41,1.41,0,0,1,1.2-1.61,1.43,1.43,0,0,1,1.61,1.2c1.44,10,7.26,11.34,8.06,11.47a1.41,1.41,0,0,1,1.78.92,1.44,1.44,0,0,1-.22,1.3A1.75,1.75,0,0,1,213.83,31.16Zm-.76-2.36Zm0,0Z"/><path id="Path_649" data-name="Path 649" class="cls-11" d="M220.27,31a1.43,1.43,0,0,1-1.28-.8c-.42-.87-4-8.62.42-11.51a3.66,3.66,0,0,1,3.22-.5c2.32.73,3.55,3.67,3.69,4a1.42,1.42,0,0,1-2.64,1.05h0c-.27-.65-1.09-2.1-1.91-2.36a.88.88,0,0,0-.81.18c-1.86,1.2-.41,5.84.59,7.89a1.43,1.43,0,0,1-1.28,2Z"/><path id="Path_650" data-name="Path 650" class="cls-11" d="M195.62,40.39a1.43,1.43,0,0,1-1.2-2.17,22,22,0,0,1,17.14-10.17h0a1.42,1.42,0,1,1,0,2.84h0a19.06,19.06,0,0,0-14.79,8.84A1.39,1.39,0,0,1,195.62,40.39Z"/><path id="Path_651" data-name="Path 651" class="cls-11" d="M213.79,44.62a1.43,1.43,0,0,1-1.4-1.16,21.21,21.21,0,0,1,2.21-13.61,1.42,1.42,0,0,1,2.45,1.45,18.55,18.55,0,0,0-1.86,11.64,1.42,1.42,0,0,1-1.14,1.66h0Z"/><path id="Path_652" data-name="Path 652" class="cls-11" d="M230.6,40.39A1.41,1.41,0,0,1,229.18,39h0c0-2.89-2.9-6.21-4-7.25a1.42,1.42,0,0,1,1.93-2.08c.2.19,4.93,4.62,4.93,9.33a1.42,1.42,0,0,1-1.42,1.42Z"/><path id="Path_653" data-name="Path 653" class="cls-11" d="M183.71,51.7a1.43,1.43,0,0,1-1.23-2.14c3.45-5.86,6.36-7.46,6.69-7.63a1.42,1.42,0,0,1,1.3,2.53c-.08,0-2.55,1.45-5.54,6.54A1.4,1.4,0,0,1,183.71,51.7Z"/><path id="Path_654" data-name="Path 654" class="cls-11" d="M154,76.46l-.32,0a1.43,1.43,0,0,1-1.06-1.7A56.3,56.3,0,0,1,158.14,61a1.43,1.43,0,0,1,1.94-.51,1.41,1.41,0,0,1,.51,1.94,54.59,54.59,0,0,0-5.2,13A1.42,1.42,0,0,1,154,76.46Z"/><path id="Path_655" data-name="Path 655" class="cls-11" d="M274.4,68.59a1.4,1.4,0,0,1-1.28-.81C267.69,56.35,259.57,52.07,259.49,52a1.42,1.42,0,0,1-.62-1.91,1.44,1.44,0,0,1,1.92-.62c.36.19,9.06,4.77,14.9,17.06a1.43,1.43,0,0,1-1.29,2Z"/><path id="Path_656" data-name="Path 656" class="cls-11" d="M167.61,52.78a1.42,1.42,0,0,1-1.19-2.19,30.87,30.87,0,0,1,11.74-10.06,1.42,1.42,0,0,1,1.22,2.57h0a28.49,28.49,0,0,0-10.58,9A1.43,1.43,0,0,1,167.61,52.78Z"/><path id="Path_657" data-name="Path 657" class="cls-12" d="M216.8,31.58c-12.83,0-21.24-3.33-21.75-3.54a1.9,1.9,0,0,1,1.43-3.51c.19.08,18,7.08,41.07.2a1.89,1.89,0,1,1,1.08,3.63A76.16,76.16,0,0,1,216.8,31.58Z"/><path id="Path_658" data-name="Path 658" class="cls-12" d="M248.3,45.35A1.9,1.9,0,0,1,246.49,44a21.77,21.77,0,0,0-9.58-12.28c.81,2.65,1.35,6,.33,8.79a1.89,1.89,0,0,1-3.56-1.29h0c1.18-3.25-1.06-8.58-2-10.36a1.9,1.9,0,0,1,2.19-2.72A25.55,25.55,0,0,1,250.11,42.9a1.9,1.9,0,0,1-1.26,2.37,2,2,0,0,1-.55.08Z"/><path id="Path_659" data-name="Path 659" class="cls-13" d="M164.71,189.15c1.18.18,3.2,1.21,6.48,3.45,3.9,2.68,7.5,4.85,6.67,10.72s-2.57,12.31-12.29,8.92h0a7.45,7.45,0,0,1-2.55-1.15c-2.58-1.8-3.58-4.79-2.26-6.69a3.35,3.35,0,0,1,.78-.77c-2.51-1.8-3.49-4.76-2.18-6.64a3.33,3.33,0,0,1,1.66-1.22c-1.4-1.72-1.76-3.82-.74-5.29A4.18,4.18,0,0,1,164.71,189.15Z"/><path id="Path_660" data-name="Path 660" class="cls-4" d="M251.69,141.75s4.69,12.32,7.75,38.8c3.77,32.63-27.13,38.8-42.28,38.8-27.36,0-38.33-5.81-43.41-4.08s-6-20.74-5-24.21c1.33-4.73,7.87-2.92,10.32-3.63-9.88-18.57,6.3-44.53,6.3-44.53"/><path id="Path_661" data-name="Path 661" class="cls-4" d="M217.16,220.53a164.66,164.66,0,0,1-33.36-3.28c-4.72-.9-7.83-1.49-9.67-.86a2.85,2.85,0,0,1-3-.71c-4.07-3.86-4.39-22.06-3.58-24.94,1.2-4.28,5.69-4.29,8.66-4.3h1c-8.49-18.78,6.44-43.12,7.1-44.17a1.18,1.18,0,0,1,2,1.25c-.16.25-15.7,25.61-6.26,43.35l.68,1.28-1.4.41a12.08,12.08,0,0,1-3.12.25c-3.32,0-5.72.2-6.38,2.57-.87,3.11,0,19.8,2.93,22.58.3.29.45.23.58.19,2.42-.83,5.6-.23,10.87.77a162.41,162.41,0,0,0,32.92,3.25c21.52,0,31.83-9.69,34.48-12.66,5.57-6.26,7.8-14.61,6.62-24.82-3-26-7.63-38.39-7.68-38.52a1.18,1.18,0,0,1,2.21-.84c.19.51,4.78,12.76,7.82,39.09,1.26,10.91-1.17,19.88-7.21,26.66-4.33,4.86-10.41,8.49-18.08,10.81A64.55,64.55,0,0,1,217.16,220.53Z"/><path id="Path_662" data-name="Path 662" class="cls-13" d="M154.71,152.23a2.91,2.91,0,0,1,1.23-2.23c-1.4-.94-2.19-2.22-1.95-3.45s1.45-2.13,3.1-2.47a2.93,2.93,0,0,1-.31-2.53c.75-1.86,3.76-2.4,6.72-1.21a8.75,8.75,0,0,1,2,1.14,7.54,7.54,0,0,1,3.21,8c-.94,3.91-5,6.7-8.07,6.39h-.16C157.3,155.85,154.71,154.23,154.71,152.23Z"/><path id="Path_663" data-name="Path 663" class="cls-4" d="M195.8,165.05s-26.36-.19-33.05-8.79c-4.35-9.93,3.61-15.07,3.61-15.07s4.36-2,21.27,1.46l19.07,4.13"/><path id="Path_664" data-name="Path 664" class="cls-11" d="M195.8,166.23h0c-1.1,0-27-.29-34-9.24a1.28,1.28,0,0,1-.15-.25c-4.7-10.74,4-16.49,4.05-16.55l.16-.08c.48-.22,5.2-2,22,1.38L207,145.62a1.18,1.18,0,0,1-.5,2.31h0l-19.07-4.13c-14.87-3-19.82-1.76-20.48-1.55-.87.61-6.67,5.1-3.13,13.4,2.6,3.21,8.88,5.65,18.16,7a109.32,109.32,0,0,0,13.88,1.16,1.18,1.18,0,0,1,1.18,1.19,1.2,1.2,0,0,1-1.19,1.18Z"/><path id="Path_665" data-name="Path 665" class="cls-11" d="M181.8,157h-.05a88.53,88.53,0,0,1-13.4-1.63,1.42,1.42,0,0,1,.59-2.78,86,86,0,0,0,12.91,1.57,1.42,1.42,0,0,1,0,2.84Z"/><path id="Path_666" data-name="Path 666" class="cls-11" d="M193.9,155a34.89,34.89,0,0,1-7.06-.66,1.42,1.42,0,0,1,.63-2.77,35.32,35.32,0,0,0,7.68.57,1.42,1.42,0,0,1,.13,2.83C195.21,155,194.69,155,193.9,155Z"/><path id="Path_667" data-name="Path 667" class="cls-11" d="M178,149.78a1.86,1.86,0,0,1-.33,0,72.82,72.82,0,0,0-8-1.54,1.42,1.42,0,0,1,.1-2.84,75.46,75.46,0,0,1,8.56,1.61,1.43,1.43,0,0,1-.33,2.81Z"/><path id="Path_668" data-name="Path 668" class="cls-11" d="M245.3,160.36a1.42,1.42,0,0,1-1.41-1.3,87,87,0,0,0-1.62-10.39A1.42,1.42,0,0,1,245,148a87.39,87.39,0,0,1,1.69,10.79,1.42,1.42,0,0,1-1.29,1.54Z"/><path id="Path_669" data-name="Path 669" class="cls-11" d="M248.14,190.43a1.41,1.41,0,0,1-1.42-1.42,1.83,1.83,0,0,1,.05-.4c1.78-6,0-17.5,0-17.61a1.42,1.42,0,0,1,2.78-.61,1,1,0,0,1,0,.16c.08.5,1.92,12.26,0,18.87A1.41,1.41,0,0,1,248.14,190.43Z"/><path id="Path_670" data-name="Path 670" class="cls-11" d="M231.82,210.3a1.42,1.42,0,0,1-.42-2.78,19.05,19.05,0,0,0,8.64-5.28,12.77,12.77,0,0,0,2.29-3.35,1.42,1.42,0,1,1,2.64,1c-.12.3-3,7.3-12.74,10.3A1.14,1.14,0,0,1,231.82,210.3Z"/><path id="Path_671" data-name="Path 671" class="cls-11" d="M234.42,194.92a1.43,1.43,0,0,1-1.42-1.43,1.41,1.41,0,0,1,.52-1.09c4.71-3.88,2.85-12.1,2.83-12.18a1.42,1.42,0,0,1,2.76-.7.09.09,0,0,0,0,0c.1.41,2.26,10-3.79,15A1.45,1.45,0,0,1,234.42,194.92Z"/><path id="Path_672" data-name="Path 672" class="cls-11" d="M237.27,170.07a1.41,1.41,0,0,1-1.41-1.43A1.33,1.33,0,0,1,236,168c1.43-2.74.47-10.7-.11-12.84a1.42,1.42,0,0,1,2.74-.75c.55,2,1.94,11-.12,14.9A1.42,1.42,0,0,1,237.27,170.07Z"/><path id="Path_673" data-name="Path 673" class="cls-11" d="M208.37,212.3a59.08,59.08,0,0,1-6.78-.33,1.42,1.42,0,0,1,.34-2.82c5.71.68,14.89,0,15,0a1.42,1.42,0,1,1,.28,2.83h-.06C216.87,212,212.82,212.3,208.37,212.3Z"/><path id="Path_674" data-name="Path 674" class="cls-11" d="M211.7,206a1.42,1.42,0,0,1,0-2.84h0c3.51,0,12.86-.93,13-.94a1.42,1.42,0,1,1,.28,2.82h0C224.55,205.12,215.36,206,211.7,206Z"/><path id="Path_675" data-name="Path 675" class="cls-4" d="M184.07,164.2s-.57,6,0,8.55"/><path id="Path_676" data-name="Path 676" class="cls-11" d="M184.07,173.93a1.18,1.18,0,0,1-1.15-.92c-.6-2.68,0-8.67,0-8.93a1.19,1.19,0,0,1,2.36.23h0c-.15,1.62-.46,6.26,0,8.18a1.18,1.18,0,0,1-.9,1.41,1.15,1.15,0,0,1-.26,0Z"/><path id="Path_677" data-name="Path 677" class="cls-4" d="M189.38,170.78s-.32,6,.94,9.11"/><path id="Path_678" data-name="Path 678" class="cls-11" d="M190.32,181.08a1.19,1.19,0,0,1-1.1-.74c-1.34-3.32-1-9.37-1-9.63a1.18,1.18,0,0,1,2.36.13h0c0,.06-.28,5.78.87,8.61a1.18,1.18,0,0,1-.66,1.54,1.12,1.12,0,0,1-.44.09Z"/><line id="Line_2" data-name="Line 2" class="cls-14" x1="178" y1="206.98" x2="189.34" y2="208.88"/><path id="Path_679" data-name="Path 679" class="cls-11" d="M189.34,210.06h-.2l-11.34-1.9a1.18,1.18,0,0,1,.39-2.33h0l11.34,1.89a1.18,1.18,0,0,1-.19,2.35Z"/><path id="Path_680" data-name="Path 680" class="cls-4" d="M197.42,158.94s4.34.61,4.34,6.1"/><path id="Path_681" data-name="Path 681" class="cls-11" d="M201.76,166.23a1.18,1.18,0,0,1-1.18-1.18c0-4.42-3.19-4.92-3.32-4.93a1.19,1.19,0,0,1,.33-2.35h0c1.85.26,5.35,2.12,5.35,7.28a1.18,1.18,0,0,1-1.18,1.18Z"/><path id="Path_682" data-name="Path 682" class="cls-4" d="M197.42,169.28s-.63,4.07,0,6.06"/><path id="Path_683" data-name="Path 683" class="cls-11" d="M197.42,176.52a1.19,1.19,0,0,1-1.13-.82c-.7-2.2-.11-6.16,0-6.6a1.18,1.18,0,1,1,2.34.36h0c-.16,1.06-.49,4.11,0,5.52a1.18,1.18,0,0,1-.77,1.48,1.13,1.13,0,0,1-.36.06Z"/></g></svg>