<svg id="圖層_1" data-name="圖層 1" xmlns="http://www.w3.org/2000/svg" xmlns:xlink="http://www.w3.org/1999/xlink" viewBox="0 0 270.5 129.33"><defs><style>.cls-1{fill:url(#未命名漸層_3);}.cls-2{fill:#ffeec7;}.cls-3{fill:#716663;}.cls-4{fill:#d56541;}.cls-5{fill:#c15425;}.cls-6{fill:#ffe6d2;}.cls-7{fill:#662f2f;}.cls-8{fill:#a35f53;}.cls-9{fill:#ef8789;}.cls-10{fill:#f7b351;}.cls-11{fill:#95d7ef;}</style><linearGradient id="未命名漸層_3" x1="-1357.52" y1="482.99" x2="-1357.52" y2="481.99" gradientTransform="matrix(89.43, 0, 0, -89.43, 121449.94, 43204.79)" gradientUnits="userSpaceOnUse"><stop offset="0" stop-color="#ffd95b"/><stop offset="1" stop-color="#ff5637"/></linearGradient></defs><title>icon</title><g id="Group_1869" data-name="Group 1869"><g id="Group_1641" data-name="Group 1641"><path id="Path_485" data-name="Path 485" class="cls-1" d="M83.08,78.06a44.71,44.71,0,1,1-15.4-61.32h0a44.7,44.7,0,0,1,15.4,61.32Z"/><path id="Path_486" data-name="Path 486" class="cls-2" d="M52,49a75,75,0,0,0-8.34-.4,17,17,0,0,1-4.75-.64c-3-.92-3.78-4.09-1.55-6.34a7.21,7.21,0,0,1,2.19-1.43,19.42,19.42,0,0,1,9.64-1.78c1.68.12,2.06-.28,2-1.94s-.32-3.5-.48-5.24a1.76,1.76,0,0,0-1.75-1.78h-.18a24.76,24.76,0,0,0-6.31.55c-2.71.62-2.72.61-3.75-1.95-1.44-3.62-1.44-3.62-5.08-2.18-.52.21-1.05.4-1.57.62-1.68.72-1.85,1.14-1.22,2.86.28.78.6,1.53.9,2.32.89,2.27.86,2.24-1,3.9-4.5,4-6.33,8.87-4.4,14.74C28,55.47,32,57.85,37.17,58.7c3.18.52,6.39.3,9.59.43a12.65,12.65,0,0,1,3.66.57,4.36,4.36,0,0,1,1.85,7.5,10.4,10.4,0,0,1-5,2.75,25,25,0,0,1-8.9.78c-1.78-.18-2.13.19-2,2,.12,1.54.28,3.08.45,4.62.23,2.07.59,2.44,2.72,2.6a27.11,27.11,0,0,0,8-.79c2.06-.45,2.16-.4,3,1.6.37.9.73,1.83,1.1,2.73a1.76,1.76,0,0,0,2.12,1.28,1.74,1.74,0,0,0,.36-.13c1.35-.51,2.7-1,4-1.61a1.63,1.63,0,0,0,1.12-2,1.51,1.51,0,0,0-.14-.35c-.5-1.24-.93-2.52-1.47-3.75a2.12,2.12,0,0,1,.78-2.9l0,0a14.52,14.52,0,0,0,5.25-7.31C66.37,58.4,60.82,50.08,52,49Z"/></g><g id="Group_1683" data-name="Group 1683"><path id="Path_1068" data-name="Path 1068" class="cls-3" d="M266.06,122.15c-1-.1-2.68-.85-5.45-2.55-3.31-2-6.34-3.64-5.92-8.48s1.58-10.18,9.67-7.82h0a5.94,5.94,0,0,1,2.15.83c2.18,1.36,3.13,3.77,2.12,5.38a2.68,2.68,0,0,1-.6.66c2.14,1.37,3.07,3.74,2.07,5.34a2.79,2.79,0,0,1-1.3,1.07c1.21,1.34,1.6,3,.83,4.29A3.42,3.42,0,0,1,266.06,122.15Z"/><g id="Group_1643" data-name="Group 1643"><path id="Path_1069" data-name="Path 1069" class="cls-4" d="M173.69,70.47s18.29-15.15,39.42-11c25.83,5.11,27.38,34.22,31.15,36.38s14.88,3.83,16.35,8.14.84,15.56-2.1,16.4-30.27,2.57-52.75,3.06c-22.75.5-42.84,2-42.84,2"/><path id="Path_1070" data-name="Path 1070" class="cls-4" d="M162.92,126.48a1,1,0,0,1-.07-2c.2,0,20.38-1.5,42.89-2,23.4-.51,49.83-2.26,52.5-3,.08,0,.38-.16.75-.87,1.62-3.09,1.78-11,.67-14.24-.82-2.4-6-4.06-10.15-5.4a34.74,34.74,0,0,1-5.75-2.19c-1.31-.76-2.11-3.05-3.43-6.86-3.33-9.63-8.9-25.75-27.41-29.41-20.43-4-38.42,10.6-38.59,10.76A1,1,0,0,1,173,69.69h0c.77-.63,18.9-15.4,40.26-11.17C232.94,62.4,239,79.86,242.23,89.23c.92,2.66,1.86,5.4,2.52,5.78a33.42,33.42,0,0,0,5.37,2c4.83,1.55,10.29,3.31,11.44,6.67,1.26,3.7,1.1,12.19-.79,15.81a3.43,3.43,0,0,1-2,1.87c-3.07.88-30.36,2.6-53,3.1-22.46.5-42.59,2-42.79,2Z"/></g><g id="Group_1644" data-name="Group 1644"><path id="Path_1071" data-name="Path 1071" class="cls-5" d="M212.57,98.62l-.23,0c-4.57-.88-6.71-.28-6.73-.27a1.22,1.22,0,0,1-1.51-.8,1.2,1.2,0,0,1,.8-1.5h0c.26-.09,2.73-.78,7.89.2a1.2,1.2,0,0,1-.22,2.39Z"/></g><g id="Group_1645" data-name="Group 1645"><path id="Path_1072" data-name="Path 1072" class="cls-5" d="M232.2,88.25a1.2,1.2,0,0,1-1.13-.79c-1-2.87-6.28-6.74-7.85-6.92a1.2,1.2,0,1,1,.27-2.39c2.47.28,8.48,4.75,9.84,8.49a1.2,1.2,0,0,1-.72,1.54,1.14,1.14,0,0,1-.41.07Z"/></g><g id="Group_1646" data-name="Group 1646"><path id="Path_1073" data-name="Path 1073" class="cls-5" d="M247.71,109.91a1.2,1.2,0,0,1-.45-2.32c.26-.1,2.67-1,7.89-.35a1.2,1.2,0,0,1-.29,2.39c-4.61-.55-6.71.2-6.73.2A1.25,1.25,0,0,1,247.71,109.91Z"/></g><g id="Group_1647" data-name="Group 1647"><path id="Path_1074" data-name="Path 1074" class="cls-5" d="M214.17,77.8a1.15,1.15,0,0,1-.6-.16c-4.56-2.65-10.09-.32-10.15-.3a1.2,1.2,0,0,1-.95-2.21c.27-.12,6.72-2.83,12.31.43a1.2,1.2,0,0,1,.46,1.63,1.21,1.21,0,0,1-1.06.61Z"/></g><g id="Group_1648" data-name="Group 1648"><path id="Path_1075" data-name="Path 1075" class="cls-5" d="M192.57,89a1.2,1.2,0,0,1-.24-2.39,35.69,35.69,0,0,1,10.32-.06,1.2,1.2,0,0,1-.3,2.39h0a33.58,33.58,0,0,0-9.55,0Z"/></g><g id="Group_1649" data-name="Group 1649"><path id="Path_1076" data-name="Path 1076" class="cls-5" d="M233.21,114.62a1.2,1.2,0,0,1-.24-2.39,35.34,35.34,0,0,1,10.32-.06,1.19,1.19,0,0,1,1,1.34,1.2,1.2,0,0,1-1.34,1,33.58,33.58,0,0,0-9.55,0Z"/></g><g id="Group_1650" data-name="Group 1650"><path id="Path_1077" data-name="Path 1077" class="cls-5" d="M213.48,117.13a1.2,1.2,0,0,1-.3-2.38,35.76,35.76,0,0,1,10.36-.93,1.2,1.2,0,0,1-.19,2.4h0a33.54,33.54,0,0,0-9.58.87A1.55,1.55,0,0,1,213.48,117.13Z"/></g><g id="Group_1651" data-name="Group 1651"><path id="Path_1078" data-name="Path 1078" class="cls-5" d="M205.62,108.3c-1,0-1.61,0-1.69,0a1.2,1.2,0,1,1,.13-2.4,43.2,43.2,0,0,0,10.39-.88,1.2,1.2,0,1,1,.55,2.34A42.27,42.27,0,0,1,205.62,108.3Z"/></g><g id="Group_1652" data-name="Group 1652"><path id="Path_1079" data-name="Path 1079" class="cls-5" d="M172.24,117.88c-1,0-1.61,0-1.69,0a1.21,1.21,0,0,1-1.14-1.26,1.2,1.2,0,0,1,1.26-1.14,43.75,43.75,0,0,0,10.4-.88,1.2,1.2,0,0,1,.55,2.34h0A42.87,42.87,0,0,1,172.24,117.88Z"/></g><g id="Group_1653" data-name="Group 1653"><path id="Path_1080" data-name="Path 1080" class="cls-5" d="M192.25,117.42a1.2,1.2,0,1,1-.14-2.4h0c7.25-.89,10.85-.08,11,0a1.21,1.21,0,1,1-.55,2.35c-.06,0-3.42-.74-10.16.09Z"/></g><g id="Group_1654" data-name="Group 1654"><path id="Path_1081" data-name="Path 1081" class="cls-5" d="M219.45,89.8a1.26,1.26,0,0,1-.43-.08,29.46,29.46,0,0,0-6.32-1.67,1.21,1.21,0,0,1-1.07-1.33A1.2,1.2,0,0,1,213,85.66a31.55,31.55,0,0,1,6.94,1.82,1.2,1.2,0,0,1-.44,2.32Z"/></g><g id="Group_1655" data-name="Group 1655"><path id="Path_1082" data-name="Path 1082" class="cls-5" d="M186.45,104.89a1.2,1.2,0,0,1-.22-2.39,31.86,31.86,0,0,1,7.17-.27,1.2,1.2,0,0,1-.19,2.4h0a29.83,29.83,0,0,0-6.54.24Z"/></g><g id="Group_1656" data-name="Group 1656"><path id="Path_1083" data-name="Path 1083" class="cls-4" d="M180.52,46c-15.66-20.6-39.1-30.7-63.47-24.49.24-4.45-1.62-12.16-1.93-14.61-.21-1.69-3.13-8-8.91-5.21-3.56,1.7-3.95,5.58-4.19,8.36-.25,3-3.27,4.36-5.76,1.38C94.67,9.54,92.72,8.51,90,10c-2.08,1.09-2.94,4.29-2.13,6.81,1,3.18-.66,4.83-2.09,4.22-4-1.73-6.92-1.08-8.26,1.18-1.22,2.05.07,4.77,2.14,6.2s7,5.79,9.32,7.85c-19,16-24.56,39.21-14.86,66.44,9.88,27.71,45.47,32.6,77.08,16.54C183.3,102.88,198.32,69.44,180.52,46Z"/><path id="Path_1084" data-name="Path 1084" class="cls-4" d="M115.34,129.32a53.88,53.88,0,0,1-20-3.58A37.62,37.62,0,0,1,73.17,103c-4.86-13.65-6-26.43-3.36-38,2.53-11.1,8.46-20.79,17.64-28.81-2.38-2.11-6.52-5.72-8.37-7-2.4-1.67-4-5-2.43-7.54,1.69-2.83,5.25-3.43,9.53-1.59a.48.48,0,0,0,.54-.11c.4-.36.68-1.33.19-2.88-1-3.13.18-6.72,2.62-8,2.78-1.47,5.3-.88,7.5,1.74.86,1,1.83,1.48,2.65,1.23A2.21,2.21,0,0,0,101,10c.23-2.69.61-7.2,4.75-9.18a6.49,6.49,0,0,1,6.1-.05,9.28,9.28,0,0,1,4.24,6.05c.08.64.28,1.72.52,3a71.31,71.31,0,0,1,1.43,10.49c23.51-5.47,47.07,3.88,63.25,25.16,7.1,9.36,9.42,20.57,6.7,32.45-3.87,16.84-17.46,32.63-36.36,42.23C139.64,126.19,127,129.32,115.34,129.32ZM81.66,21a3.56,3.56,0,0,0-3.28,1.67c-.93,1.56.24,3.74,1.85,4.86,2.11,1.47,6.8,5.59,9.42,7.92a1,1,0,0,1,.09,1.41l-.11.1c-9.34,7.89-15.35,17.47-17.86,28.49-2.55,11.17-1.44,23.57,3.3,36.85a35.65,35.65,0,0,0,21.05,21.57c15.32,6.1,35.74,4,54.63-5.58,18.38-9.34,31.58-24.63,35.31-40.9,2.59-11.28.39-21.92-6.34-30.78-16-21-39.3-30-62.42-24.13a1,1,0,0,1-1.22-.72.8.8,0,0,1,0-.31c.16-3.11-.77-8.06-1.38-11.34-.25-1.33-.45-2.38-.54-3.09a7.37,7.37,0,0,0-3.21-4.53,4.48,4.48,0,0,0-4.28.1C103.78,4,103.3,7,103,10.14a4.18,4.18,0,0,1-2.74,3.8c-1.61.5-3.4-.19-4.79-1.86-1.59-1.9-3.1-2.27-5-1.25-1.57.83-2.34,3.46-1.65,5.63s.39,3.95-.75,5a2.49,2.49,0,0,1-2.68.47A9.45,9.45,0,0,0,81.66,21Z"/></g><g id="Group_1657" data-name="Group 1657"><path id="Path_1085" data-name="Path 1085" class="cls-6" d="M176.66,57.91c11.82,16.49-4.18,42-29.25,54.08-24.12,11.67-54,13.09-60.45-6.32-6.17-18.48-9.85-40.46,11.7-46.78,8.82-2.59,10.9-.38,18.1-4.49,6.14-3.5,6.12-6.19,10.44-10.78C143.67,26.11,165.67,42.57,176.66,57.91Z"/><path id="Path_1086" data-name="Path 1086" class="cls-4" d="M113.34,121.54a39.1,39.1,0,0,1-15-2.66A20.8,20.8,0,0,1,86,106c-3.58-10.74-7.69-26.27-2-37.11,2.75-5.27,7.6-9,14.4-11a41.22,41.22,0,0,1,8.53-1.57,20,20,0,0,0,9.36-2.82A18.15,18.15,0,0,0,123,47.25a37.85,37.85,0,0,1,3.46-4.32c5.3-5.64,11.52-8.26,18.47-7.8,5.77.38,12.08,3,18.25,7.55a67.22,67.22,0,0,1,14.28,14.64h0c4,5.64,5.16,12.6,3.25,20.13-3.45,13.55-16.36,27.46-32.88,35.44C136.14,118.56,123.83,121.54,113.34,121.54Zm30.07-84.45c-5.76,0-11,2.42-15.47,7.22a35.05,35.05,0,0,0-3.29,4.11,19.82,19.82,0,0,1-7.38,6.85,21.72,21.72,0,0,1-10.15,3.08A39.73,39.73,0,0,0,99,59.85C92.69,61.68,88.26,65,85.76,69.8,80.45,80,84.44,95,87.91,105.35A18.89,18.89,0,0,0,99.07,117c11.55,4.87,30.36,2.54,47.91-5.94C163,103.35,175.47,90,178.78,77c1.76-6.94.75-13.32-2.93-18.46-6.7-9.35-18.85-20.55-31-21.36-.47,0-.94,0-1.4,0Z"/></g><g id="Group_1658" data-name="Group 1658"><path id="Path_1087" data-name="Path 1087" class="cls-7" d="M137.17,78.43c1.05,2-.72,5-3.95,6.69s-6.7,1.51-7.75-.46,1.48-3.53,4.71-5.25S136.12,76.45,137.17,78.43Z"/><path id="Path_1088" data-name="Path 1088" class="cls-7" d="M128.92,86.57h-.41a3.75,3.75,0,0,1-3.3-1.77c-.55-1-.29-2,.81-3.07a19.9,19.9,0,0,1,4-2.57c3.34-1.78,6.2-3.07,7.38-.86h0c1.13,2.11-.7,5.29-4.06,7.08A9.77,9.77,0,0,1,128.92,86.57Zm6.5-8.86c-1.15,0-2.83.74-5.1,2a19.14,19.14,0,0,0-3.9,2.49c-.9.84-1.12,1.58-.7,2.37A3.2,3.2,0,0,0,128.54,86a8.77,8.77,0,0,0,4.54-1.12c3.09-1.64,4.8-4.47,3.83-6.3a1.54,1.54,0,0,0-1.49-.85Z"/></g><path id="Path_1089" data-name="Path 1089" class="cls-8" d="M168.17,48c-5.68,1.27-29.4,6.68-30.1,18.95-.42,7.48,6.46,10,11.82,9.81,8.74-.23,28.78-2.42,30.68-2.23C183.19,60.09,170.65,50.26,168.17,48Z"/><path id="Path_1090" data-name="Path 1090" class="cls-8" d="M83.39,93.15c4.23-4,22-20.66,32.52-14.38,6.45,3.83,4.65,10.91,1.54,15.28-5.07,7.12-18.07,22.53-19,24.2C85,112.35,83.87,96.46,83.39,93.15Z"/><path id="Path_1091" data-name="Path 1091" class="cls-9" d="M180.57,72c.56,4.34-2.18,9.33-4,13.06a9.66,9.66,0,1,1,4-13.06Z"/><path id="Path_1092" data-name="Path 1092" class="cls-9" d="M95.93,117.09c3.29,2.89,9,3.4,13.07,4a9.66,9.66,0,1,0-13.07-4Z"/><g id="Group_1659" data-name="Group 1659"><path id="Path_1093" data-name="Path 1093" class="cls-4" d="M113.34,121.54a39.1,39.1,0,0,1-15-2.66A20.8,20.8,0,0,1,86,106c-3.58-10.74-7.69-26.27-2-37.11,2.75-5.27,7.6-9,14.4-11a41.22,41.22,0,0,1,8.53-1.57,20,20,0,0,0,9.36-2.82A18.15,18.15,0,0,0,123,47.25a37.85,37.85,0,0,1,3.46-4.32c5.3-5.64,11.52-8.26,18.47-7.8,5.77.38,12.08,3,18.25,7.55a67.22,67.22,0,0,1,14.28,14.64h0c4,5.64,5.16,12.6,3.25,20.13-3.45,13.55-16.36,27.46-32.88,35.44C136.14,118.56,123.83,121.54,113.34,121.54Zm30.07-84.45c-5.76,0-11,2.42-15.47,7.22a35.05,35.05,0,0,0-3.29,4.11,19.82,19.82,0,0,1-7.38,6.85,21.72,21.72,0,0,1-10.15,3.08A39.73,39.73,0,0,0,99,59.85C92.69,61.68,88.26,65,85.76,69.8,80.45,80,84.44,95,87.91,105.35A18.89,18.89,0,0,0,99.07,117c11.55,4.87,30.36,2.54,47.91-5.94C163,103.35,175.47,90,178.78,77c1.76-6.94.75-13.32-2.93-18.46-6.7-9.35-18.85-20.55-31-21.36-.47,0-.94,0-1.4,0Z"/></g><g id="Group_1660" data-name="Group 1660"><path id="Path_1094" data-name="Path 1094" class="cls-5" d="M182.4,59.13a1.2,1.2,0,0,1-1.16-.88,16.24,16.24,0,0,0-4-6.52A1.2,1.2,0,0,1,178.86,50h0a18.34,18.34,0,0,1,4.7,7.63,1.2,1.2,0,0,1-.83,1.48A1,1,0,0,1,182.4,59.13Z"/></g><g id="Group_1661" data-name="Group 1661"><path id="Path_1095" data-name="Path 1095" class="cls-5" d="M173.34,46.63a1.19,1.19,0,0,1-1-.47c-3.22-4.14-5.57-5.37-5.6-5.38a1.21,1.21,0,0,1,1.08-2.16h0c.11.06,2.81,1.43,6.42,6.06a1.21,1.21,0,0,1-.95,2Z"/></g><g id="Group_1662" data-name="Group 1662"><path id="Path_1096" data-name="Path 1096" class="cls-5" d="M84.84,113.59a1.17,1.17,0,0,1-.85-.35c-4.82-4.76-6.79-12.81-6.87-13.15a1.21,1.21,0,0,1,2.35-.56c0,.08,1.88,7.73,6.21,12a1.2,1.2,0,0,1-.84,2.06Z"/></g><g id="Group_1663" data-name="Group 1663"><path id="Path_1097" data-name="Path 1097" class="cls-5" d="M99.16,32.92c-2.44,0-6.78-1-10.93-6.6a1.21,1.21,0,1,1,1.94-1.43h0c5.06,6.9,10,5.59,10.6,5.37a1.2,1.2,0,0,1,2,1c-.11.69-.73,1.16-1.88,1.43A8.22,8.22,0,0,1,99.16,32.92Zm1.29-2Z"/></g><g id="Group_1664" data-name="Group 1664"><path id="Path_1098" data-name="Path 1098" class="cls-5" d="M106.15,29.82a1.2,1.2,0,0,1-.71-.23c-.66-.48-6.45-4.85-4.27-8.78a3.11,3.11,0,0,1,2.2-1.66c2-.37,4.13,1.34,4.36,1.53a1.21,1.21,0,1,1-1.56,1.84,3.93,3.93,0,0,0-2.37-1c-.09,0-.31.06-.53.46-.91,1.64,2,4.53,3.58,5.67a1.19,1.19,0,0,1,.28,1.67,1.22,1.22,0,0,1-1,.51Z"/></g><g id="Group_1665" data-name="Group 1665"><path id="Path_1099" data-name="Path 1099" class="cls-5" d="M91.45,46.66h-.09a1.19,1.19,0,0,1-1.11-1.28h0A18.62,18.62,0,0,1,99,30.94,1.2,1.2,0,0,1,100.2,33h0a16.18,16.18,0,0,0-7.55,12.51A1.19,1.19,0,0,1,91.45,46.66Z"/></g><g id="Group_1666" data-name="Group 1666"><path id="Path_1100" data-name="Path 1100" class="cls-5" d="M106.73,42.59a1.2,1.2,0,0,1-.94-.45A18,18,0,0,1,102,31.07a1.2,1.2,0,0,1,2.4.11,15.86,15.86,0,0,0,3.24,9.46,1.18,1.18,0,0,1-.18,1.68,1.16,1.16,0,0,1-.76.27Z"/></g><g id="Group_1667" data-name="Group 1667"><path id="Path_1101" data-name="Path 1101" class="cls-5" d="M117.62,32.74a1.2,1.2,0,0,1-1.06-.64c-1.16-2.16-4.65-3.5-5.89-3.82a1.2,1.2,0,1,1,.61-2.33c.23.06,5.53,1.5,7.4,5a1.2,1.2,0,0,1-.49,1.63,1.23,1.23,0,0,1-.57.14Z"/></g><g id="Group_1668" data-name="Group 1668"><path id="Path_1102" data-name="Path 1102" class="cls-5" d="M87,59.87H87a1.2,1.2,0,0,1-1.15-1.25h0c.24-5.76,1.78-8.12,2-8.37a1.2,1.2,0,1,1,2,1.37c0,.06-1.33,2.1-1.54,7.1A1.19,1.19,0,0,1,87,59.87Z"/></g><g id="Group_1669" data-name="Group 1669"><path id="Path_1103" data-name="Path 1103" class="cls-5" d="M74.67,90.23a1.2,1.2,0,0,1-1.16-.89,47.25,47.25,0,0,1-1.34-12.48,1.2,1.2,0,1,1,2.4.09,46.22,46.22,0,0,0,1.27,11.77A1.2,1.2,0,0,1,75,90.19h0A1.17,1.17,0,0,1,74.67,90.23Z"/></g><g id="Group_1670" data-name="Group 1670"><path id="Path_1104" data-name="Path 1104" class="cls-5" d="M161.63,36.38a1.23,1.23,0,0,1-.72-.23,33.51,33.51,0,0,0-11.48-5.59,21.69,21.69,0,0,0-5-.77h0a1.2,1.2,0,1,1,0-2.4c.34,0,8.68-.05,17.94,6.82a1.2,1.2,0,0,1-.72,2.17Z"/></g><g id="Group_1671" data-name="Group 1671"><path id="Path_1105" data-name="Path 1105" class="cls-5" d="M75.42,67.09h-.1a1.2,1.2,0,0,1-1.1-1.29h0A26.23,26.23,0,0,1,79,53.59,1.21,1.21,0,0,1,80.94,55h0a24,24,0,0,0-4.32,11A1.2,1.2,0,0,1,75.42,67.09Z"/></g><path id="Path_1106" data-name="Path 1106" class="cls-10" d="M104.35,31.49c-9.6,5.11-17.22,6-17.69,6a1.6,1.6,0,1,1-.33-3.19c.18,0,16.28-1.87,30.82-16.21a1.61,1.61,0,1,1,2.25,2.29A64.53,64.53,0,0,1,104.35,31.49Z"/><path id="Path_1107" data-name="Path 1107" class="cls-10" d="M133.4,29.25a1.59,1.59,0,0,1-1.88-.28,18.44,18.44,0,0,0-12.07-5.37c1.67,1.65,3.4,3.92,3.75,6.44a1.6,1.6,0,0,1-3.17.45h0c-.42-2.9-4.22-6-5.65-6.94a1.6,1.6,0,0,1-.46-2.21,1.61,1.61,0,0,1,1-.7,21.69,21.69,0,0,1,18.85,6.05,1.61,1.61,0,0,1,0,2.27,1.8,1.8,0,0,1-.39.29Z"/><path id="Path_1108" data-name="Path 1108" class="cls-3" d="M126.61,121.93a2.47,2.47,0,0,1,.64-2.06,2.59,2.59,0,0,1-.07-5.11,2.42,2.42,0,0,1-.69-2c.3-1.67,2.7-2.64,5.36-2.16a7.34,7.34,0,0,1,1.88.59,6.4,6.4,0,0,1,4,6.07c-.11,3.41-3,6.42-5.6,6.7l-.13,0C129.39,124.49,127,123.59,126.61,121.93Z"/><g id="Group_1672" data-name="Group 1672"><path id="Path_1109" data-name="Path 1109" class="cls-4" d="M162.92,125.48S141,129.88,134,123.9c-5.32-7.5.39-13.14.39-13.14s3.28-2.39,17.91-2.46l15.57.45"/><path id="Path_1110" data-name="Path 1110" class="cls-5" d="M147.49,128c-5.51,0-11.09-.77-14.16-3.38a1,1,0,0,1-.17-.18c-5.75-8.1.44-14.37.51-14.43a.52.52,0,0,1,.11-.1c.36-.26,4-2.59,18.5-2.66l15.61.46a1,1,0,0,1,1,1,1,1,0,0,1-1,1h0l-15.57-.45c-12.85.06-16.74,2-17.25,2.25-.62.66-4.66,5.39-.28,11.66,2.71,2.21,8.33,3.15,16.29,2.72a92.23,92.23,0,0,0,11.71-1.44,1,1,0,0,1,.4,2h0A90.25,90.25,0,0,1,147.49,128Z"/></g><g id="Group_1673" data-name="Group 1673"><path id="Path_1111" data-name="Path 1111" class="cls-5" d="M138.53,122.18h-.06a1.2,1.2,0,1,1,0-2.4h0a72.1,72.1,0,0,0,11-.93,1.21,1.21,0,0,1,.4,2.38h0A73,73,0,0,1,138.53,122.18Z"/></g><g id="Group_1674" data-name="Group 1674"><path id="Path_1112" data-name="Path 1112" class="cls-5" d="M153.89,118.12h-.26a1.2,1.2,0,0,1-1.18-1.21h0a1.21,1.21,0,0,1,1.22-1.18,30.07,30.07,0,0,0,6.48-.86,1.2,1.2,0,0,1,.59,2.33A32.28,32.28,0,0,1,153.89,118.12Z"/></g><g id="Group_1675" data-name="Group 1675"><path id="Path_1113" data-name="Path 1113" class="cls-5" d="M138.13,116a1.2,1.2,0,0,1-.2-2.39,64.88,64.88,0,0,1,7.38-.13,1.2,1.2,0,1,1,0,2.4h0a66.19,66.19,0,0,0-6.9.1A.75.75,0,0,1,138.13,116Z"/></g><g id="Group_1676" data-name="Group 1676"><path id="Path_1114" data-name="Path 1114" class="cls-5" d="M195.06,69.52a1.2,1.2,0,0,1-.42-2.33c.36-.14,8.84-3.28,13.5-2.12a1.2,1.2,0,1,1-.58,2.33h0c-3.27-.81-9.83,1.2-12.08,2A1.2,1.2,0,0,1,195.06,69.52Z"/></g><g id="Group_1677" data-name="Group 1677"><path id="Path_1115" data-name="Path 1115" class="cls-5" d="M227.18,74.07a1.2,1.2,0,0,1-1.09-.7c-1.78-3.8-7.06-5.73-7.11-5.74a1.21,1.21,0,1,1,.81-2.27c.26.09,6.28,2.29,8.48,7a1.2,1.2,0,0,1-.57,1.6,1.17,1.17,0,0,1-.52.12Z"/></g><g id="Group_1678" data-name="Group 1678"><path id="Path_1116" data-name="Path 1116" class="cls-5" d="M241.3,100.47h-.15c-8.63-1.1-12.49-5.66-12.65-5.85a1.2,1.2,0,1,1,1.85-1.54c.05.06,3.5,4,11.1,5a1.2,1.2,0,1,1-.15,2.4Z"/></g><g id="Group_1679" data-name="Group 1679"><path id="Path_1117" data-name="Path 1117" class="cls-5" d="M236.35,107a1.65,1.65,0,0,1-.32,0c-3.45-1-12.56-1-12.65-1a1.21,1.21,0,0,1,0-2.41h0c.39,0,9.52.07,13.28,1.1a1.2,1.2,0,0,1-.32,2.37Z"/></g><g id="Group_1680" data-name="Group 1680"><path id="Path_1118" data-name="Path 1118" class="cls-7" d="M100.07,101.25a2,2,0,0,1-.42,0,1.2,1.2,0,1,1,.45-2.36c.08,0,.54-.13,1.12-1.09,5.82-14,11.69-12.45,12.34-12.23l-.78,2.28h0s-4.45-1-9.4,11a1,1,0,0,1-.07.15C102.13,101,100.76,101.25,100.07,101.25Zm.14-2.38Zm0,0Zm0,0Z"/></g><g id="Group_1681" data-name="Group 1681"><path id="Path_1119" data-name="Path 1119" class="cls-7" d="M145.31,69.46v0l-2.4-.18c.06-.68.92-6.51,15.44-6.51H159a2.5,2.5,0,0,0,1.36-.51s0,0,.05,0h0a1.19,1.19,0,0,1,1.39-1,1.21,1.21,0,0,1,1,1.39h0c0,.21-.45,2.08-3.56,2.48h-.17C146.12,65,145.32,69.41,145.31,69.46Z"/></g><path id="Path_1120" data-name="Path 1120" class="cls-11" d="M130.76,92.77s-.74,3.68,0,4.75,1.82.33,1.93-.73.5-.37.64,1,.46,3.23,1.69,3.23,2.14-2.09,2.14-11.61A51.09,51.09,0,0,1,130.76,92.77Z"/><g id="Group_1682" data-name="Group 1682"><path id="Path_1121" data-name="Path 1121" class="cls-7" d="M129.68,93.58a.8.8,0,0,1-.82-.78.78.78,0,0,1,.67-.81c6.59-1.27,11.5-7,11.55-7.09a.82.82,0,0,1,1.14-.1.81.81,0,0,1,.09,1.13h0c-.21.26-5.32,6.26-12.47,7.63Z"/></g></g></g></svg>