<svg id="圖層_1" data-name="圖層 1" xmlns="http://www.w3.org/2000/svg" viewBox="0 0 323.99 72.59"><defs><style>.cls-1{fill:#63342c;}.cls-2{fill:#ffcf63;}.cls-3{fill:#e46e47;}.cls-4{fill:#fff6f2;}.cls-5{fill:#fffcfa;}.cls-6{fill:#854d42;}.cls-7{fill:#524c4a;}.cls-8{fill:#cc561b;}.cls-9{fill:#ffeda6;}.cls-10{fill:#4d5972;}.cls-11{fill:#ffc318;}.cls-12{fill:#f37566;}.cls-13{fill:#d56541;}.cls-14{fill:#c15425;}.cls-15{fill:#ffe6d2;}.cls-16{fill:#662f2f;}.cls-17{fill:#a35f53;}.cls-18{fill:#f6ecf1;}.cls-19{fill:#ef8789;}.cls-20{fill:#f5993f;}.cls-21{fill:#f7b351;}.cls-22{fill:#f6e4bb;}.cls-23{fill:#716663;}</style></defs><title>icon</title><g id="Group_1866" data-name="Group 1866"><path id="Path_260" data-name="Path 260" class="cls-1" d="M168,43a1.14,1.14,0,0,1-1.2-1.09,1.08,1.08,0,0,1,0-.18l.33-7.24a1.32,1.32,0,0,1,1.36-1.27,1.17,1.17,0,0,1,1.23,1.11.43.43,0,0,1,0,.16l-.37,7.24A1.29,1.29,0,0,1,168,43ZM172,61a1.33,1.33,0,0,1-1.36-1.3.34.34,0,0,1,0-.1V26.85a1.38,1.38,0,1,1,2.75,0V59.56a1.34,1.34,0,0,1-1.28,1.4Zm2.3-27.74a1.23,1.23,0,0,1,1-1.39h.25A1.43,1.43,0,0,1,177,33.2v0l.28,2.63a1.17,1.17,0,0,1-1,1.31.85.85,0,0,1-.16,0,1.5,1.5,0,0,1-1.56-1.31Zm9.66-7.73a1.27,1.27,0,0,1,1.32,1.19v.79a.65.65,0,0,0,.61.65h2.39a1.32,1.32,0,0,1,1.35,1.28v.08a1.3,1.3,0,0,1-1.23,1.36h-2.26a.92.92,0,0,0-.86.9v.86a.9.9,0,0,0,.86.94h.33a2.89,2.89,0,0,1,2.92,2.84v6a2.16,2.16,0,0,1-2.1,2.22h-.12a.51.51,0,0,0-.51.53.57.57,0,0,0,0,.13l2.18,5.83a1,1,0,0,1-.54,1.25,1.23,1.23,0,0,1-.32.07,2,2,0,0,1-1.85-1.32L185.7,50a.21.21,0,0,0-.24-.16.19.19,0,0,0-.17.21l0,9.49a1.3,1.3,0,0,1-2.59,0l0-7.77c0-.25-.37-.25-.41,0L181.14,55a1.87,1.87,0,0,1-1.77,1.27,1,1,0,0,1-1-.89,1,1,0,0,1,0-.38l3.05-9.7a.59.59,0,0,0-.4-.72l-.14,0a2.39,2.39,0,0,1-2.46-2.33.33.33,0,0,1,0-.14V36.46a2.82,2.82,0,0,1,2.76-2.91h.56a1,1,0,0,0,.87-.94v-.86a1,1,0,0,0-.87-.9h-2.26a1.29,1.29,0,0,1-1.35-1.23v-.13a1.33,1.33,0,0,1,1.28-1.36H182a.7.7,0,0,0,.62-.65v-.66a1.23,1.23,0,0,1,1.16-1.31Zm-2,10.73a.83.83,0,0,0-.78.74v4.23a.82.82,0,0,0,.78.74.8.8,0,0,0,.74-.74V37a.8.8,0,0,0-.74-.74Zm4.76.74a.72.72,0,1,0-1.43-.08.11.11,0,0,0,0,.08v4.27a.72.72,0,0,0,1.43,0Zm6.74-2.47a1,1,0,0,1-.94-1,1.27,1.27,0,0,1,0-.26l1.15-4.11a.52.52,0,0,0-.43-.61h-.72a1.24,1.24,0,0,1-1.31-1.18v-.13a1.29,1.29,0,0,1,1.23-1.32h7.89a2.76,2.76,0,0,1,2.8,2.71v.21L203,33.67a1.26,1.26,0,0,1-1.27,1.24h0a1.16,1.16,0,0,1-1.23-1.09.33.33,0,0,1,0-.14l.12-4.27a.9.9,0,0,0-.82-.87h-2.39a1.09,1.09,0,0,0-1.06.83l-1.2,3.9a1.76,1.76,0,0,1-1.69,1.23Zm-.74,25.94a1,1,0,0,1-1-1,.9.9,0,0,1,.08-.4l.08-.21a2.27,2.27,0,0,1,2.06-1.4,1,1,0,0,1,1,1,1.06,1.06,0,0,1-.08.4l-.08.21a2.26,2.26,0,0,1-2.06,1.44Zm1.94-5.59A2.86,2.86,0,0,1,191.7,52V39.72a2.87,2.87,0,0,1,2.83-2.92h5.59A2.85,2.85,0,0,1,203,39.58v12.3a2.85,2.85,0,0,1-2.72,3h-5.7Zm5.91-14.59a1,1,0,0,0-.9-.9h-4.48a.93.93,0,0,0-.86.9V41a.92.92,0,0,0,.86.86h4.48a1,1,0,0,0,.9-.86Zm-6.24,5.87a.92.92,0,0,0,.86.9h4.48a1,1,0,0,0,.9-.9v-.74a1,1,0,0,0-.9-.86h-4.48a.92.92,0,0,0-.86.86Zm0,5.22a.93.93,0,0,0,.86.87h4.48a1,1,0,0,0,.9-.87V50.6a1,1,0,0,0-.9-.9h-4.48a.93.93,0,0,0-.86.9Zm6.74,6a2.31,2.31,0,0,1,2.13,1.4l.09.25a1,1,0,0,1-.54,1.32.9.9,0,0,1-.36.08,2.35,2.35,0,0,1-2.1-1.4l-.13-.25a1,1,0,0,1,.53-1.32,1.23,1.23,0,0,1,.38-.08Z"/><path id="Path_261" data-name="Path 261" class="cls-1" d="M263.7,32.85a1.79,1.79,0,0,1-1.77,1.77H249.81a1.77,1.77,0,0,1,0-3.54h12.12A1.79,1.79,0,0,1,263.7,32.85Zm-1.93,5.51A1.73,1.73,0,0,1,260,40.08H251.7a1.71,1.71,0,0,1,0-3.41H260a1.73,1.73,0,0,1,1.73,1.69Zm0,5.46a1.71,1.71,0,0,1-1.69,1.69H251.7a1.69,1.69,0,1,1,0-3.37h8.39a1.69,1.69,0,0,1,1.69,1.68Zm-.5-16.4a1.71,1.71,0,0,1-1.68,1.69h-7.4a1.71,1.71,0,0,1-1.69-1.69,1.66,1.66,0,0,1,1.65-1.68h7.44a1.69,1.69,0,0,1,1.69,1.68Zm22.44,30.5a1.83,1.83,0,0,1-1.85,1.8H268.67a2.94,2.94,0,0,1-3-2.93V40.49a3,3,0,0,1,2.94-3h7.13a1,1,0,0,0,1-.78l1.06-6.16a.66.66,0,0,0-.53-.77h-9.82a1.83,1.83,0,1,1,0-3.66h12a2.48,2.48,0,0,1,2.46,2.48,2.18,2.18,0,0,1,0,.44l-1.68,9.16a3.62,3.62,0,0,1-3.54,2.92h-6.49a.81.81,0,0,0-.78.78V55.29a.82.82,0,0,0,.78.78h11.75a1.84,1.84,0,0,1,1.85,1.83v0Z"/><path id="Path_262" data-name="Path 262" class="cls-1" d="M294.65,25a1.59,1.59,0,0,1,1.6,1.56v3.33a.77.77,0,0,0,.77.78h.71a3,3,0,0,1,3,3V48.75a1.55,1.55,0,0,1-3.09,0V34.37a.7.7,0,0,0-.69-.71.72.72,0,0,0-.71.69v25a1.58,1.58,0,1,1-3.16,0h0v-25a.72.72,0,0,0-.7-.7.69.69,0,0,0-.66.7V48.75a1.56,1.56,0,1,1-3.12,0V33.63a3,3,0,0,1,3-3h.7a.79.79,0,0,0,.82-.76V26.56a1.57,1.57,0,0,1,1.54-1.6ZM324,44.44a1.66,1.66,0,0,1-1.67,1.64H314.9a.54.54,0,0,0-.49.58.94.94,0,0,0,0,.16l1.36,2.63a.25.25,0,0,0,.34.13l.07,0a4,4,0,0,1,2.42-.82H320a.93.93,0,0,1,.57,1.65l-2.46,1.93a1,1,0,0,0-.29,1.19l3,5.79a1.15,1.15,0,0,1-.48,1.56,1.17,1.17,0,0,1-.55.13A3,3,0,0,1,317,59.27l-6.37-12.45a1.28,1.28,0,0,0-1.15-.74h-.62a.8.8,0,0,0-.78.8v10a.45.45,0,0,0,.45.45h.05a1.71,1.71,0,0,1,0,3.41h-1.07A2.76,2.76,0,0,1,304.79,58V46.74a.64.64,0,0,0-.61-.66h-.74a1.64,1.64,0,1,1,0-3.28h.82a.68.68,0,0,0,.66-.66V29a3,3,0,0,1,3-3h12.59a1.66,1.66,0,0,1,1.69,1.64v0a1.71,1.71,0,0,1-1.69,1.69H309a.77.77,0,0,0-.78.77h0v.65a.82.82,0,0,0,.78.79h10.07a1.69,1.69,0,0,1,0,3.37H309a.77.77,0,0,0-.78.77h0v.65a.79.79,0,0,0,.78.79h10.07a1.69,1.69,0,0,1,1.69,1.68,1.67,1.67,0,0,1-1.65,1.69H309a.81.81,0,0,0-.78.78V42a.82.82,0,0,0,.78.82H322.3A1.66,1.66,0,0,1,324,44.43Z"/><circle id="Ellipse_18" data-name="Ellipse 18" class="cls-2" cx="145.14" cy="44.83" r="5.85"/><circle id="Ellipse_19" data-name="Ellipse 19" class="cls-2" cx="255.55" cy="53.86" r="6.72"/><g id="Group_31" data-name="Group 31"><path id="Path_263" data-name="Path 263" class="cls-1" d="M140.58,32h2a1,1,0,0,1,.86.94v1.19a.93.93,0,0,1-.86.83H141.4a1.6,1.6,0,0,0-1.65,1.55v.09a1.57,1.57,0,0,0,1.53,1.6h7.43a1.53,1.53,0,0,0,1.6-1.46v-.14a1.56,1.56,0,0,0-1.48-1.64h-1.31a.89.89,0,0,1-.86-.83V32.89a.93.93,0,0,1,.86-.94h2a1.63,1.63,0,1,0,0-3.25h-2.1a.8.8,0,0,1-.74-.74v-.9a1.54,1.54,0,0,0-1.52-1.56h-.08a1.51,1.51,0,0,0-1.59,1.44.49.49,0,0,0,0,.12V28a.79.79,0,0,1-.78.74h-2.1a1.63,1.63,0,0,0,0,3.25Z"/><path id="Path_264" data-name="Path 264" class="cls-1" d="M150.19,54.26a.41.41,0,0,1-.45-.36v-.09l0-.45a1.39,1.39,0,0,0-1-1.69,1.5,1.5,0,0,0-.37,0,2,2,0,0,0-2,1.73l-.2.9a1.1,1.1,0,0,1-.9.86l-.21,0a.94.94,0,0,1-1-.74l-.2-1a2.11,2.11,0,0,0-2.1-1.76A1.37,1.37,0,0,0,140.43,53a1.34,1.34,0,0,0,.06.4l.41,1.85a.63.63,0,0,1-.49.74h0L140,56a2,2,0,0,0-1.65,2,1.35,1.35,0,0,0,1.27,1.43,1.22,1.22,0,0,0,.38,0l10.1-1.72a2,2,0,0,0,1.65-2v0a1.38,1.38,0,0,0-1.33-1.42Z"/><path id="Path_265" data-name="Path 265" class="cls-1" d="M161.49,32.77a.68.68,0,0,1-.49-.54v-5.3a1.56,1.56,0,0,0-1.48-1.64h-.12a1.6,1.6,0,0,0-1.68,1.53.21.21,0,0,0,0,.11v4.89a1,1,0,0,1-.87,1H153.4a1.67,1.67,0,1,0,0,3.33h3.45a.92.92,0,0,1,.86.9V59.31A1.62,1.62,0,0,0,159.29,61h.11a1.57,1.57,0,0,0,1.6-1.53V36.55a.56.56,0,0,1,.49-.45,1.27,1.27,0,0,0,1.32-1.19v-.79a1.28,1.28,0,0,0-1.21-1.35Z"/><path id="Path_266" data-name="Path 266" class="cls-1" d="M155.66,42.84a2.26,2.26,0,0,0-2.14-1.6,1.24,1.24,0,0,0-1.28,1.21,1,1,0,0,0,0,.39l.78,3.41a2.17,2.17,0,0,0,2.05,1.6,1.27,1.27,0,0,0,1.36-1.17,1.24,1.24,0,0,0,0-.43Z"/><path id="Path_267" data-name="Path 267" class="cls-1" d="M138.29,45.25,135.48,36a.5.5,0,0,1,.45-.53h0a1.55,1.55,0,0,0,1.6-1.51v-.09A1.63,1.63,0,0,0,136,32.16h-.63a.82.82,0,0,1-.78-.7v-4.6a1.61,1.61,0,0,0-1.56-1.64H133a1.57,1.57,0,0,0-1.64,1.5v4.58a1,1,0,0,1-.9.87h-1.6a1.67,1.67,0,0,0-1.65,1.69v0a1.59,1.59,0,0,0,1.58,1.6h1.14a.64.64,0,0,1,.67.6.55.55,0,0,1,0,.18l-3.49,13.19a1.27,1.27,0,0,0,.83,1.59,1.34,1.34,0,0,0,.4.06,2.28,2.28,0,0,0,2.22-1.65l.41-1.43c0-.21.37-.17.37,0l0,11.26A1.58,1.58,0,0,0,132.84,61H133a1.59,1.59,0,0,0,1.64-1.55v-15l.68,2.26h0a1.66,1.66,0,0,0,3.12-1.11,1.47,1.47,0,0,0-.14-.28Z"/></g><path id="Path_268" data-name="Path 268" class="cls-1" d="M239,58.55l-8.31-3.43a.6.6,0,0,1-.27-.8l.06-.1,5.43-6.41a1.27,1.27,0,0,0-.14-1.79,1.33,1.33,0,0,0-.85-.31H224.49a.23.23,0,0,1-.24-.23.25.25,0,0,1,.08-.18.82.82,0,0,0,.07-1.16.85.85,0,0,0-.61-.28h0a5.92,5.92,0,0,0-3.86,1.48l-7.4,6.5a.8.8,0,0,0-.13,1.13.81.81,0,0,0,.66.3,5.78,5.78,0,0,0,3.87-1.43l1.93-1.69a.78.78,0,0,1,1.07,0l3.7,3.74a.48.48,0,0,1,0,.67.42.42,0,0,1-.18.11l-10,3.63h0a2.26,2.26,0,0,0-.39.15l-.21.13a1,1,0,0,0-.28,1.57,1.42,1.42,0,0,0,.87.37h.05a12.36,12.36,0,0,0,3.21-.24,16,16,0,0,0,3-.81L226.14,57a1.71,1.71,0,0,1,1.35,0,36.82,36.82,0,0,0,8.45,3.34c1,.22,2.42.57,3.3-.2a.89.89,0,0,0,.28-.7A1,1,0,0,0,239,58.55Zm-11.68-5.4s0,0,0,0h0L223.14,49a.29.29,0,0,1,.2-.5h7.15a.35.35,0,0,1,.35.34.36.36,0,0,1-.06.2Zm-11.26-11.3.57-2.1a1.19,1.19,0,0,0-.84-1.45,1.55,1.55,0,0,0-.31,0,2,2,0,0,0-2,1.48l-.57,2.1a1.15,1.15,0,0,0,1.1,1.48,2.13,2.13,0,0,0,2-1.48Zm23.1-10h-4.44a.45.45,0,0,1-.43-.45.73.73,0,0,1,.06-.21l1.28-2.22a1.41,1.41,0,0,1,1.11-.7l1.27,0a1.58,1.58,0,0,0,1.52-1.56,1.44,1.44,0,0,0-1.46-1.44H238l-25,1.07a1.59,1.59,0,0,0-1.52,1.6,1.46,1.46,0,0,0,1.46,1.44H213l1.77-.08a1,1,0,0,1,1,.61l.65,1.32a.47.47,0,0,1-.25.62l-.16,0h-3.94a2.76,2.76,0,0,0-2.76,2.75v3.94a1.57,1.57,0,1,0,3.13,0h0v-3a.75.75,0,0,1,.73-.74H238.1a.74.74,0,0,1,.7.74v3a1.56,1.56,0,1,0,3.12.08v-4a2.75,2.75,0,0,0-2.75-2.75Zm-16.44,0H221a1.17,1.17,0,0,1-1.06-.66l-.7-1.48a.44.44,0,0,1,.17-.6.53.53,0,0,1,.24-.06l1.72-.08a1,1,0,0,1,1,.62l.78,1.6a.43.43,0,0,1-.41.66ZM232,29.11l-1.19,2.05a1.19,1.19,0,0,1-1.07.66h-2.06a1.08,1.08,0,0,1-1-.66l-.87-1.72a.47.47,0,0,1,.17-.64.53.53,0,0,1,.24-.06l5.43-.25a.41.41,0,0,1,.42.39.38.38,0,0,1-.06.23Zm6.08,14.22a1,1,0,0,0,1-1,1.06,1.06,0,0,0-.13-.46L237.28,39a3,3,0,0,0-2.63-1.52,1,1,0,0,0-.86,1.52l1.64,2.84a3.12,3.12,0,0,0,2.63,1.48Zm-18.41-8a1.55,1.55,0,0,0-1.52,1.56V40.2A2.74,2.74,0,0,0,220.84,43h11.1a1.57,1.57,0,0,0,0-3.13H221.87a.65.65,0,0,1-.66-.64h0v-2.3a1.55,1.55,0,0,0-1.56-1.56h0Zm8.71,3.41a.92.92,0,0,0,.94-.93,1,1,0,0,0-.2-.59A4,4,0,0,0,226,35.68a1,1,0,0,0-.93,1,.92.92,0,0,0,.19.55,4.07,4.07,0,0,0,3.12,1.53Z"/><circle id="Ellipse_20" data-name="Ellipse 20" class="cls-1" cx="319.67" cy="48.99" r="1.62"/><path id="Path_269" data-name="Path 269" class="cls-1" d="M318.78,47.64l-2.56,1.89.71,1.07,2.74-.83V48.58Z"/><g id="Group_326" data-name="Group 326"><path id="Path_256" data-name="Path 256" class="cls-3" d="M36.62,58.37A26.87,26.87,0,0,0,36.9,4.63a26.88,26.88,0,0,1-5.88,0,26.87,26.87,0,1,0-.27,53.73Z"/><path id="Path_257" data-name="Path 257" class="cls-3" d="M36.48.59a1,1,0,0,0-1.33.22.94.94,0,0,0-.15.78h0a13.21,13.21,0,0,1,.32,2.17C34.27,2.25,32.73.46,31,0a1,1,0,0,0-1.16.69,1,1,0,0,0,0,.59h0l.15.37a9.45,9.45,0,0,1,.86,2.81,25.13,25.13,0,0,1-2.27-2.68,1,1,0,0,0-1.33-.2h0a1,1,0,0,0-.21,1.33h0C27.9,4,28.52,5.58,28.2,6.42c-.09.22-.27.52-1,.66a1,1,0,0,0-.74,1.13,1,1,0,0,0,.75.74l10.54,2L38,11a1,1,0,0,0,.93-.68,12.79,12.79,0,0,0,.43-3.59A7.42,7.42,0,0,0,36.48.59Z"/><path id="Path_48" data-name="Path 48" class="cls-4" d="M8.43,38c2.86,8.33,12.77,14.63,24.66,14.9s22.06-5.6,25.29-13.8a20.61,20.61,0,0,0,.23-10.49,19.16,19.16,0,0,0-6-8.38c-2.73-2.26-8.54-2.47-11.5-.52l-3.06,2a7.7,7.7,0,0,1-8.54-.19l-3-2.14c-2.9-2.1-8.69-2.13-11.51,0a19.07,19.07,0,0,0-6.37,8.11A19.76,19.76,0,0,0,8.43,38Z"/><g id="Path_49" data-name="Path 49"><path id="Path_124" data-name="Path 124" class="cls-1" d="M32.42,36.74A6.2,6.2,0,0,0,35,36.28a.81.81,0,0,0-.29-1.56l-4.44-.1a.81.81,0,0,0-.35,1.55A6.35,6.35,0,0,0,32.42,36.74Z"/><path id="Path_125" data-name="Path 125" class="cls-1" d="M32.4,36.87a6.68,6.68,0,0,1-2.56-.58A.94.94,0,0,1,29.38,35h0a.92.92,0,0,1,.87-.55l4.44.1a.93.93,0,0,1,.91,1,.94.94,0,0,1-.58.85,6.54,6.54,0,0,1-2.59.47Zm-2.16-2.12a.69.69,0,0,0-.7.66h0a.69.69,0,0,0,.4.64,6,6,0,0,0,2.46.56h0a6.25,6.25,0,0,0,2.49-.45.69.69,0,0,0,.38-.89h0a.7.7,0,0,0-.62-.43Z"/></g><circle id="Ellipse_4" data-name="Ellipse 4" class="cls-4" cx="47.64" cy="33.36" r="5.08"/><ellipse id="Ellipse_5" data-name="Ellipse 5" class="cls-5" cx="21.68" cy="31.51" rx="1.84" ry="1.55" transform="translate(-8.43 7.93) rotate(-17.41)"/><path id="Path_50" data-name="Path 50" class="cls-6" d="M8.21,27.93a45.38,45.38,0,0,1,8.68-1.38c3.57-.18,8.08.15,10.6,2.82s-1.22,5-3.66,6.19c-4,1.87-8.31,2.9-12.08,5.14-.18.1-.83.49-1.64,1A17,17,0,0,1,8,37.42,22,22,0,0,1,8.21,27.93Z"/><ellipse id="Ellipse_6" data-name="Ellipse 6" class="cls-5" cx="43.24" cy="31.98" rx="1.55" ry="1.84" transform="translate(-1.57 61.73) rotate(-70.06)"/><path id="Path_51" data-name="Path 51" class="cls-6" d="M58.94,29.06a45.08,45.08,0,0,0-8.61-1.77c-3.56-.33-8.08-.2-10.72,2.35s1,5.09,3.39,6.34c3.89,2.05,8.18,3.26,11.84,5.68.17.11.81.52,1.6,1.07a17.67,17.67,0,0,0,2.26-4.19A22,22,0,0,0,58.94,29.06Z"/><g id="Path_83" data-name="Path 83"><path id="Path_165" data-name="Path 165" class="cls-1" d="M32,42.74a14.48,14.48,0,0,1-3-.37.9.9,0,0,1-.6-1.12.91.91,0,0,1,1-.62h0c.06,0,6.27,1.51,7.89-2.12A.88.88,0,0,1,38.45,38,.9.9,0,0,1,39,39.15l0,.09h0c-.94,2.11-3,3.32-6,3.48A8.64,8.64,0,0,1,32,42.74Z"/></g><path id="Path_258" data-name="Path 258" class="cls-2" d="M22.93,30.88A19.48,19.48,0,0,0,21,30a4.06,4.06,0,0,1-1.06-.58.92.92,0,0,1,.21-1.63,2,2,0,0,1,.64-.14,5,5,0,0,1,2.43.45c.38.18.51.13.63-.28s.25-.85.37-1.27A.45.45,0,0,0,24,26h0a5.83,5.83,0,0,0-1.53-.44c-.7-.1-.7-.1-.7-.8,0-1,0-1-1-1h-.43c-.46,0-.54.1-.54.56V25c0,.61,0,.6-.59.82a3.3,3.3,0,0,0-2.37,3.07,3.15,3.15,0,0,0,1.8,3,19.82,19.82,0,0,0,2.22,1,3.06,3.06,0,0,1,.8.47,1.1,1.1,0,0,1,.26,1.54,1.07,1.07,0,0,1-.5.39,2.62,2.62,0,0,1-1.41.2,6.59,6.59,0,0,1-2.17-.62c-.4-.2-.51-.15-.64.29s-.22.75-.32,1.12-.08.63.4.86a7.34,7.34,0,0,0,1.95.54c.53.07.55.1.56.64,0,.25,0,.5,0,.74a.45.45,0,0,0,.38.5h.1c.36,0,.73,0,1.09,0a.42.42,0,0,0,.45-.38h0a.14.14,0,0,0,0-.09c0-.34,0-.68,0-1a.55.55,0,0,1,.45-.61h0a3.64,3.64,0,0,0,1.9-1.25,3.44,3.44,0,0,0-.56-4.83,3.19,3.19,0,0,0-.6-.38Z"/><path id="Path_270" data-name="Path 270" class="cls-2" d="M49,30.88A19.31,19.31,0,0,0,47,30,3.91,3.91,0,0,1,46,29.45a.92.92,0,0,1,.21-1.63,2,2,0,0,1,.64-.14,5,5,0,0,1,2.43.45c.38.18.51.13.63-.28s.24-.85.36-1.27A.45.45,0,0,0,50,26h0a5.9,5.9,0,0,0-1.54-.44c-.69-.1-.69-.1-.7-.8,0-1,0-1-1-1H46.3c-.46,0-.54.1-.55.56V25c0,.61,0,.6-.58.82a3.28,3.28,0,0,0-2.37,3.07,3.15,3.15,0,0,0,1.8,3,20.5,20.5,0,0,0,2.21,1,3.29,3.29,0,0,1,.81.47,1.1,1.1,0,0,1,.26,1.54,1.12,1.12,0,0,1-.5.39,2.67,2.67,0,0,1-1.42.2,6.09,6.09,0,0,1-2.16-.62c-.4-.2-.52-.15-.65.29s-.21.75-.31,1.12-.08.63.4.86a7.34,7.34,0,0,0,1.95.54c.52.07.54.1.56.64,0,.25,0,.5,0,.74a.45.45,0,0,0,.38.5h.1c.36,0,.73,0,1.09,0a.42.42,0,0,0,.45-.38.17.17,0,0,0,0-.1c0-.33,0-.67,0-1a.53.53,0,0,1,.44-.61h0a3.7,3.7,0,0,0,1.9-1.25,3.44,3.44,0,0,0-.56-4.83,3.85,3.85,0,0,0-.6-.39Z"/></g><g id="Group_341" data-name="Group 341"><path id="Path_753" data-name="Path 753" class="cls-3" d="M53.1,52.29,34.82,53.85,17.55,52.29,14.41,67.91h42Z"/><path id="Path_754" data-name="Path 754" class="cls-3" d="M56.42,68.5h-42a.58.58,0,0,1-.58-.59.45.45,0,0,1,0-.11L17,52.18a.58.58,0,0,1,.63-.47l17.22,1.56,18.23-1.56a.58.58,0,0,1,.63.46L57,67.79a.59.59,0,0,1-.45.7ZM15.13,67.33H55.7L52.64,52.92,34.87,54.44h-.1L18,52.92Z"/></g><g id="Group_336" data-name="Group 336"><g id="Group_332" data-name="Group 332"><path id="Path_735" data-name="Path 735" class="cls-7" d="M34.24,54.7a6.57,6.57,0,0,1-4.83-4.42s.24-1,3.95,2.25C33.36,52.53,36.28,54.21,34.24,54.7Z"/><path id="Path_736" data-name="Path 736" class="cls-7" d="M35,54.63a.61.61,0,0,0,.23-.41c.12-.79-1.35-1.69-1.7-1.89-2.08-1.82-3.4-2.6-4-2.41a.45.45,0,0,0-.3.3.19.19,0,0,0,0,.13,6.89,6.89,0,0,0,5,4.6h.1A1.54,1.54,0,0,0,35,54.63Zm-.73.07L29.7,50.38c.24,0,1.07.21,3.5,2.33l0,0c.75.43,1.52,1.1,1.48,1.42,0,.11-.19.22-.48.3a6.41,6.41,0,0,1-4.55-4.08Z"/></g><g id="Group_333" data-name="Group 333"><path id="Path_737" data-name="Path 737" class="cls-7" d="M38.11,52.12a6.6,6.6,0,0,0-3-5.85s-1,0,1.1,4.41C36.26,50.68,37.09,53.94,38.11,52.12Z"/><path id="Path_738" data-name="Path 738" class="cls-7" d="M38,52.72a1.72,1.72,0,0,0,.37-.48.19.19,0,0,0,0-.1,6.9,6.9,0,0,0-3.06-6.07.28.28,0,0,0-.12,0,.47.47,0,0,0-.37.22c-.36.54,0,2,1.23,4.52.1.39.57,2,1.36,2.15A.69.69,0,0,0,38,52.72Zm-.08-.67c-.15.26-.3.4-.42.38-.32,0-.75-1-1-1.81,0,0,0,0,0,0-1.39-2.91-1.36-3.78-1.3-4a6.42,6.42,0,0,1,2.7,5.47Z"/></g><g id="Group_334" data-name="Group 334"><path id="Path_739" data-name="Path 739" class="cls-7" d="M35.79,53.3a6.59,6.59,0,0,1-4-5.18s.4-.94,3.51,2.89C35.29,51,37.88,53.16,35.79,53.3Z"/><path id="Path_740" data-name="Path 740" class="cls-7" d="M36.63,53.28a.7.7,0,0,0,.19-.29c.24-.76-1-1.9-1.35-2.16-1.75-2.14-2.91-3.14-3.56-3a.42.42,0,0,0-.35.24.25.25,0,0,0,0,.12,6.91,6.91,0,0,0,4.16,5.38.18.18,0,0,0,.1,0A1.43,1.43,0,0,0,36.63,53.28Zm-4.58-5c.23,0,1,.39,3.06,2.89,0,0,0,0,0,0,.66.55,1.31,1.33,1.21,1.64,0,.11-.22.19-.52.21a6.38,6.38,0,0,1-3.78-4.78Z"/></g><g id="Group_335" data-name="Group 335"><path id="Path_741" data-name="Path 741" class="cls-3" d="M54,57.71a47.28,47.28,0,0,1-16.49-7.22c-2.27-1.53-5.52,2.84-3.78,4.8,2,2.2,11.35,9,19,9.75l2.39.38"/><path id="Path_742" data-name="Path 742" class="cls-8" d="M55.53,65.92a.66.66,0,0,0,.06-.93.62.62,0,0,0-.39-.22l-2.39-.39h-.05c-7.61-.71-16.83-7.54-18.59-9.52-.66-.75-.22-2.15.59-3.07.22-.25,1.33-1.42,2.33-.74a47.42,47.42,0,0,0,16.74,7.32.67.67,0,1,0,.29-1.3h-.06a47.06,47.06,0,0,1-16.23-7.11c-1.22-.83-2.82-.46-4.06,1-1.59,1.81-1.5,3.8-.59,4.83a36.3,36.3,0,0,0,7.53,5.56c3.06,1.79,7.61,4,11.91,4.4l2.37.38A.63.63,0,0,0,55.53,65.92Z"/></g></g><g id="Group_337" data-name="Group 337"><g id="Group_337-2" data-name="Group 337-2"><path id="Path_743" data-name="Path 743" class="cls-9" d="M21.69,64.45a.61.61,0,0,1,.87.1h0l.19.24-.55-3.67-3.87,3.05,3.45,1.39-.19-.24a.62.62,0,0,1,.09-.87Z"/><path id="Path_744" data-name="Path 744" class="cls-10" d="M22.75,64.8l-.19-.25a.62.62,0,1,0-1,.77h0l.19.24,1.16.47Z"/><path id="Path_745" data-name="Path 745" class="cls-11" d="M7.61,42.63,3.73,45.7,18.32,64.16h0l3.87-3.05v0Z"/><path id="Path_746" data-name="Path 746" class="cls-12" d="M2.42,38.05.47,39.6a1.23,1.23,0,0,0-.21,1.73h0l1.92,2.43,3.89-3.07L4.15,38.26a1.21,1.21,0,0,0-1.72-.2Z"/><rect id="Rectangle_95" data-name="Rectangle 95" class="cls-9" x="2.42" y="41.96" width="4.96" height="2.48" transform="translate(-25.72 12.34) rotate(-38.3)"/></g><g id="Group_338" data-name="Group 338"><path id="Path_747" data-name="Path 747" class="cls-7" d="M14.05,60.66a7.51,7.51,0,0,0,7-2.49s.19-1.14-5.13.6C15.94,58.78,12.13,59.24,14.05,60.66Z"/><path id="Path_748" data-name="Path 748" class="cls-7" d="M15.33,61A6.67,6.67,0,0,1,14,60.93a.27.27,0,0,1-.11,0c-.51-.38-.72-.77-.62-1.15.23-.87,2.16-1.17,2.61-1.23,3-1,4.72-1.22,5.29-.73a.49.49,0,0,1,.18.45.24.24,0,0,1-.05.13A7.51,7.51,0,0,1,15.33,61Zm-1.16-.64a7.28,7.28,0,0,0,6.56-2.25c-.25-.1-1.22-.26-4.7.89H16c-1,.12-2.09.47-2.18.82,0,.13.1.32.37.53Z"/></g><g id="Group_339" data-name="Group 339"><path id="Path_749" data-name="Path 749" class="cls-7" d="M12.07,57a6.58,6.58,0,0,1,5.39-3.64s.91.46-3.08,3.29C14.38,56.6,12.08,59,12.07,57Z"/><path id="Path_750" data-name="Path 750" class="cls-7" d="M12.56,58a.55.55,0,0,1-.25,0c-.32-.13-.48-.48-.48-1a.36.36,0,0,1,0-.1,6.87,6.87,0,0,1,5.6-3.78.27.27,0,0,1,.12,0,.44.44,0,0,1,.22.36c.05.65-1,1.74-3.26,3.33C14.29,57.05,13.3,58,12.56,58Zm-.25-1c0,.3.07.5.18.54.3.12,1.12-.48,1.71-1.1l0,0c2.61-1.86,3-2.62,3.06-2.84a6.36,6.36,0,0,0-5,3.44Z"/></g><g id="Group_340" data-name="Group 340"><path id="Path_751" data-name="Path 751" class="cls-7" d="M12.82,58.77a7.52,7.52,0,0,0,6.86-2.92s.11-1.16-5.09.92C14.59,56.77,10.82,57.47,12.82,58.77Z"/><path id="Path_752" data-name="Path 752" class="cls-7" d="M13.58,59.09a5.29,5.29,0,0,1-.8,0l-.11,0c-.54-.35-.77-.73-.7-1.11.18-.89,2.09-1.31,2.54-1.39,2.92-1.16,4.63-1.51,5.23-1.06a.5.5,0,0,1,.21.44.24.24,0,0,1-.05.13A7.62,7.62,0,0,1,13.58,59.09Zm-.66-.58a7.3,7.3,0,0,0,6.41-2.66c-.25-.08-1.23-.18-4.64,1.18l0,0c-1,.18-2.05.6-2.13,1,0,.12.13.3.41.49Z"/></g></g><g id="Group_299" data-name="Group 299"><path id="Path_684" data-name="Path 684" class="cls-13" d="M102.6,62.34a3.11,3.11,0,0,0,1.28-3.73"/><path id="Path_685" data-name="Path 685" class="cls-14" d="M102.6,62.81a.47.47,0,0,1-.47-.47.44.44,0,0,1,.22-.39,2.63,2.63,0,0,0,1.1-3.17.47.47,0,0,1,.24-.61.45.45,0,0,1,.61.24v0a3.53,3.53,0,0,1-1.47,4.3A.51.51,0,0,1,102.6,62.81Z"/></g><g id="Group_300" data-name="Group 300"><path id="Path_686" data-name="Path 686" class="cls-13" d="M69.12,52.64v8.79l32.26.91,2.7-10.63Z"/><path id="Path_687" data-name="Path 687" class="cls-14" d="M101.38,62.81h0L69.11,61.9a.47.47,0,0,1-.46-.47V52.64a.47.47,0,0,1,.46-.47l35-.93a.44.44,0,0,1,.38.18.48.48,0,0,1,.09.4l-2.7,10.63A.49.49,0,0,1,101.38,62.81ZM69.59,61l31.43.88,2.45-9.67-33.89.9Z"/></g><g id="Group_301" data-name="Group 301"><path id="Path_688" data-name="Path 688" class="cls-13" d="M113.68,35.18c-1.93-11.87-9.34-21.13-20.69-23.9,1.07-1.78,2-5.34,2.4-6.42.28-.74.45-4-2.52-4.08C91,.7,90,2.21,89.33,3.29S87,4.37,86.66,2.6a2.13,2.13,0,0,0-2.24-2A2.78,2.78,0,0,0,82.05,3c-.28,1.53-1.32,1.84-1.77,1.28-1.27-1.59-2.6-2-3.65-1.32a2.3,2.3,0,0,0-.48,3c.55,1.06,1.62,3.91,2.11,5.25C67,13.6,59.62,21.9,57.66,35.18c-2,13.53,11.53,23.3,28,23.62C102.4,59.12,115.86,48.68,113.68,35.18Z"/><path id="Path_689" data-name="Path 689" class="cls-13" d="M86.41,59.28h-.75c-10.11-.2-19.2-3.92-24.32-10A17.46,17.46,0,0,1,57.2,35.12c1-6.67,3.31-12.16,6.91-16.32a25,25,0,0,1,13.53-8c-.51-1.38-1.42-3.77-1.9-4.7-.62-1.21-.54-2.9.65-3.62s2.9-.26,4.26,1.43A.23.23,0,0,0,80.9,4c.24-.06.56-.4.7-1.14A3.2,3.2,0,0,1,84.42.16h0a2.58,2.58,0,0,1,2.7,2.35c.13.61.43,1,.82,1.08a1,1,0,0,0,1-.55c.69-1,1.82-2.81,4-2.73a3,3,0,0,1,2.51,1.32A4.27,4.27,0,0,1,95.83,5c-.11.28-.26.77-.43,1.33A33.22,33.22,0,0,1,93.7,11c10.84,2.89,18.46,11.87,20.45,24.13a17.65,17.65,0,0,1-4.34,14.77C104.67,55.79,96,59.28,86.41,59.28ZM77.66,3.08a1.48,1.48,0,0,0-.79.23c-.72.43-.72,1.58-.3,2.4.55,1.06,1.57,3.78,2.14,5.3a.48.48,0,0,1-.28.6h-.06a24.16,24.16,0,0,0-13.55,7.79c-3.48,4-5.74,9.35-6.7,15.84a16.54,16.54,0,0,0,3.93,13.44c5,5.85,13.78,9.45,23.62,9.64,9.59.19,18.34-3.2,23.42-9.06a16.76,16.76,0,0,0,4.12-14c-2-12.1-9.56-20.9-20.34-23.52a.47.47,0,0,1-.34-.57.69.69,0,0,1,0-.13,26.52,26.52,0,0,0,1.91-4.95c.19-.6.34-1.08.46-1.39a3.42,3.42,0,0,0-.33-2.56,2.08,2.08,0,0,0-1.77-.89c-1.48-.06-2.33,1.05-3.14,2.3a1.93,1.93,0,0,1-1.95,1A2.13,2.13,0,0,1,86.2,2.69c-.24-1.12-.77-1.61-1.79-1.61h0A2.29,2.29,0,0,0,82.51,3a2.18,2.18,0,0,1-1.39,1.88,1.16,1.16,0,0,1-1.2-.4,3.18,3.18,0,0,0-2.26-1.43Z"/></g><g id="Group_302" data-name="Group 302"><path id="Path_690" data-name="Path 690" class="cls-15" d="M109.5,39.22c1.24,9.35-10.89,16.3-23.82,15.8-12.44-.48-25-6.42-23.41-15.8,1.5-8.92,4.79-18.74,15-16.63,4.19.87,4.56,2.22,8.41,2.11,3.28-.09,3.87-1.2,6.64-2.14C102.9,19,108.34,30.53,109.5,39.22Z"/><path id="Path_691" data-name="Path 691" class="cls-13" d="M87,55.51l-1.33,0c-9.31-.37-17.8-3.65-21.64-8.37a9.68,9.68,0,0,1-2.22-8c.87-5.18,2.58-12.45,7.27-15.66a10.47,10.47,0,0,1,8.3-1.35,19.36,19.36,0,0,1,3.85,1.22,9.26,9.26,0,0,0,4.45.89,8.57,8.57,0,0,0,4.14-1.1,17,17,0,0,1,2.36-1,10.48,10.48,0,0,1,9.28.83A16.52,16.52,0,0,1,107.3,30,31.31,31.31,0,0,1,110,39.16a11,11,0,0,1-3.06,9C102.75,52.68,95,55.51,87,55.51ZM74.62,22.77a8.61,8.61,0,0,0-5,1.48c-4.4,3-6,10-6.88,15a8.77,8.77,0,0,0,2,7.23c3.68,4.52,11.9,7.67,21,8,8.26.32,16.3-2.45,20.5-7.06A10,10,0,0,0,109,39.28c-.7-5.3-3.24-12.54-8.06-15.54A9.6,9.6,0,0,0,92.48,23a16.06,16.06,0,0,0-2.25,1,9.32,9.32,0,0,1-4.53,1.2,10,10,0,0,1-4.83-1,19,19,0,0,0-3.68-1.16,12.41,12.41,0,0,0-2.57-.28Z"/></g><g id="Group_303" data-name="Group 303"><path id="Path_692" data-name="Path 692" class="cls-16" d="M85.86,44.07c-1.33,0-2.43-.59-2.62-1.4a.38.38,0,0,1,.28-.45.37.37,0,0,1,.44.28c.09.34.79.82,1.9.82s1.82-.41,1.89-.8a.37.37,0,1,1,.73.12h0C88.34,43.49,87.29,44.07,85.86,44.07Z"/></g><g id="Group_304" data-name="Group 304"><path id="Path_693" data-name="Path 693" class="cls-16" d="M88.81,39c0,1-1.37,1.89-3.08,1.89s-3.08-.85-3.08-1.89,1.38-1.12,3.08-1.12S88.81,38,88.81,39Z"/><path id="Path_694" data-name="Path 694" class="cls-16" d="M85.73,41c-1.77,0-3.21-.9-3.21-2s1.45-1.26,3.21-1.26S89,37.85,89,39,87.51,41,85.73,41Zm0-3c-1.91,0-2.94.16-2.94,1s1.32,1.75,2.94,1.75,3-.78,3-1.75-1-1-3-1Z"/></g><path id="Path_695" data-name="Path 695" class="cls-17" d="M108.17,33.31c-2.61-.72-13.52-3.68-16.48,1.2-1.81,3,.48,5.49,2.71,6.61,3.63,1.81,12.33,5.29,13.07,5.78C111.7,41.54,108.7,34.77,108.17,33.31Z"/><ellipse id="Ellipse_92" data-name="Ellipse 92" class="cls-16" cx="97.94" cy="36.97" rx="4.05" ry="4.8" transform="translate(30.98 117.44) rotate(-70.91)"/><ellipse id="Ellipse_93" data-name="Ellipse 93" class="cls-18" cx="96.2" cy="36.44" rx="1.26" ry="1.49" transform="translate(30.31 115.43) rotate(-70.91)"/><path id="Path_696" data-name="Path 696" class="cls-17" d="M63.53,33.31c2.61-.72,13.53-3.68,16.49,1.2,1.81,3-.48,5.49-2.71,6.61C73.68,42.93,65,46.41,64.24,46.9,60,41.54,63,34.77,63.53,33.31Z"/><ellipse id="Ellipse_94" data-name="Ellipse 94" class="cls-16" cx="73.77" cy="36.97" rx="4.8" ry="4.05" transform="translate(-8.03 26.16) rotate(-19.09)"/><ellipse id="Ellipse_95" data-name="Ellipse 95" class="cls-18" cx="75.52" cy="36.44" rx="1.49" ry="1.26" transform="translate(-7.76 26.7) rotate(-19.09)"/><path id="Path_697" data-name="Path 697" class="cls-19" d="M108,45.87c-.72,1.9-2.94,3.35-4.49,4.49A4.49,4.49,0,1,1,108,45.87Z"/><path id="Path_698" data-name="Path 698" class="cls-19" d="M63.45,45.87c.72,1.9,2.94,3.35,4.49,4.49a4.49,4.49,0,1,0-4.49-4.49Z"/><g id="Group_305" data-name="Group 305"><path id="Path_699" data-name="Path 699" class="cls-13" d="M87,55.51l-1.33,0c-9.31-.37-17.8-3.65-21.64-8.37a9.68,9.68,0,0,1-2.22-8c.87-5.18,2.58-12.45,7.27-15.66a10.47,10.47,0,0,1,8.3-1.35,19.36,19.36,0,0,1,3.85,1.22,9.26,9.26,0,0,0,4.45.89,8.57,8.57,0,0,0,4.14-1.1,17,17,0,0,1,2.36-1,10.48,10.48,0,0,1,9.28.83A16.52,16.52,0,0,1,107.3,30,31.31,31.31,0,0,1,110,39.16a11,11,0,0,1-3.06,9C102.75,52.68,95,55.51,87,55.51ZM74.62,22.77a8.61,8.61,0,0,0-5,1.48c-4.4,3-6,10-6.88,15a8.77,8.77,0,0,0,2,7.23c3.68,4.52,11.9,7.67,21,8,8.26.32,16.3-2.45,20.5-7.06A10,10,0,0,0,109,39.28c-.7-5.3-3.24-12.54-8.06-15.54A9.6,9.6,0,0,0,92.48,23a16.06,16.06,0,0,0-2.25,1,9.32,9.32,0,0,1-4.53,1.2,10,10,0,0,1-4.83-1,19,19,0,0,0-3.68-1.16,12.41,12.41,0,0,0-2.57-.28Z"/></g><path id="Path_700" data-name="Path 700" class="cls-20" d="M94.58,48.34A13.69,13.69,0,0,1,75.31,67.62l0,.06a13.69,13.69,0,0,0,21-17.55A14.49,14.49,0,0,0,94.58,48.34Z"/><path id="Path_701" data-name="Path 701" class="cls-21" d="M97.53,59.37a14.81,14.81,0,1,0,0,.08Z"/><path id="Path_702" data-name="Path 702" class="cls-22" d="M88.46,57.73a24.66,24.66,0,0,0-2.62-1.18,5.61,5.61,0,0,1-1.43-.81,1.25,1.25,0,0,1,.31-2.23,2.61,2.61,0,0,1,.88-.18,6.65,6.65,0,0,1,3.31.66c.52.25.7.17.87-.37s.34-1.16.51-1.74a.6.6,0,0,0-.33-.79l-.06,0a8.54,8.54,0,0,0-2.09-.63c-1-.14-1-.15-1-1.1,0-1.34,0-1.34-1.35-1.34h-.59c-.63,0-.73.13-.75.76,0,.28,0,.57,0,.86,0,.84,0,.82-.81,1.12a4.47,4.47,0,0,0-3.28,4.16A4.23,4.23,0,0,0,82.49,59a25.43,25.43,0,0,0,3,1.36,4.46,4.46,0,0,1,1.1.64,1.5,1.5,0,0,1,.35,2.1,1.42,1.42,0,0,1-.71.54,3.53,3.53,0,0,1-1.93.25,8.46,8.46,0,0,1-3-.88c-.54-.28-.7-.21-.89.38s-.3,1-.44,1.54c-.19.69-.12.85.54,1.18a9.43,9.43,0,0,0,2.66.76c.71.11.74.14.74.89,0,.33,0,.67,0,1a.61.61,0,0,0,.51.68.33.33,0,0,0,.14,0c.5,0,1,0,1.49,0a.57.57,0,0,0,.62-.51v-.13c0-.46,0-.92,0-1.38a.73.73,0,0,1,.61-.83h0A5,5,0,0,0,90,64.89a4.72,4.72,0,0,0-1.52-7.16Z"/><path id="Path_703" data-name="Path 703" class="cls-23" d="M90.72,62.45a1,1,0,0,0,.52.76,1.1,1.1,0,0,0,.61,2.08,1.06,1.06,0,0,0,0,.92c.34.64,1.43.73,2.45.2s1.58-1.48,1.25-2.12a1.07,1.07,0,0,0-.86-.52.82.82,0,0,0-.24-.8,1.07,1.07,0,0,0,.44-.91c-.06-.72-1-1.21-2.2-1.1S90.65,61.74,90.72,62.45Z"/><path id="Path_704" data-name="Path 704" class="cls-13" d="M100.37,58c-.06.61-1.22.86-4.13,1.63a3.56,3.56,0,0,0-2.89,3.61,3.15,3.15,0,0,0,2.79,2.92c.42,0,.83.06,1.25.06,3.26,0,7.46-2,8.11-4.7a6,6,0,0,0-2.24-6.32l-.85.43Z"/><g id="Group_306" data-name="Group 306"><path id="Path_705" data-name="Path 705" class="cls-14" d="M97.34,66.63a10.36,10.36,0,0,1-1.25-.06,3.62,3.62,0,0,1-3.2-3.37,4,4,0,0,1,3.24-4.07l.77-.2c1.49-.39,2.9-.76,3-1a.48.48,0,0,1,.51-.43.47.47,0,0,1,.42.5h0c-.07.89-1.06,1.15-3.7,1.85l-.77.2a3.09,3.09,0,0,0-2.54,3.15,2.67,2.67,0,0,0,2.37,2.46c.4,0,.8,0,1.2,0,3.06,0,7.07-1.91,7.66-4.34a5.56,5.56,0,0,0-2.31-6,.47.47,0,0,1-.13-.64.45.45,0,0,1,.62-.15,6.57,6.57,0,0,1,2.72,7,6.13,6.13,0,0,1-3.3,3.65,11.54,11.54,0,0,1-5.26,1.4Z"/></g><path id="Path_706" data-name="Path 706" class="cls-23" d="M81,62.45a1.06,1.06,0,0,1-.52.76,1.1,1.1,0,0,1-.61,2.08,1.06,1.06,0,0,1,0,.92c-.33.64-1.43.73-2.45.2s-1.58-1.48-1.25-2.12a1.11,1.11,0,0,1,.87-.52.84.84,0,0,1,.23-.8,1.09,1.09,0,0,1-.44-.91c.07-.72,1.05-1.21,2.2-1.1S81.07,61.74,81,62.45Z"/><path id="Path_707" data-name="Path 707" class="cls-13" d="M71.4,57.42c.06.62,1.17,1.39,4.07,2.16a3.57,3.57,0,0,1,2.9,3.61,3.15,3.15,0,0,1-2.79,2.92q-.63.06-1.26.06c-3.26,0-7.45-2-8.11-4.7a6.12,6.12,0,0,1,2.31-6.24l.17-.13,1,.5Z"/><g id="Group_307" data-name="Group 307"><path id="Path_708" data-name="Path 708" class="cls-14" d="M74.38,66.63h-.06a11.72,11.72,0,0,1-5.25-1.4,6.21,6.21,0,0,1-3.31-3.65c-1.12-4.58,3.08-7.16,3.12-7.18a.46.46,0,0,1,.64.16.47.47,0,0,1-.16.64c-.15.09-3.64,2.25-2.69,6.16.59,2.43,4.6,4.33,7.66,4.34q.6,0,1.2-.06a2.65,2.65,0,0,0,2.37-2.45A3.11,3.11,0,0,0,75.35,60c-2.88-.77-4.33-1.61-4.41-2.57a.47.47,0,0,1,.93-.08s.11.79,3.72,1.75a4,4,0,0,1,3.24,4.07,3.62,3.62,0,0,1-3.2,3.37C75.22,66.61,74.8,66.63,74.38,66.63Z"/></g><g id="Group_308" data-name="Group 308"><path id="Path_709" data-name="Path 709" class="cls-14" d="M111.85,41h-.13a.56.56,0,0,1-.42-.67h0a7.5,7.5,0,0,0-.23-3.55.56.56,0,1,1,1-.42l0,0a8.52,8.52,0,0,1,.26,4.16A.55.55,0,0,1,111.85,41Z"/></g><g id="Group_309" data-name="Group 309"><path id="Path_710" data-name="Path 710" class="cls-14" d="M110.86,33.93a.56.56,0,0,1-.55-.46A9.49,9.49,0,0,0,109.19,30a.56.56,0,0,1,.91-.65,10,10,0,0,1,1.31,3.89.57.57,0,0,1-.45.65h-.1Z"/></g><g id="Group_310" data-name="Group 310"><path id="Path_711" data-name="Path 711" class="cls-14" d="M59.93,42.08a.57.57,0,0,1-.54-.4,14.64,14.64,0,0,1,.06-6.9.56.56,0,1,1,1.08.29,13.74,13.74,0,0,0-.07,6.28.56.56,0,0,1-.37.7l-.16,0Z"/></g><g id="Group_311" data-name="Group 311"><path id="Path_712" data-name="Path 712" class="cls-14" d="M84.43,12.43a2.08,2.08,0,0,1-.5-.07c-.53-.14-3.18-1-3.81-5.41a.56.56,0,0,1,.47-.64.56.56,0,0,1,.63.48c.57,3.93,2.87,4.46,3.18,4.52a.56.56,0,0,1,.71.36.59.59,0,0,1-.09.51A.71.71,0,0,1,84.43,12.43Zm-.3-.93Zm0,0Z"/></g><g id="Group_312" data-name="Group 312"><path id="Path_713" data-name="Path 713" class="cls-14" d="M87,12.37a.56.56,0,0,1-.5-.32c-.17-.34-1.58-3.4.17-4.53a1.42,1.42,0,0,1,1.26-.2A2.8,2.8,0,0,1,89.35,8.9a.56.56,0,0,1-.32.72.54.54,0,0,1-.72-.31c-.11-.26-.43-.83-.76-.93a.34.34,0,0,0-.31.07c-.74.48-.16,2.3.23,3.11a.57.57,0,0,1-.27.75.59.59,0,0,1-.23,0Z"/></g><g id="Group_313" data-name="Group 313"><path id="Path_714" data-name="Path 714" class="cls-14" d="M77.26,16.07a.56.56,0,0,1-.56-.56.61.61,0,0,1,.08-.3,8.66,8.66,0,0,1,6.76-4h0a.56.56,0,0,1,.56.56.54.54,0,0,1-.55.56,7.51,7.51,0,0,0-5.83,3.49A.56.56,0,0,1,77.26,16.07Z"/></g><g id="Group_314" data-name="Group 314"><path id="Path_715" data-name="Path 715" class="cls-14" d="M84.41,17.73a.56.56,0,0,1-.55-.46,8.39,8.39,0,0,1,.88-5.36.55.55,0,0,1,.76-.19.55.55,0,0,1,.2.76h0A7.3,7.3,0,0,0,85,17.07a.57.57,0,0,1-.45.65h-.11Z"/></g><g id="Group_315" data-name="Group 315"><path id="Path_716" data-name="Path 716" class="cls-14" d="M91,16.07a.56.56,0,0,1-.56-.56h0a4.94,4.94,0,0,0-1.59-2.86.56.56,0,0,1,0-.79.56.56,0,0,1,.79,0c.08.07,1.94,1.82,1.94,3.68A.56.56,0,0,1,91,16.07Z"/></g><g id="Group_316" data-name="Group 316"><path id="Path_717" data-name="Path 717" class="cls-13" d="M100.19,63.47a5.92,5.92,0,0,1-3.65.57"/><path id="Path_718" data-name="Path 718" class="cls-14" d="M97.49,64.67a7.15,7.15,0,0,1-1-.08.56.56,0,0,1,.16-1.11A5.31,5.31,0,0,0,99.9,63a.57.57,0,0,1,.77.2.56.56,0,0,1-.2.76h0A6.19,6.19,0,0,1,97.49,64.67Z"/></g><g id="Group_317" data-name="Group 317"><path id="Path_719" data-name="Path 719" class="cls-13" d="M101.38,60a3.65,3.65,0,0,1-3,1.41"/><path id="Path_720" data-name="Path 720" class="cls-14" d="M98.36,62a.56.56,0,0,1,0-1.12,3.09,3.09,0,0,0,2.55-1.16.56.56,0,1,1,.94.62h0A4.24,4.24,0,0,1,98.36,62Z"/></g><g id="Group_318" data-name="Group 318"><path id="Path_721" data-name="Path 721" class="cls-13" d="M67.83,58.61a3.1,3.1,0,0,0,1.29,3.73"/><path id="Path_722" data-name="Path 722" class="cls-14" d="M69.12,62.9a.53.53,0,0,1-.3-.09,3.64,3.64,0,0,1-1.51-4.41.56.56,0,0,1,.72-.32.57.57,0,0,1,.32.73,2.56,2.56,0,0,0,1.07,3.06.55.55,0,0,1,.17.77.56.56,0,0,1-.47.26Z"/></g><g id="Group_319" data-name="Group 319"><path id="Path_723" data-name="Path 723" class="cls-13" d="M71.53,63.47a5.88,5.88,0,0,0,3.64.57"/><path id="Path_724" data-name="Path 724" class="cls-14" d="M74.22,64.67a6.22,6.22,0,0,1-3-.72.55.55,0,0,1-.19-.76.57.57,0,0,1,.77-.2h0a5.29,5.29,0,0,0,3.27.49.56.56,0,1,1,.17,1.11A7.17,7.17,0,0,1,74.22,64.67Z"/></g><g id="Group_320" data-name="Group 320"><path id="Path_725" data-name="Path 725" class="cls-13" d="M70.34,60a3.64,3.64,0,0,0,3,1.41"/><path id="Path_726" data-name="Path 726" class="cls-14" d="M73.35,62a4.22,4.22,0,0,1-3.48-1.66.56.56,0,0,1,.16-.78.55.55,0,0,1,.77.16h0a3.12,3.12,0,0,0,2.55,1.16.57.57,0,0,1,.56.56A.56.56,0,0,1,73.35,62Z"/></g><g id="Group_321" data-name="Group 321"><path id="Path_727" data-name="Path 727" class="cls-14" d="M72.57,20.52A.56.56,0,0,1,72,20a.53.53,0,0,1,.07-.28,7.68,7.68,0,0,1,2.64-3,.56.56,0,0,1,.75.24.57.57,0,0,1-.24.76h0a7,7,0,0,0-2.18,2.58A.56.56,0,0,1,72.57,20.52Z"/></g><g id="Group_322" data-name="Group 322"><path id="Path_728" data-name="Path 728" class="cls-14" d="M60.86,30.28l-.12,0a.55.55,0,0,1-.42-.67h0a22,22,0,0,1,2.17-5.41.57.57,0,0,1,.77-.21.58.58,0,0,1,.2.77,21.27,21.27,0,0,0-2.05,5.1A.59.59,0,0,1,60.86,30.28Z"/></g><g id="Group_323" data-name="Group 323"><path id="Path_729" data-name="Path 729" class="cls-14" d="M108.29,27.17a.55.55,0,0,1-.5-.32,15.87,15.87,0,0,0-3.49-4.8,9.88,9.88,0,0,0-1.88-1.4.56.56,0,0,1-.25-.75.57.57,0,0,1,.76-.25h0a14.91,14.91,0,0,1,5.87,6.72.57.57,0,0,1-.27.75.46.46,0,0,1-.23.05Z"/></g><g id="Group_324" data-name="Group 324"><path id="Path_730" data-name="Path 730" class="cls-14" d="M66.22,20.94a.56.56,0,0,1-.47-.86,12.15,12.15,0,0,1,4.63-4,.56.56,0,0,1,.48,1,11.12,11.12,0,0,0-4.17,3.56A.55.55,0,0,1,66.22,20.94Z"/></g><path id="Path_731" data-name="Path 731" class="cls-21" d="M85.6,12.59A24.27,24.27,0,0,1,77,11.19a.74.74,0,0,1,.56-1.38,26.71,26.71,0,0,0,16.19.08.74.74,0,0,1,.94.47.73.73,0,0,1-.46.94l-.06,0A29.85,29.85,0,0,1,85.6,12.59Z"/><path id="Path_732" data-name="Path 732" class="cls-21" d="M98,18a.73.73,0,0,1-.71-.53,8.6,8.6,0,0,0-3.78-4.84,5.64,5.64,0,0,1,.13,3.47.74.74,0,0,1-.92.5.75.75,0,0,1-.51-.93l0-.08c.47-1.28-.42-3.38-.8-4.08a.74.74,0,0,1,.31-1,.67.67,0,0,1,.55-.06,10,10,0,0,1,6.41,6.6.74.74,0,0,1-.49.93A.78.78,0,0,1,98,18Z"/></g></svg>