<?xml version="1.0" encoding="utf-8"?>
<!-- Generator: Adobe Illustrator 23.0.3, SVG Export Plug-In . SVG Version: 6.00 Build 0)  -->
<svg version="1.1" id="圖層_1" xmlns="http://www.w3.org/2000/svg" xmlns:xlink="http://www.w3.org/1999/xlink" x="0px" y="0px"
	 viewBox="0 0 324 72.6" style="enable-background:new 0 0 324 72.6;" xml:space="preserve">
<style type="text/css">
	.st0{fill:#63342C;}
	.st1{fill:#FFEDC6;}
	.st2{fill:#E46E47;}
	.st3{fill:#FFF6F2;}
	.st4{fill:#FFFCFA;}
	.st5{fill:#854D42;}
	.st6{fill:#FFCF63;}
	.st7{fill:#524C4A;}
	.st8{fill:#CC561B;}
	.st9{fill:#FFEDA6;}
	.st10{fill:#4D5972;}
	.st11{fill:#FFC318;}
	.st12{fill:#F37566;}
	.st13{fill:#D56541;}
	.st14{fill:#C15425;}
	.st15{fill:#FFE6D2;}
	.st16{fill:#662F2F;}
	.st17{fill:#A35F53;}
	.st18{fill:#F6ECF1;}
	.st19{fill:#EF8789;}
	.st20{fill:#F5993F;}
	.st21{fill:#F7B351;}
	.st22{fill:#F6E4BB;}
	.st23{fill:#716663;}
</style>
<g id="Group_1866">
	<path id="Path_260" class="st0" d="M168,43c-0.6,0-1.2-0.4-1.2-1.1c0,0,0,0,0,0c0-0.1,0-0.1,0-0.2l0.3-7.2c0-0.7,0.6-1.3,1.4-1.3
		c0.6,0,1.2,0.5,1.2,1.1c0,0,0,0,0,0c0,0.1,0,0.1,0,0.2l-0.4,7.2C169.3,42.4,168.8,43,168,43C168,43,168,43,168,43z M172,61
		c-0.7,0-1.3-0.6-1.4-1.3c0,0,0,0,0,0c0,0,0-0.1,0-0.1V26.9c-0.1-0.8,0.5-1.4,1.3-1.5c0.8-0.1,1.4,0.5,1.5,1.3c0,0.1,0,0.2,0,0.2
		v32.7c0,0.7-0.5,1.4-1.3,1.4c0,0,0,0,0,0L172,61z M174.3,33.3c-0.1-0.7,0.3-1.3,1-1.4h0.2c0.8,0,1.4,0.6,1.4,1.3l0,0l0.3,2.6
		c0.1,0.6-0.4,1.2-1,1.3c-0.1,0-0.1,0-0.2,0c-0.8,0-1.5-0.5-1.6-1.3L174.3,33.3z M184,25.5c0.7,0,1.3,0.5,1.3,1.2v0.8
		c0,0.3,0.3,0.6,0.6,0.6h2.4c0.7,0,1.3,0.6,1.4,1.3v0.1c0,0.7-0.5,1.3-1.2,1.4h-2.3c-0.5,0-0.9,0.4-0.9,0.9v0.9
		c0,0.5,0.4,0.9,0.9,0.9c0,0,0,0,0,0h0.3c1.6,0,2.9,1.3,2.9,2.8v6c0,1.2-0.9,2.2-2.1,2.2c0,0,0,0,0,0h-0.1c-0.3,0-0.5,0.2-0.5,0.5
		c0,0,0,0,0,0c0,0,0,0.1,0,0.1l2.2,5.8c0.2,0.5-0.1,1-0.5,1.2c-0.1,0-0.2,0.1-0.3,0.1c-0.8,0-1.6-0.5-1.9-1.3l-0.4-1.1
		c0-0.1-0.1-0.2-0.2-0.2c-0.1,0-0.2,0.1-0.2,0.2c0,0,0,0,0,0v9.5c-0.1,0.7-0.7,1.2-1.4,1.2c-0.6-0.1-1.1-0.6-1.2-1.2v-7.8
		c0-0.2-0.4-0.2-0.4,0l-1.1,3.2c-0.3,0.8-1,1.3-1.8,1.3c-0.5,0-0.9-0.4-1-0.9c0-0.1,0-0.3,0-0.4l3.1-9.7c0.1-0.3-0.1-0.6-0.4-0.7
		h-0.1c-1.3,0-2.4-1-2.5-2.3c0,0,0,0,0,0c0,0,0-0.1,0-0.1v-5.7c-0.1-1.6,1.2-2.9,2.7-2.9c0,0,0,0,0,0h0.6c0.5-0.1,0.8-0.5,0.9-0.9
		v-0.9c0-0.5-0.4-0.8-0.9-0.9h-2.3c-0.7,0-1.3-0.5-1.3-1.2c0,0,0,0,0,0v-0.1c0-0.7,0.6-1.3,1.3-1.4h2.6c0.3,0,0.6-0.3,0.6-0.6v-0.7
		c0-0.7,0.5-1.3,1.1-1.3c0,0,0,0,0,0L184,25.5z M182,36.3c-0.4,0-0.7,0.3-0.8,0.7v4.2c0,0.4,0.4,0.7,0.8,0.7c0.4,0,0.7-0.3,0.7-0.7
		V37C182.7,36.6,182.4,36.3,182,36.3z M186.7,37c0.1-0.4-0.2-0.8-0.6-0.8s-0.8,0.2-0.8,0.6c0,0,0,0.1,0,0.1c0,0,0,0.1,0,0.1v4.3
		c0,0.4,0.4,0.7,0.8,0.6c0.3,0,0.6-0.3,0.6-0.6V37z M193.5,34.5c-0.5,0-0.9-0.5-0.9-1c0-0.1,0-0.2,0-0.3l1.1-4.1
		c0.1-0.3-0.1-0.6-0.4-0.6c0,0,0,0,0,0h-0.7c-0.7,0-1.3-0.5-1.3-1.2c0,0,0,0,0,0v-0.1c0-0.7,0.5-1.3,1.2-1.3h7.9
		c1.5,0,2.8,1.2,2.8,2.7v0.2l-0.1,4.8c0,0.7-0.6,1.2-1.3,1.2l0,0c-0.6,0-1.2-0.4-1.2-1.1c0,0,0,0,0,0c0,0,0-0.1,0-0.1l0.1-4.3
		c0-0.5-0.4-0.8-0.8-0.9h-2.4c-0.5,0-0.9,0.3-1.1,0.8l-1.2,3.9C194.9,34,194.2,34.5,193.5,34.5L193.5,34.5z M192.7,60.5
		c-0.6,0-1-0.4-1-1c0-0.1,0-0.3,0.1-0.4l0.1-0.2c0.3-0.8,1.2-1.4,2.1-1.4c0.6,0,1,0.4,1,1c0,0.1,0,0.3-0.1,0.4l-0.1,0.2
		C194.4,59.9,193.6,60.5,192.7,60.5L192.7,60.5z M194.7,54.9c-1.6,0.1-2.9-1.2-3-2.8c0,0,0-0.1,0-0.1V39.7c0-1.6,1.2-2.9,2.8-2.9
		c0,0,0,0,0,0h5.6c1.6,0,2.8,1.2,2.9,2.8v12.3c0.1,1.6-1.1,2.9-2.7,3c0,0,0,0,0,0H194.7L194.7,54.9z M200.6,40.3
		c0-0.5-0.4-0.9-0.9-0.9h-4.5c-0.5,0-0.8,0.4-0.9,0.9V41c0,0.5,0.4,0.8,0.9,0.9h4.5c0.5,0,0.8-0.4,0.9-0.9V40.3z M194.3,46.2
		c0,0.5,0.4,0.9,0.9,0.9h4.5c0.5,0,0.9-0.4,0.9-0.9v-0.7c-0.1-0.5-0.4-0.8-0.9-0.9h-4.5c-0.5,0-0.8,0.4-0.9,0.9V46.2z M194.3,51.4
		c0,0.5,0.4,0.8,0.9,0.9h4.5c0.5,0,0.8-0.4,0.9-0.9v-0.8c0-0.5-0.4-0.9-0.9-0.9h-4.5c-0.5,0-0.8,0.4-0.9,0.9V51.4z M201.1,57.4
		c0.9,0,1.8,0.5,2.1,1.4l0.1,0.2c0.2,0.5,0,1.1-0.5,1.3c0,0,0,0,0,0c-0.1,0.1-0.2,0.1-0.4,0.1c-0.9,0-1.7-0.6-2.1-1.4l-0.1-0.2
		c-0.2-0.5,0-1.1,0.5-1.3c0,0,0,0,0,0C200.8,57.4,200.9,57.4,201.1,57.4z"/>
	<path id="Path_261" class="st0" d="M263.7,32.8c0,1-0.8,1.8-1.8,1.8h-12.1c-1,0-1.8-0.8-1.8-1.8c0-1,0.8-1.8,1.8-1.8h12.1
		C262.9,31.1,263.7,31.9,263.7,32.8z M261.8,38.4c0,1-0.8,1.7-1.7,1.7c0,0,0,0,0,0h-8.3c-0.9-0.1-1.6-0.9-1.6-1.8
		c0.1-0.8,0.7-1.5,1.6-1.6h8.3C260.9,36.7,261.7,37.4,261.8,38.4L261.8,38.4z M261.8,43.8c0,0.9-0.8,1.7-1.7,1.7h-8.4
		c-0.9,0.1-1.7-0.6-1.8-1.6s0.6-1.7,1.6-1.8c0.1,0,0.2,0,0.3,0h8.4C261,42.1,261.8,42.9,261.8,43.8L261.8,43.8z M261.3,27.4
		c0,0.9-0.8,1.7-1.7,1.7h-7.4c-0.9,0-1.7-0.8-1.7-1.7c0-0.9,0.7-1.7,1.6-1.7c0,0,0,0,0,0h7.4C260.5,25.7,261.3,26.5,261.3,27.4
		L261.3,27.4z M283.7,57.9c0,1-0.8,1.8-1.9,1.8h-13.2c-1.6,0-3-1.3-3-2.9c0,0,0,0,0-0.1V40.5c0-1.6,1.3-3,2.9-3h7.1
		c0.5,0,0.9-0.3,1-0.8l1.1-6.2c0.1-0.4-0.2-0.7-0.5-0.8c0,0,0,0,0,0h-9.8c-1,0-1.8-0.8-1.8-1.8s0.8-1.8,1.8-1.8c0,0,0,0,0,0h12
		c1.4,0,2.5,1.1,2.5,2.5c0,0.1,0,0.3,0,0.4l-1.7,9.2c-0.3,1.7-1.8,2.9-3.5,2.9h-6.5c-0.4,0-0.8,0.4-0.8,0.8v13.4
		c0,0.4,0.4,0.8,0.8,0.8H282C283,56.1,283.8,56.9,283.7,57.9C283.8,57.9,283.8,57.9,283.7,57.9L283.7,57.9L283.7,57.9z"/>
	<path id="Path_262" class="st0" d="M294.6,25c0.9,0,1.6,0.7,1.6,1.6v3.3c0,0.4,0.3,0.8,0.8,0.8c0,0,0,0,0,0h0.7c1.7,0,3,1.3,3,3
		v15.1c-0.1,0.9-0.8,1.5-1.7,1.4c-0.8-0.1-1.4-0.7-1.4-1.4V34.4c0-0.4-0.3-0.7-0.7-0.7c0,0,0,0,0,0c-0.4,0-0.7,0.3-0.7,0.7v25
		c0,0.9-0.7,1.6-1.6,1.6c-0.9,0-1.6-0.7-1.6-1.6l0,0v-25c0-0.4-0.3-0.7-0.7-0.7c-0.4,0-0.7,0.3-0.7,0.7v14.4c0,0.9-0.7,1.6-1.6,1.6
		c-0.9,0-1.6-0.7-1.6-1.6c0,0,0,0,0,0V33.6c0-1.7,1.3-3,3-3h0.7c0.4,0,0.8-0.3,0.8-0.8c0,0,0,0,0,0v-3.3
		C293.1,25.7,293.8,25,294.6,25C294.7,25,294.7,25,294.6,25L294.6,25z M324,44.4c0,0.9-0.8,1.6-1.7,1.6h-7.4c-0.3,0-0.5,0.3-0.5,0.6
		c0,0.1,0,0.1,0,0.2l1.4,2.6c0.1,0.1,0.2,0.2,0.3,0.1c0,0,0,0,0,0h0.1c0.7-0.5,1.5-0.8,2.4-0.8h1.4c0.5,0,0.9,0.4,0.9,0.9
		c0,0.3-0.1,0.5-0.3,0.7l-2.5,1.9c-0.4,0.3-0.5,0.8-0.3,1.2l3,5.8c0.3,0.6,0.1,1.3-0.5,1.6c0,0,0,0,0,0c-0.2,0.1-0.4,0.1-0.5,0.1
		c-1.2,0-2.3-0.7-2.8-1.7l-6.4-12.5c-0.2-0.4-0.7-0.7-1.1-0.7h-0.6c-0.4,0-0.8,0.4-0.8,0.8v10c0,0.2,0.2,0.5,0.5,0.5l0,0h0
		c0.9,0.1,1.6,0.9,1.6,1.8c-0.1,0.8-0.7,1.5-1.6,1.6h-1.1c-1.5,0-2.7-1.2-2.7-2.7V46.7c0-0.3-0.3-0.6-0.6-0.7h-0.7
		c-0.9,0-1.6-0.7-1.6-1.6c0-0.9,0.7-1.6,1.6-1.6c0,0,0,0,0,0h0.8c0.4,0,0.6-0.3,0.7-0.7V29c0-1.7,1.3-3,3-3h12.6
		c0.9,0,1.7,0.7,1.7,1.6c0,0,0,0,0,0l0,0c0,0.9-0.8,1.7-1.7,1.7H309c-0.4,0-0.8,0.3-0.8,0.8c0,0,0,0,0,0l0,0v0.6
		c0,0.4,0.4,0.8,0.8,0.8h10.1c0.9,0.1,1.6,0.9,1.6,1.8c-0.1,0.8-0.7,1.5-1.6,1.6H309c-0.4,0-0.8,0.3-0.8,0.8c0,0,0,0,0,0l0,0v0.7
		c0,0.4,0.3,0.8,0.8,0.8h10.1c0.9,0,1.7,0.8,1.7,1.7c0,0.9-0.7,1.7-1.6,1.7c0,0,0,0,0,0H309c-0.4,0-0.8,0.4-0.8,0.8V42
		c0,0.4,0.3,0.8,0.8,0.8h13.3C323.2,42.8,324,43.5,324,44.4L324,44.4z"/>
	<circle id="Ellipse_18" class="st1" cx="145.1" cy="44.8" r="5.9"/>
	
		<ellipse id="Ellipse_19" transform="matrix(0.1602 -0.9871 0.9871 0.1602 161.4509 297.4828)" class="st1" cx="255.6" cy="53.9" rx="6.7" ry="6.7"/>
	<g id="Group_31">
		<path id="Path_263" class="st0" d="M140.6,32h2c0.5,0.1,0.8,0.5,0.9,0.9v1.2c0,0.4-0.4,0.8-0.9,0.8h-1.2c-0.9,0-1.6,0.7-1.6,1.5
			c0,0,0,0,0,0v0.1c0,0.9,0.7,1.6,1.5,1.6h7.4c0.8,0,1.6-0.6,1.6-1.5c0,0,0,0,0,0v-0.1c0-0.9-0.6-1.6-1.5-1.6c0,0,0,0,0,0h-1.3
			c-0.5,0-0.8-0.4-0.9-0.8v-1.2c0-0.5,0.4-0.9,0.9-0.9h2c0.9,0.1,1.7-0.6,1.8-1.5c0.1-0.9-0.6-1.7-1.5-1.8c-0.1,0-0.2,0-0.3,0h-2.1
			c-0.4,0-0.7-0.3-0.7-0.7v-0.9c0-0.9-0.7-1.5-1.5-1.6c0,0,0,0,0,0h-0.1c-0.8,0-1.5,0.6-1.6,1.4c0,0,0,0,0,0c0,0,0,0.1,0,0.1V28
			c0,0.4-0.4,0.7-0.8,0.7h-2.1c-0.9,0.1-1.6,0.9-1.5,1.8C139.2,31.3,139.8,31.9,140.6,32L140.6,32z"/>
		<path id="Path_264" class="st0" d="M150.2,54.3c-0.2,0-0.4-0.1-0.4-0.4v-0.1v-0.5c0.2-0.7-0.3-1.5-1-1.7c-0.1,0-0.2,0-0.4,0
			c-1,0-1.9,0.7-2,1.7l-0.2,0.9c-0.1,0.4-0.5,0.8-0.9,0.9h-0.2c-0.5,0-0.9-0.3-1-0.7l-0.2-1c-0.2-1-1.1-1.8-2.1-1.8
			c-0.7,0-1.3,0.6-1.3,1.3c0,0.1,0,0.3,0.1,0.4l0.4,1.8c0.1,0.3-0.2,0.7-0.5,0.7l0,0l-0.4,0c-1,0.2-1.7,1-1.6,2
			c0,0.7,0.5,1.4,1.3,1.4c0,0,0,0,0,0c0.1,0,0.3,0,0.4,0l10.1-1.7c1-0.2,1.7-1,1.6-2l0,0c0-0.8-0.6-1.4-1.3-1.4L150.2,54.3z"/>
		<path id="Path_265" class="st0" d="M161.5,32.8c-0.3-0.1-0.4-0.3-0.5-0.5v-5.3c0-0.9-0.6-1.6-1.5-1.6c0,0,0,0,0,0h-0.1
			c-0.9,0-1.6,0.6-1.7,1.5c0,0,0,0,0,0c0,0,0,0.1,0,0.1v4.9c0,0.5-0.4,0.9-0.9,1h-3.5c-0.9-0.1-1.7,0.6-1.8,1.5
			c-0.1,0.9,0.6,1.7,1.5,1.8c0.1,0,0.2,0,0.3,0h3.4c0.5,0,0.9,0.4,0.9,0.9v22.3c0,0.9,0.7,1.7,1.5,1.7c0,0,0,0,0,0h0.1
			c0.9,0,1.6-0.7,1.6-1.5V36.5c0-0.2,0.2-0.4,0.5-0.5c0.7,0,1.3-0.5,1.3-1.2v-0.8c0-0.7-0.5-1.3-1.2-1.3c0,0,0,0,0,0H161.5z"/>
		<path id="Path_266" class="st0" d="M155.7,42.8c-0.3-0.9-1.2-1.6-2.1-1.6c-0.7,0-1.3,0.5-1.3,1.2c0,0,0,0,0,0c0,0.1,0,0.3,0,0.4
			l0.8,3.4c0.3,0.9,1.1,1.6,2.1,1.6c0.7,0.1,1.3-0.5,1.4-1.2c0-0.1,0-0.3,0-0.4L155.7,42.8z"/>
		<path id="Path_267" class="st0" d="M138.3,45.2l-2.8-9.2c0-0.3,0.2-0.5,0.4-0.5l0,0c0.9,0,1.6-0.6,1.6-1.5c0,0,0,0,0,0v-0.1
			c0-0.9-0.6-1.7-1.5-1.7h-0.6c-0.4,0-0.7-0.3-0.8-0.7v-4.6c0-0.9-0.7-1.6-1.6-1.6h0c-0.9,0-1.6,0.6-1.6,1.5c0,0,0,0,0,0v4.6
			c-0.1,0.5-0.4,0.8-0.9,0.9h-1.6c-0.9,0-1.7,0.8-1.7,1.7c0,0,0,0,0,0l0,0c0,0.9,0.7,1.6,1.6,1.6c0,0,0,0,0,0h1.1
			c0.3,0,0.6,0.3,0.7,0.6c0,0.1,0,0.1,0,0.2l-3.5,13.2c-0.2,0.7,0.2,1.4,0.8,1.6c0.1,0,0.3,0.1,0.4,0.1c1,0,1.9-0.7,2.2-1.7L131,48
			c0-0.2,0.4-0.2,0.4,0v11.3c-0.1,0.9,0.5,1.6,1.4,1.7c0,0,0.1,0,0.1,0h0.2c0.9,0,1.6-0.7,1.6-1.5c0,0,0,0,0,0v-15l0.7,2.3l0,0
			c0.4,0.8,1.3,1.2,2.2,0.9c0.8-0.3,1.2-1.2,0.9-2C138.4,45.5,138.4,45.4,138.3,45.2L138.3,45.2z"/>
	</g>
	<path id="Path_268" class="st0" d="M239,58.5l-8.3-3.4c-0.3-0.1-0.4-0.5-0.3-0.8l0.1-0.1l5.4-6.4c0.5-0.5,0.4-1.3-0.1-1.8
		c-0.2-0.2-0.5-0.3-0.9-0.3h-10.4c-0.1,0-0.2-0.1-0.2-0.2c0,0,0,0,0,0c0-0.1,0-0.1,0.1-0.2c0.3-0.3,0.4-0.8,0.1-1.2c0,0,0,0,0,0
		c-0.2-0.2-0.4-0.3-0.6-0.3l0,0c-1.4,0-2.8,0.5-3.9,1.5l-7.4,6.5c-0.3,0.3-0.4,0.8-0.1,1.1c0,0,0,0,0,0c0.2,0.2,0.4,0.3,0.7,0.3
		c1.4,0,2.8-0.5,3.9-1.4l1.9-1.7c0.3-0.3,0.8-0.3,1.1,0l3.7,3.7c0.2,0.2,0.2,0.5,0,0.7c0,0.1-0.1,0.1-0.2,0.1l-10,3.6l0,0
		c-0.1,0-0.3,0.1-0.4,0.2l-0.2,0.1c-0.5,0.3-0.7,0.9-0.4,1.3c0,0.1,0.1,0.2,0.2,0.2c0.2,0.2,0.5,0.3,0.9,0.4h0.1
		c1.1,0.1,2.2,0,3.2-0.2c1-0.2,2-0.4,3-0.8l6.4-2.5c0.4-0.2,0.9-0.2,1.4,0c2.7,1.5,5.5,2.6,8.4,3.3c1,0.2,2.4,0.6,3.3-0.2
		c0.2-0.2,0.3-0.4,0.3-0.7C239.5,59.1,239.3,58.7,239,58.5z M227.3,53.1L227.3,53.1L227.3,53.1l-4.2-4.1c-0.1-0.1-0.1-0.3,0-0.4
		c0.1-0.1,0.1-0.1,0.2-0.1h7.1c0.2,0,0.3,0.2,0.4,0.3c0,0.1,0,0.1-0.1,0.2L227.3,53.1z M216.1,41.8l0.6-2.1c0.2-0.6-0.2-1.3-0.8-1.5
		c-0.1,0-0.2,0-0.3,0c-0.9,0-1.8,0.6-2,1.5l-0.6,2.1c-0.2,0.6,0.2,1.2,0.8,1.4c0.1,0,0.2,0,0.3,0C214.9,43.3,215.7,42.8,216.1,41.8
		L216.1,41.8z M239.2,31.8h-4.4c-0.2,0-0.4-0.2-0.4-0.5c0-0.1,0-0.1,0.1-0.2l1.3-2.2c0.2-0.4,0.6-0.7,1.1-0.7h1.3
		c0.8,0,1.5-0.7,1.5-1.6c0-0.8-0.6-1.4-1.4-1.4c0,0,0,0,0,0H238l-25,1.1c-0.9,0-1.5,0.7-1.5,1.6c0,0.8,0.7,1.4,1.5,1.4h0.1l1.8-0.1
		c0.4,0,0.8,0.2,1,0.6l0.6,1.3c0.1,0.2,0,0.5-0.2,0.6c0,0,0,0,0,0H216h-3.9c-1.5,0-2.8,1.2-2.8,2.7v3.9c-0.1,0.9,0.6,1.6,1.4,1.7
		c0.9,0.1,1.6-0.6,1.7-1.4c0-0.1,0-0.2,0-0.3l0,0v-3c0-0.4,0.3-0.7,0.7-0.7h24.9c0.4,0,0.7,0.3,0.7,0.7v3c0,0.9,0.7,1.6,1.5,1.6
		c0.9,0,1.6-0.7,1.6-1.5v-4C241.9,33.1,240.7,31.9,239.2,31.8L239.2,31.8z M222.7,31.8H221c-0.5,0-0.9-0.3-1.1-0.7l-0.7-1.5
		c-0.1-0.2,0-0.5,0.2-0.6c0,0,0,0,0,0c0.1,0,0.2-0.1,0.2-0.1l1.7-0.1c0.4,0,0.8,0.2,1,0.6l0.8,1.6c0.1,0.2,0.1,0.5-0.1,0.6
		C222.9,31.8,222.8,31.9,222.7,31.8L222.7,31.8z M232,29.1l-1.2,2c-0.2,0.4-0.6,0.7-1.1,0.7h-2.1c-0.4,0-0.8-0.3-1-0.7l-0.9-1.7
		c-0.1-0.2-0.1-0.5,0.2-0.6c0.1,0,0.2-0.1,0.2-0.1l5.4-0.2c0.2,0,0.4,0.2,0.4,0.4C232.1,29,232.1,29,232,29.1L232,29.1z M238.1,43.3
		c0.6,0,1-0.4,1-1c0-0.2-0.1-0.3-0.1-0.5l-1.7-2.9c-0.5-0.9-1.5-1.5-2.6-1.5c-0.6,0-1,0.4-1,1c0,0.2,0,0.4,0.1,0.5l1.6,2.8
		C236,42.8,237,43.3,238.1,43.3L238.1,43.3z M219.7,35.3c-0.8,0-1.5,0.7-1.5,1.6v3.3c0,1.5,1.2,2.8,2.7,2.8c0,0,0,0,0,0h11.1
		c0.9-0.1,1.5-0.8,1.4-1.7c-0.1-0.8-0.7-1.4-1.4-1.4h-10.1c-0.4,0-0.7-0.3-0.7-0.6c0,0,0,0,0,0l0,0v-2.3
		C221.2,36.1,220.5,35.4,219.7,35.3C219.7,35.4,219.7,35.4,219.7,35.3L219.7,35.3L219.7,35.3z M228.4,38.7c0.5,0,0.9-0.4,0.9-0.9
		c0,0,0,0,0,0c0-0.2-0.1-0.4-0.2-0.6c-0.8-1-1.9-1.5-3.1-1.5c-0.5,0-0.9,0.5-0.9,1c0,0.2,0.1,0.4,0.2,0.5
		C226,38.2,227.2,38.7,228.4,38.7L228.4,38.7z"/>
	<circle id="Ellipse_20" class="st0" cx="319.7" cy="49" r="1.6"/>
	<path id="Path_269" class="st0" d="M318.8,47.6l-2.6,1.9l0.7,1.1l2.7-0.8v-1.2L318.8,47.6z"/>
	<g id="Group_326">
		<path id="Path_256" class="st2" d="M36.6,58.4c14.8,0.1,26.9-11.9,27-26.7c0.1-14.8-11.9-26.9-26.7-27c-2,0.2-3.9,0.2-5.9,0
			C16.2,4.3,3.9,16,3.5,30.9S14.9,58,29.7,58.4c0.3,0,0.7,0,1,0L36.6,58.4z"/>
		<path id="Path_257" class="st2" d="M36.5,0.6c-0.4-0.3-1-0.2-1.3,0.2C35,1,34.9,1.3,35,1.6l0,0c0.2,0.7,0.3,1.4,0.3,2.2
			c-1-1.5-2.6-3.3-4.3-3.8c-0.5-0.1-1,0.2-1.2,0.7c-0.1,0.2-0.1,0.4,0,0.6l0,0L30,1.6c0.4,0.9,0.7,1.8,0.9,2.8
			c-0.8-0.8-1.6-1.7-2.3-2.7c-0.3-0.4-0.9-0.5-1.3-0.2l0,0c-0.4,0.3-0.5,0.9-0.2,1.3l0,0c0.9,1.1,1.5,2.7,1.2,3.5
			c-0.1,0.2-0.3,0.5-1,0.7c-0.5,0.1-0.8,0.6-0.7,1.1c0.1,0.4,0.4,0.7,0.8,0.7l10.5,2L38,11c0.4,0,0.8-0.3,0.9-0.7
			c0.3-1.2,0.5-2.4,0.4-3.6C39.4,4.3,38.4,2.1,36.5,0.6z"/>
		<path id="Path_48" class="st3" d="M8.4,38c2.9,8.3,12.8,14.6,24.7,14.9s22.1-5.6,25.3-13.8c1-3.4,1.1-7,0.2-10.5
			c-1.2-3.3-3.3-6.2-6-8.4c-2.7-2.3-8.5-2.5-11.5-0.5l-3.1,2c-2.6,1.7-6,1.6-8.5-0.2l-3-2.1c-2.9-2.1-8.7-2.1-11.5,0
			c-2.8,2.1-5,4.9-6.4,8.1C7.6,30.9,7.5,34.5,8.4,38z"/>
		<g id="Path_49">
			<path id="Path_124" class="st0" d="M32.4,36.7c0.9,0,1.8-0.1,2.6-0.5c0.4-0.2,0.6-0.6,0.4-1.1c-0.1-0.3-0.4-0.5-0.7-0.5l-4.4-0.1
				c-0.4,0-0.8,0.3-0.8,0.8c0,0.3,0.2,0.6,0.5,0.8C30.7,36.5,31.6,36.7,32.4,36.7z"/>
			<path id="Path_125" class="st0" d="M32.4,36.9c-0.9,0-1.8-0.2-2.6-0.6c-0.5-0.2-0.7-0.8-0.5-1.2c0,0,0,0,0-0.1l0,0
				c0.2-0.3,0.5-0.6,0.9-0.5l4.4,0.1c0.5,0,0.9,0.4,0.9,0.9c0,0,0,0,0,0.1c0,0.4-0.2,0.7-0.6,0.8C34.2,36.7,33.3,36.9,32.4,36.9
				L32.4,36.9z M30.2,34.8c-0.4,0-0.7,0.3-0.7,0.7l0,0c0,0.3,0.2,0.5,0.4,0.6c0.8,0.4,1.6,0.5,2.5,0.6l0,0c0.9,0,1.7-0.1,2.5-0.5
				c0.3-0.1,0.5-0.5,0.4-0.9l0,0c-0.1-0.3-0.3-0.4-0.6-0.4L30.2,34.8z"/>
		</g>
		<circle id="Ellipse_4" class="st3" cx="47.6" cy="33.4" r="5.1"/>
		
			<ellipse id="Ellipse_5" transform="matrix(0.9542 -0.2992 0.2992 0.9542 -8.4345 7.9318)" class="st4" cx="21.7" cy="31.5" rx="1.8" ry="1.6"/>
		<path id="Path_50" class="st5" d="M8.2,27.9c2.8-0.7,5.7-1.2,8.7-1.4c3.6-0.2,8.1,0.1,10.6,2.8s-1.2,5-3.7,6.2
			c-4,1.9-8.3,2.9-12.1,5.1c-0.2,0.1-0.8,0.5-1.6,1c-0.9-1.3-1.6-2.8-2.1-4.3C7.4,34.3,7.5,31,8.2,27.9z"/>
		
			<ellipse id="Ellipse_6" transform="matrix(0.341 -0.9401 0.9401 0.341 -1.5778 61.7263)" class="st4" cx="43.2" cy="32" rx="1.5" ry="1.8"/>
		<path id="Path_51" class="st5" d="M58.9,29.1c-2.8-0.9-5.7-1.5-8.6-1.8c-3.6-0.3-8.1-0.2-10.7,2.4s1,5.1,3.4,6.3
			c3.9,2,8.2,3.3,11.8,5.7c0.2,0.1,0.8,0.5,1.6,1.1c0.9-1.3,1.7-2.7,2.3-4.2C59.5,35.4,59.6,32.2,58.9,29.1z"/>
		<g id="Path_83">
			<path id="Path_165" class="st0" d="M32,42.7c-1,0-2-0.1-3-0.4c-0.5-0.1-0.7-0.6-0.6-1.1c0.1-0.4,0.6-0.7,1-0.6l0,0
				c0.1,0,6.3,1.5,7.9-2.1c0.2-0.5,0.7-0.7,1.1-0.5c0,0,0,0,0,0c0.5,0.2,0.7,0.7,0.6,1.1c0,0,0,0,0,0v0.1l0,0c-0.9,2.1-3,3.3-6,3.5
				C32.7,42.7,32.3,42.8,32,42.7z"/>
		</g>
		<path id="Path_258" class="st6" d="M22.9,30.9c-0.6-0.3-1.3-0.6-1.9-0.9c-0.4-0.1-0.7-0.3-1.1-0.6c-0.4-0.3-0.5-0.9-0.2-1.3
			c0.1-0.2,0.3-0.3,0.5-0.4c0.2-0.1,0.4-0.1,0.6-0.1c0.8-0.1,1.7,0.1,2.4,0.5c0.4,0.2,0.5,0.1,0.6-0.3s0.2-0.9,0.4-1.3
			c0.1-0.2,0-0.4-0.2-0.6l0,0c-0.5-0.2-1-0.4-1.5-0.4c-0.7-0.1-0.7-0.1-0.7-0.8c0-1,0-1-1-1h-0.4c-0.5,0-0.5,0.1-0.5,0.6V25
			c0,0.6,0,0.6-0.6,0.8c-1.4,0.4-2.3,1.6-2.4,3.1c-0.1,1.3,0.6,2.5,1.8,3c0.7,0.4,1.5,0.7,2.2,1c0.3,0.1,0.6,0.3,0.8,0.5
			c0.5,0.4,0.6,1,0.3,1.5c0,0,0,0,0,0c-0.1,0.2-0.3,0.3-0.5,0.4c-0.4,0.2-0.9,0.3-1.4,0.2c-0.8-0.1-1.5-0.3-2.2-0.6
			c-0.4-0.2-0.5-0.2-0.6,0.3s-0.2,0.8-0.3,1.1s-0.1,0.6,0.4,0.9c0.6,0.3,1.3,0.5,2,0.5c0.5,0.1,0.5,0.1,0.6,0.6c0,0.2,0,0.5,0,0.7
			c0,0.2,0.1,0.5,0.4,0.5h0.1c0.4,0,0.7,0,1.1,0c0.2,0,0.4-0.2,0.5-0.4l0,0c0,0,0-0.1,0-0.1c0-0.3,0-0.7,0-1c0-0.3,0.2-0.6,0.5-0.6
			l0,0c0.8-0.2,1.4-0.6,1.9-1.2c1.2-1.5,0.9-3.7-0.6-4.8c-0.2-0.1-0.4-0.3-0.6-0.4L22.9,30.9z"/>
		<path id="Path_270" class="st6" d="M49,30.9c-0.6-0.3-1.3-0.6-2-0.9c-0.4-0.1-0.7-0.3-1-0.5c-0.4-0.3-0.5-0.9-0.2-1.3
			c0.1-0.2,0.3-0.3,0.5-0.4c0.2-0.1,0.4-0.1,0.6-0.1c0.8-0.1,1.7,0.1,2.4,0.5c0.4,0.2,0.5,0.1,0.6-0.3s0.2-0.9,0.4-1.3
			c0.1-0.2,0-0.5-0.3-0.6c0,0,0,0,0,0l0,0c-0.5-0.2-1-0.4-1.5-0.4c-0.7-0.1-0.7-0.1-0.7-0.8c0-1,0-1-1-1h-0.5
			c-0.5,0-0.5,0.1-0.5,0.6V25c0,0.6,0,0.6-0.6,0.8c-1.4,0.4-2.3,1.6-2.4,3.1c-0.1,1.3,0.6,2.5,1.8,3c0.7,0.4,1.5,0.7,2.2,1
			c0.3,0.1,0.6,0.3,0.8,0.5c0.5,0.4,0.6,1,0.3,1.5c0,0,0,0,0,0c-0.1,0.2-0.3,0.3-0.5,0.4c-0.4,0.2-0.9,0.3-1.4,0.2
			c-0.8-0.1-1.5-0.3-2.2-0.6c-0.4-0.2-0.5-0.2-0.7,0.3s-0.2,0.8-0.3,1.1s-0.1,0.6,0.4,0.9c0.6,0.3,1.3,0.5,2,0.5
			c0.5,0.1,0.5,0.1,0.6,0.6c0,0.2,0,0.5,0,0.7c0,0.2,0.1,0.5,0.4,0.5h0.1c0.4,0,0.7,0,1.1,0c0.2,0,0.4-0.2,0.5-0.4c0,0,0-0.1,0-0.1
			c0-0.3,0-0.7,0-1c0-0.3,0.1-0.6,0.4-0.6c0,0,0,0,0,0l0,0c0.7-0.2,1.4-0.6,1.9-1.2c1.2-1.5,0.9-3.7-0.6-4.8
			c-0.2-0.1-0.4-0.3-0.6-0.4L49,30.9z"/>
	</g>
	<g id="Group_341">
		<path id="Path_753" class="st2" d="M53.1,52.3l-18.3,1.6l-17.3-1.6l-3.1,15.6h42L53.1,52.3z"/>
		<path id="Path_754" class="st2" d="M56.4,68.5h-42c-0.3,0-0.6-0.3-0.6-0.6c0,0,0,0,0,0c0,0,0-0.1,0-0.1L17,52.2
			c0.1-0.3,0.3-0.5,0.6-0.5l17.2,1.6l18.2-1.6c0.3,0,0.6,0.2,0.6,0.5L57,67.8c0.1,0.3-0.1,0.6-0.5,0.7L56.4,68.5z M15.1,67.3h40.6
			l-3.1-14.4l-17.8,1.5h-0.1L18,52.9L15.1,67.3z"/>
	</g>
	<g id="Group_336">
		<g id="Group_332">
			<path id="Path_735" class="st7" d="M34.2,54.7c-2.3-0.5-4.1-2.2-4.8-4.4c0,0,0.2-1,3.9,2.2C33.4,52.5,36.3,54.2,34.2,54.7z"/>
			<path id="Path_736" class="st7" d="M35,54.6c0.1-0.1,0.2-0.2,0.2-0.4c0.1-0.8-1.3-1.7-1.7-1.9c-2.1-1.8-3.4-2.6-4-2.4
				c-0.1,0-0.3,0.2-0.3,0.3c0,0,0,0.1,0,0.1c0.7,2.3,2.6,4.1,5,4.6h0.1C34.6,54.9,34.8,54.8,35,54.6z M34.3,54.7l-4.6-4.3
				c0.2,0,1.1,0.2,3.5,2.3l0,0c0.8,0.4,1.5,1.1,1.5,1.4c0,0.1-0.2,0.2-0.5,0.3c-2.1-0.5-3.8-2-4.5-4.1L34.3,54.7z"/>
		</g>
		<g id="Group_333">
			<path id="Path_737" class="st7" d="M38.1,52.1c0.1-2.3-1-4.6-3-5.8c0,0-1,0,1.1,4.4C36.3,50.7,37.1,53.9,38.1,52.1z"/>
			<path id="Path_738" class="st7" d="M38,52.7c0.2-0.1,0.3-0.3,0.4-0.5c0,0,0-0.1,0-0.1c0.1-2.4-1-4.7-3.1-6.1c0,0-0.1,0-0.1,0
				c-0.2,0-0.3,0.1-0.4,0.2c-0.4,0.5,0,2,1.2,4.5c0.1,0.4,0.6,2,1.4,2.2C37.6,53,37.9,52.9,38,52.7z M37.9,52.1
				c-0.2,0.3-0.3,0.4-0.4,0.4c-0.3,0-0.8-1-1-1.8l0,0c-1.4-2.9-1.4-3.8-1.3-4C37,47.9,38,49.9,37.9,52.1L37.9,52.1z"/>
		</g>
		<g id="Group_334">
			<path id="Path_739" class="st7" d="M35.8,53.3c-2.2-0.9-3.7-2.9-4-5.2c0,0,0.4-0.9,3.5,2.9C35.3,51,37.9,53.2,35.8,53.3z"/>
			<path id="Path_740" class="st7" d="M36.6,53.3c0.1-0.1,0.2-0.2,0.2-0.3c0.2-0.8-1-1.9-1.3-2.2c-1.8-2.1-2.9-3.1-3.6-3
				c-0.2,0-0.3,0.1-0.4,0.2c0,0,0,0.1,0,0.1c0.3,2.4,1.9,4.4,4.2,5.4c0,0,0.1,0,0.1,0C36.1,53.6,36.4,53.5,36.6,53.3z M32.1,48.3
				c0.2,0,1,0.4,3.1,2.9l0,0c0.7,0.5,1.3,1.3,1.2,1.6c0,0.1-0.2,0.2-0.5,0.2C33.8,52.2,32.4,50.4,32.1,48.3L32.1,48.3z"/>
		</g>
		<g id="Group_335">
			<path id="Path_741" class="st2" d="M54,57.7c-5.9-1.3-11.5-3.8-16.5-7.2c-2.3-1.5-5.5,2.8-3.8,4.8c2,2.2,11.3,9,19,9.7l2.4,0.4"
				/>
			<path id="Path_742" class="st8" d="M55.5,65.9c0.3-0.2,0.3-0.7,0.1-0.9c-0.1-0.1-0.2-0.2-0.4-0.2l-2.4-0.4h0
				c-7.6-0.7-16.8-7.5-18.6-9.5c-0.7-0.8-0.2-2.2,0.6-3.1c0.2-0.2,1.3-1.4,2.3-0.7c5.1,3.5,10.7,6,16.7,7.3c0.4,0.1,0.7-0.1,0.9-0.4
				c0.1-0.4-0.1-0.7-0.4-0.9c0,0-0.1,0-0.1,0h-0.1c-5.8-1.3-11.3-3.7-16.2-7.1c-1.2-0.8-2.8-0.5-4.1,1c-1.6,1.8-1.5,3.8-0.6,4.8
				c2.3,2.2,4.8,4,7.5,5.6c3.1,1.8,7.6,4,11.9,4.4l2.4,0.4C55.2,66.2,55.4,66.1,55.5,65.9z"/>
		</g>
	</g>
	<g id="Group_337">
		<g id="Group_337-2">
			<path id="Path_743" class="st9" d="M21.7,64.4c0.3-0.2,0.6-0.2,0.9,0.1c0,0,0,0,0,0l0,0l0.2,0.2l-0.5-3.7l-3.9,3.1l3.5,1.4
				l-0.2-0.2C21.4,65.1,21.4,64.7,21.7,64.4L21.7,64.4z"/>
			<path id="Path_744" class="st10" d="M22.8,64.8l-0.2-0.2c-0.2-0.3-0.6-0.3-0.9-0.1c-0.3,0.2-0.3,0.6-0.1,0.9l0,0l0,0l0.2,0.2
				l1.2,0.5L22.8,64.8z"/>
			<path id="Path_745" class="st11" d="M7.6,42.6l-3.9,3.1l14.6,18.5l0,0l3.9-3l0,0L7.6,42.6z"/>
			<path id="Path_746" class="st12" d="M2.4,38l-2,1.5c-0.5,0.4-0.6,1.2-0.2,1.7c0,0,0,0,0,0l0,0l1.9,2.4l3.9-3.1l-1.9-2.4
				C3.7,37.7,3,37.6,2.4,38C2.4,38,2.4,38.1,2.4,38L2.4,38z"/>
			
				<rect id="Rectangle_95" x="2.4" y="42" transform="matrix(0.7848 -0.6198 0.6198 0.7848 -25.7232 12.3357)" class="st9" width="5" height="2.5"/>
		</g>
		<g id="Group_338">
			<path id="Path_747" class="st7" d="M14.1,60.7c2.6,0.5,5.3-0.5,7-2.5c0,0,0.2-1.1-5.1,0.6C15.9,58.8,12.1,59.2,14.1,60.7z"/>
			<path id="Path_748" class="st7" d="M15.3,61c-0.4,0-0.9,0-1.3-0.1c0,0-0.1,0-0.1,0c-0.5-0.4-0.7-0.8-0.6-1.2
				c0.2-0.9,2.2-1.2,2.6-1.2c3-1,4.7-1.2,5.3-0.7c0.1,0.1,0.2,0.3,0.2,0.5c0,0,0,0.1,0,0.1C19.8,60.1,17.6,61.1,15.3,61z M14.2,60.4
				c2.4,0.4,4.9-0.4,6.6-2.2C20.5,58,19.5,57.9,16,59h0c-1,0.1-2.1,0.5-2.2,0.8C13.8,60,13.9,60.1,14.2,60.4L14.2,60.4z"/>
		</g>
		<g id="Group_339">
			<path id="Path_749" class="st7" d="M12.1,57c1-2.1,3.1-3.5,5.4-3.6c0,0,0.9,0.5-3.1,3.3C14.4,56.6,12.1,59,12.1,57z"/>
			<path id="Path_750" class="st7" d="M12.6,58c-0.1,0-0.2,0-0.2,0c-0.3-0.1-0.5-0.5-0.5-1c0,0,0-0.1,0-0.1c1.1-2.2,3.2-3.6,5.6-3.8
				c0,0,0.1,0,0.1,0c0.1,0.1,0.2,0.2,0.2,0.4c0,0.7-1,1.7-3.3,3.3C14.3,57,13.3,58,12.6,58z M12.3,57c0,0.3,0.1,0.5,0.2,0.5
				c0.3,0.1,1.1-0.5,1.7-1.1l0,0c2.6-1.9,3-2.6,3.1-2.8C15.1,53.8,13.2,55.1,12.3,57L12.3,57z"/>
		</g>
		<g id="Group_340">
			<path id="Path_751" class="st7" d="M12.8,58.8c2.6,0.3,5.3-0.8,6.9-2.9c0,0,0.1-1.2-5.1,0.9C14.6,56.8,10.8,57.5,12.8,58.8z"/>
			<path id="Path_752" class="st7" d="M13.6,59.1c-0.3,0-0.5,0-0.8,0h-0.1c-0.5-0.3-0.8-0.7-0.7-1.1c0.2-0.9,2.1-1.3,2.5-1.4
				c2.9-1.2,4.6-1.5,5.2-1.1c0.1,0.1,0.2,0.3,0.2,0.4c0,0,0,0.1,0,0.1C18.4,58.1,16,59.2,13.6,59.1z M12.9,58.5
				c2.4,0.3,4.9-0.7,6.4-2.7c-0.2-0.1-1.2-0.2-4.6,1.2l0,0c-1,0.2-2.1,0.6-2.1,1C12.6,58.1,12.7,58.3,12.9,58.5L12.9,58.5z"/>
		</g>
	</g>
	<g id="Group_299">
		<path id="Path_684" class="st13" d="M102.6,62.3c1.3-0.8,1.8-2.3,1.3-3.7"/>
		<path id="Path_685" class="st14" d="M102.6,62.8c-0.3,0-0.5-0.2-0.5-0.5c0,0,0,0,0,0c0-0.2,0.1-0.3,0.2-0.4c1.1-0.7,1.5-2,1.1-3.2
			c-0.1-0.2,0-0.5,0.2-0.6c0.2-0.1,0.5,0,0.6,0.2c0,0,0,0,0,0l0,0c0.6,1.6,0,3.4-1.5,4.3C102.8,62.8,102.7,62.8,102.6,62.8z"/>
	</g>
	<g id="Group_300">
		<path id="Path_686" class="st13" d="M69.1,52.6v8.8l32.3,0.9l2.7-10.6L69.1,52.6z"/>
		<path id="Path_687" class="st14" d="M101.4,62.8L101.4,62.8l-32.3-0.9c-0.3,0-0.5-0.2-0.5-0.5v-8.8c0-0.3,0.2-0.5,0.5-0.5l35-0.9
			c0.1,0,0.3,0.1,0.4,0.2c0.1,0.1,0.1,0.3,0.1,0.4l-2.7,10.6C101.8,62.7,101.6,62.8,101.4,62.8z M69.6,61l31.4,0.9l2.4-9.7
			l-33.9,0.9L69.6,61z"/>
	</g>
	<g id="Group_301">
		<path id="Path_688" class="st13" d="M113.7,35.2c-1.9-11.9-9.3-21.1-20.7-23.9c1.1-1.8,2-5.3,2.4-6.4c0.3-0.7,0.4-4-2.5-4.1
			C91,0.7,90,2.2,89.3,3.3S87,4.4,86.7,2.6c-0.1-1.2-1.1-2.1-2.2-2c-1.2,0.2-2.2,1.2-2.4,2.4c-0.3,1.5-1.3,1.8-1.8,1.3
			c-1.3-1.6-2.6-2-3.7-1.3c-0.9,0.7-1.1,2-0.5,3c0.6,1.1,1.6,3.9,2.1,5.2c-11.3,2.4-18.6,10.7-20.6,24c-2,13.5,11.5,23.3,28,23.6
			C102.4,59.1,115.9,48.7,113.7,35.2z"/>
		<path id="Path_689" class="st13" d="M86.4,59.3h-0.8c-10.1-0.2-19.2-3.9-24.3-10c-3.4-3.9-4.9-9.1-4.1-14.2
			c1-6.7,3.3-12.2,6.9-16.3c3.5-4.1,8.3-6.9,13.5-8c-0.5-1.4-1.4-3.8-1.9-4.7c-0.6-1.2-0.5-2.9,0.7-3.6s2.9-0.3,4.3,1.4
			C80.7,4,80.8,4,80.9,4c0.2-0.1,0.6-0.4,0.7-1.1c0.2-1.4,1.4-2.5,2.8-2.7l0,0c1.4-0.1,2.6,1,2.7,2.3c0.1,0.6,0.4,1,0.8,1.1
			c0.4,0,0.8-0.2,1-0.5c0.7-1,1.8-2.8,4-2.7c1,0,1.9,0.5,2.5,1.3c0.6,1,0.7,2.2,0.4,3.4c-0.1,0.3-0.3,0.8-0.4,1.3
			c-0.4,1.6-1,3.2-1.7,4.7c10.8,2.9,18.5,11.9,20.4,24.1c0.9,5.3-0.7,10.8-4.3,14.8C104.7,55.8,96,59.3,86.4,59.3z M77.7,3.1
			c-0.3,0-0.6,0.1-0.8,0.2c-0.7,0.4-0.7,1.6-0.3,2.4c0.6,1.1,1.6,3.8,2.1,5.3c0.1,0.2,0,0.5-0.3,0.6h-0.1c-5.3,1-10,3.8-13.6,7.8
			c-3.5,4-5.7,9.4-6.7,15.8c-0.7,4.8,0.7,9.8,3.9,13.4c5,5.8,13.8,9.5,23.6,9.6c9.6,0.2,18.3-3.2,23.4-9.1c3.4-3.8,5-8.9,4.1-14
			c-2-12.1-9.6-20.9-20.3-23.5c-0.3-0.1-0.4-0.3-0.3-0.6c0,0,0-0.1,0-0.1c0.8-1.6,1.4-3.2,1.9-4.9c0.2-0.6,0.3-1.1,0.5-1.4
			c0.2-0.9,0.1-1.8-0.3-2.6c-0.4-0.6-1.1-0.9-1.8-0.9c-1.5-0.1-2.3,1-3.1,2.3c-0.4,0.7-1.2,1.1-1.9,1c-0.8-0.3-1.4-1-1.5-1.9
			c-0.2-1.1-0.8-1.6-1.8-1.6l0,0c-1,0.2-1.8,0.9-1.9,1.9c-0.1,0.8-0.6,1.6-1.4,1.9c-0.4,0.1-0.9,0-1.2-0.4
			C79.4,3.7,78.6,3.2,77.7,3.1L77.7,3.1z"/>
	</g>
	<g id="Group_302">
		<path id="Path_690" class="st15" d="M109.5,39.2c1.2,9.3-10.9,16.3-23.8,15.8c-12.4-0.5-25-6.4-23.4-15.8
			c1.5-8.9,4.8-18.7,15-16.6c4.2,0.9,4.6,2.2,8.4,2.1c3.3-0.1,3.9-1.2,6.6-2.1C102.9,19,108.3,30.5,109.5,39.2z"/>
		<path id="Path_691" class="st13" d="M87,55.5h-1.3c-9.3-0.4-17.8-3.7-21.6-8.4c-1.9-2.2-2.7-5.1-2.2-8c0.9-5.2,2.6-12.5,7.3-15.7
			c2.5-1.6,5.5-2.1,8.3-1.4c1.3,0.3,2.6,0.7,3.8,1.2c1.4,0.7,2.9,1,4.4,0.9c1.5,0,2.9-0.4,4.1-1.1c0.8-0.4,1.5-0.7,2.4-1
			c3.1-1.2,6.5-0.9,9.3,0.8c2.6,1.7,4.6,4.2,5.8,7c1.4,2.9,2.3,6,2.7,9.2c0.4,3.3-0.7,6.6-3.1,9C102.8,52.7,95,55.5,87,55.5z
			 M74.6,22.8c-1.8,0-3.5,0.5-5,1.5c-4.4,3-6,10-6.9,15c-0.4,2.6,0.3,5.2,2,7.2c3.7,4.5,11.9,7.7,21,8c8.3,0.3,16.3-2.5,20.5-7.1
			c2.1-2.2,3.1-5.1,2.8-8.1c-0.7-5.3-3.2-12.5-8.1-15.5c-2.6-1.5-5.7-1.8-8.5-0.7c-0.8,0.3-1.5,0.6-2.2,1c-1.4,0.8-2.9,1.2-4.5,1.2
			c-1.7,0.1-3.3-0.3-4.8-1c-1.2-0.5-2.4-0.9-3.7-1.2C76.3,22.9,75.5,22.8,74.6,22.8L74.6,22.8z"/>
	</g>
	<g id="Group_303">
		<path id="Path_692" class="st16" d="M85.9,44.1c-1.3,0-2.4-0.6-2.6-1.4c0-0.2,0.1-0.4,0.3-0.5c0.2,0,0.4,0.1,0.4,0.3
			c0.1,0.3,0.8,0.8,1.9,0.8s1.8-0.4,1.9-0.8c0-0.2,0.2-0.3,0.4-0.3s0.3,0.2,0.3,0.4c0,0,0,0,0,0l0,0C88.3,43.5,87.3,44.1,85.9,44.1z
			"/>
	</g>
	<g id="Group_304">
		<path id="Path_693" class="st16" d="M88.8,39c0,1-1.4,1.9-3.1,1.9S82.6,40,82.6,39s1.4-1.1,3.1-1.1S88.8,38,88.8,39z"/>
		<path id="Path_694" class="st16" d="M85.7,41c-1.8,0-3.2-0.9-3.2-2s1.4-1.3,3.2-1.3S89,37.8,89,39S87.5,41,85.7,41z M85.7,38
			c-1.9,0-2.9,0.2-2.9,1s1.3,1.8,2.9,1.8s3-0.8,3-1.8S87.7,38,85.7,38z"/>
	</g>
	<path id="Path_695" class="st17" d="M108.2,33.3c-2.6-0.7-13.5-3.7-16.5,1.2c-1.8,3,0.5,5.5,2.7,6.6c3.6,1.8,12.3,5.3,13.1,5.8
		C111.7,41.5,108.7,34.8,108.2,33.3z"/>
	
		<ellipse id="Ellipse_92" transform="matrix(0.3271 -0.945 0.945 0.3271 30.9704 117.4456)" class="st16" cx="97.9" cy="37" rx="4.1" ry="4.8"/>
	
		<ellipse id="Ellipse_93" transform="matrix(0.3271 -0.945 0.945 0.3271 30.3089 115.4386)" class="st18" cx="96.2" cy="36.4" rx="1.3" ry="1.5"/>
	<path id="Path_696" class="st17" d="M63.5,33.3c2.6-0.7,13.5-3.7,16.5,1.2c1.8,3-0.5,5.5-2.7,6.6c-3.6,1.8-12.3,5.3-13.1,5.8
		C60,41.5,63,34.8,63.5,33.3z"/>
	
		<ellipse id="Ellipse_94" transform="matrix(0.945 -0.3271 0.3271 0.945 -8.0341 26.1612)" class="st16" cx="73.8" cy="37" rx="4.8" ry="4"/>
	
		<ellipse id="Ellipse_95" transform="matrix(0.945 -0.3271 0.3271 0.945 -7.7634 26.7044)" class="st18" cx="75.5" cy="36.4" rx="1.5" ry="1.3"/>
	<path id="Path_697" class="st19" d="M108,45.9c-0.7,1.9-2.9,3.3-4.5,4.5c-2.5,0-4.5-2-4.5-4.5c0-2.5,2-4.5,4.5-4.5
		C106,41.4,108,43.4,108,45.9z"/>
	<path id="Path_698" class="st19" d="M63.5,45.9c0.7,1.9,2.9,3.3,4.5,4.5c2.5,0,4.5-2,4.5-4.5c0-2.5-2-4.5-4.5-4.5
		C65.5,41.4,63.5,43.4,63.5,45.9C63.5,45.9,63.5,45.9,63.5,45.9z"/>
	<g id="Group_305">
		<path id="Path_699" class="st13" d="M87,55.5h-1.3c-9.3-0.4-17.8-3.7-21.6-8.4c-1.9-2.2-2.7-5.1-2.2-8c0.9-5.2,2.6-12.5,7.3-15.7
			c2.5-1.6,5.5-2.1,8.3-1.4c1.3,0.3,2.6,0.7,3.8,1.2c1.4,0.7,2.9,1,4.4,0.9c1.5,0,2.9-0.4,4.1-1.1c0.8-0.4,1.5-0.7,2.4-1
			c3.1-1.2,6.5-0.9,9.3,0.8c2.6,1.7,4.6,4.2,5.8,7c1.4,2.9,2.3,6,2.7,9.2c0.4,3.3-0.7,6.6-3.1,9C102.8,52.7,95,55.5,87,55.5z
			 M74.6,22.8c-1.8,0-3.5,0.5-5,1.5c-4.4,3-6,10-6.9,15c-0.4,2.6,0.3,5.2,2,7.2c3.7,4.5,11.9,7.7,21,8c8.3,0.3,16.3-2.5,20.5-7.1
			c2.1-2.2,3.1-5.1,2.8-8.1c-0.7-5.3-3.2-12.5-8.1-15.5c-2.6-1.5-5.7-1.8-8.5-0.7c-0.8,0.3-1.5,0.6-2.2,1c-1.4,0.8-2.9,1.2-4.5,1.2
			c-1.7,0.1-3.3-0.3-4.8-1c-1.2-0.5-2.4-0.9-3.7-1.2C76.3,22.9,75.5,22.8,74.6,22.8L74.6,22.8z"/>
	</g>
	<path id="Path_700" class="st20" d="M94.6,48.3c4.8,5.8,4,14.5-1.8,19.3c-5.1,4.2-12.4,4.2-17.5,0v0.1c5,5.7,13.7,6.2,19.3,1.2
		c5.4-4.8,6.2-13,1.7-18.7C95.8,49.5,95.2,48.9,94.6,48.3z"/>
	<path id="Path_701" class="st21" d="M97.5,59.4c0-8.2-6.7-14.8-14.8-14.8c-8.2,0-14.8,6.7-14.8,14.8c0,8.2,6.7,14.8,14.8,14.8
		C90.9,74.2,97.5,67.6,97.5,59.4L97.5,59.4z"/>
	<path id="Path_702" class="st22" d="M88.5,57.7c-0.8-0.4-1.7-0.8-2.6-1.2c-0.5-0.2-1-0.5-1.4-0.8c-0.6-0.4-0.7-1.2-0.3-1.7
		c0.2-0.2,0.4-0.4,0.7-0.5c0.3-0.1,0.6-0.2,0.9-0.2c1.1-0.1,2.3,0.2,3.3,0.7c0.5,0.2,0.7,0.2,0.9-0.4s0.3-1.2,0.5-1.7
		c0.1-0.3,0-0.7-0.3-0.8c0,0,0,0,0,0h-0.1c-0.7-0.3-1.4-0.5-2.1-0.6c-1-0.1-1-0.2-1-1.1c0-1.3,0-1.3-1.3-1.3h-0.6
		c-0.6,0-0.7,0.1-0.8,0.8c0,0.3,0,0.6,0,0.9c0,0.8,0,0.8-0.8,1.1c-1.9,0.5-3.2,2.2-3.3,4.2c-0.1,1.7,0.9,3.4,2.5,4.1
		c1,0.5,2,1,3,1.4c0.4,0.2,0.8,0.4,1.1,0.6c0.7,0.5,0.8,1.4,0.4,2.1c0,0,0,0,0,0c-0.2,0.3-0.4,0.4-0.7,0.5c-0.6,0.3-1.3,0.3-1.9,0.2
		c-1-0.1-2.1-0.4-3-0.9c-0.5-0.3-0.7-0.2-0.9,0.4s-0.3,1-0.4,1.5c-0.2,0.7-0.1,0.8,0.5,1.2c0.8,0.4,1.7,0.6,2.7,0.8
		c0.7,0.1,0.7,0.1,0.7,0.9c0,0.3,0,0.7,0,1c0,0.3,0.2,0.6,0.5,0.7c0,0,0.1,0,0.1,0c0.5,0,1,0,1.5,0c0.3,0,0.6-0.2,0.6-0.5v-0.1
		c0-0.5,0-0.9,0-1.4c-0.1-0.4,0.2-0.8,0.6-0.8l0,0c1.1-0.3,2-0.9,2.7-1.7c1.6-2,1.3-5-0.7-6.6C89,58.1,88.8,57.9,88.5,57.7
		L88.5,57.7z"/>
	<path id="Path_703" class="st23" d="M90.7,62.5c0,0.3,0.2,0.6,0.5,0.8c-0.5,0.3-0.8,0.9-0.5,1.5c0.2,0.4,0.6,0.7,1.1,0.6
		c-0.1,0.3-0.1,0.6,0,0.9c0.3,0.6,1.4,0.7,2.4,0.2s1.6-1.5,1.2-2.1c-0.2-0.3-0.5-0.5-0.9-0.5c0.1-0.3,0-0.6-0.2-0.8
		c0.3-0.2,0.5-0.6,0.4-0.9c-0.1-0.7-1-1.2-2.2-1.1S90.7,61.7,90.7,62.5z"/>
	<path id="Path_704" class="st13" d="M100.4,58c-0.1,0.6-1.2,0.9-4.1,1.6c-1.7,0.3-2.9,1.9-2.9,3.6c0.1,1.5,1.3,2.7,2.8,2.9
		c0.4,0,0.8,0.1,1.2,0.1c3.3,0,7.5-2,8.1-4.7c0.6-2.4-0.3-4.9-2.2-6.3l-0.8,0.4L100.4,58z"/>
	<g id="Group_306">
		<path id="Path_705" class="st14" d="M97.3,66.6c-0.4,0-0.8,0-1.2-0.1c-1.7-0.2-3.1-1.6-3.2-3.4c-0.1-2,1.3-3.7,3.2-4.1l0.8-0.2
			c1.5-0.4,2.9-0.8,3-1c0-0.3,0.3-0.4,0.5-0.4c0.3,0,0.4,0.2,0.4,0.5l0,0c-0.1,0.9-1.1,1.2-3.7,1.8L96.4,60
			c-1.5,0.3-2.6,1.6-2.5,3.2c0.1,1.3,1.1,2.3,2.4,2.5c0.4,0,0.8,0,1.2,0c3.1,0,7.1-1.9,7.7-4.3c0.6-2.3-0.3-4.7-2.3-6
			c-0.2-0.1-0.3-0.4-0.1-0.6c0.1-0.2,0.4-0.3,0.6-0.2c0,0,0,0,0,0c2.3,1.5,3.4,4.3,2.7,7c-0.5,1.6-1.7,2.9-3.3,3.6
			C101,66.1,99.2,66.5,97.3,66.6L97.3,66.6z"/>
	</g>
	<path id="Path_706" class="st23" d="M81,62.5c0,0.3-0.2,0.6-0.5,0.8c0.5,0.3,0.8,0.9,0.5,1.5c-0.2,0.4-0.6,0.7-1.1,0.6
		c0.1,0.3,0.1,0.6,0,0.9c-0.3,0.6-1.4,0.7-2.4,0.2s-1.6-1.5-1.2-2.1c0.2-0.3,0.5-0.5,0.9-0.5c-0.1-0.3,0-0.6,0.2-0.8
		c-0.3-0.2-0.5-0.6-0.4-0.9c0.1-0.7,1.1-1.2,2.2-1.1S81.1,61.7,81,62.5z"/>
	<path id="Path_707" class="st13" d="M71.4,57.4c0.1,0.6,1.2,1.4,4.1,2.2c1.7,0.3,3,1.9,2.9,3.6c-0.1,1.5-1.3,2.7-2.8,2.9
		c-0.4,0-0.8,0.1-1.3,0.1c-3.3,0-7.4-2-8.1-4.7c-0.5-2.4,0.4-4.8,2.3-6.2l0.2-0.1l1,0.5L71.4,57.4z"/>
	<g id="Group_307">
		<path id="Path_708" class="st14" d="M74.4,66.6L74.4,66.6c-1.9,0-3.7-0.5-5.3-1.4c-1.6-0.7-2.8-2-3.3-3.7
			c-1.1-4.6,3.1-7.2,3.1-7.2c0.2-0.1,0.5-0.1,0.6,0.1c0,0,0,0,0,0c0.1,0.2,0.1,0.5-0.2,0.6c-0.2,0.1-3.6,2.2-2.7,6.2
			c0.6,2.4,4.6,4.3,7.7,4.3c0.4,0,0.8,0,1.2-0.1c1.3-0.1,2.3-1.2,2.4-2.5c0.1-1.6-1-2.9-2.6-3.2c-2.9-0.8-4.3-1.6-4.4-2.6
			c0-0.3,0.2-0.5,0.5-0.5c0.2,0,0.4,0.2,0.4,0.4c0,0,0.1,0.8,3.7,1.8c1.9,0.4,3.3,2.1,3.2,4.1c-0.1,1.8-1.5,3.2-3.2,3.4
			C75.2,66.6,74.8,66.6,74.4,66.6z"/>
	</g>
	<g id="Group_308">
		<path id="Path_709" class="st14" d="M111.8,41h-0.1c-0.3-0.1-0.5-0.4-0.4-0.7l0,0c0.2-1.2,0.1-2.4-0.2-3.5
			c-0.2-0.2-0.1-0.6,0.1-0.8c0.2-0.2,0.6-0.1,0.8,0.1c0.1,0.1,0.1,0.2,0.1,0.3l0,0c0.4,1.3,0.5,2.8,0.3,4.2
			C112.3,40.8,112.1,41,111.8,41z"/>
	</g>
	<g id="Group_309">
		<path id="Path_710" class="st14" d="M110.9,33.9c-0.3,0-0.5-0.2-0.6-0.5c-0.1-1.2-0.5-2.4-1.1-3.5c-0.2-0.3-0.1-0.6,0.2-0.8
			c0.2-0.2,0.6-0.1,0.7,0.1c0.7,1.2,1.1,2.5,1.3,3.9c0,0.3-0.1,0.6-0.4,0.7L110.9,33.9L110.9,33.9z"/>
	</g>
	<g id="Group_310">
		<path id="Path_711" class="st14" d="M59.9,42.1c-0.2,0-0.5-0.2-0.5-0.4c-0.5-2.3-0.5-4.6,0.1-6.9c0.1-0.3,0.4-0.5,0.7-0.4
			c0.3,0.1,0.5,0.4,0.4,0.7c0,0,0,0,0,0.1c-0.5,2.1-0.5,4.2-0.1,6.3c0.1,0.3-0.1,0.6-0.4,0.7L59.9,42.1L59.9,42.1z"/>
	</g>
	<g id="Group_311">
		<path id="Path_712" class="st14" d="M84.4,12.4c-0.2,0-0.3,0-0.5-0.1c-0.5-0.1-3.2-1-3.8-5.4c0-0.3,0.2-0.6,0.5-0.6c0,0,0,0,0,0
			c0.3,0,0.6,0.2,0.6,0.5c0,0,0,0,0,0c0.6,3.9,2.9,4.5,3.2,4.5c0.3-0.1,0.6,0.1,0.7,0.4c0,0,0,0,0,0c0.1,0.2,0,0.4-0.1,0.5
			C84.9,12.4,84.7,12.4,84.4,12.4z"/>
	</g>
	<g id="Group_312">
		<path id="Path_713" class="st14" d="M87,12.4c-0.2,0-0.4-0.1-0.5-0.3c-0.2-0.3-1.6-3.4,0.2-4.5c0.4-0.3,0.8-0.3,1.3-0.2
			c0.7,0.3,1.2,0.9,1.4,1.6c0.1,0.3,0,0.6-0.3,0.7c-0.3,0.1-0.6,0-0.7-0.3c0,0,0,0,0,0c-0.1-0.3-0.4-0.8-0.8-0.9
			c-0.1,0-0.2,0-0.3,0.1c-0.7,0.5-0.2,2.3,0.2,3.1c0.1,0.3,0,0.6-0.3,0.8C87.1,12.3,87,12.3,87,12.4L87,12.4z"/>
	</g>
	<g id="Group_313">
		<path id="Path_714" class="st14" d="M77.3,16.1c-0.3,0-0.6-0.3-0.6-0.6c0-0.1,0-0.2,0.1-0.3c1.5-2.3,4-3.8,6.8-4l0,0
			c0.3,0,0.6,0.3,0.6,0.6c0,0.3-0.2,0.5-0.5,0.6c0,0,0,0,0,0c-2.4,0.2-4.6,1.5-5.8,3.5C77.6,16,77.4,16.1,77.3,16.1z"/>
	</g>
	<g id="Group_314">
		<path id="Path_715" class="st14" d="M84.4,17.7c-0.3,0-0.5-0.2-0.6-0.5c-0.3-1.8,0-3.7,0.9-5.4c0.2-0.3,0.5-0.3,0.8-0.2
			c0,0,0,0,0,0c0.3,0.2,0.4,0.5,0.2,0.8c0,0,0,0,0,0l0,0c-0.7,1.4-1,3-0.7,4.6c0,0.3-0.1,0.6-0.4,0.6L84.4,17.7L84.4,17.7z"/>
	</g>
	<g id="Group_315">
		<path id="Path_716" class="st14" d="M91,16.1c-0.3,0-0.6-0.3-0.6-0.6l0,0c-0.2-1.1-0.8-2.1-1.6-2.9c-0.2-0.2-0.2-0.6,0-0.8
			c0.2-0.2,0.6-0.2,0.8,0c0.1,0.1,1.9,1.8,1.9,3.7C91.6,15.8,91.3,16.1,91,16.1z"/>
	</g>
	<g id="Group_316">
		<path id="Path_717" class="st13" d="M100.2,63.5c-1.1,0.6-2.4,0.8-3.7,0.6"/>
		<path id="Path_718" class="st14" d="M97.5,64.7c-0.3,0-0.7,0-1-0.1c-0.3,0-0.5-0.3-0.5-0.6s0.3-0.5,0.6-0.5c1.1,0.2,2.2,0,3.2-0.5
			c0.3-0.2,0.6-0.1,0.8,0.2c0.2,0.3,0.1,0.6-0.2,0.8l0,0C99.6,64.4,98.5,64.7,97.5,64.7z"/>
	</g>
	<g id="Group_317">
		<path id="Path_719" class="st13" d="M101.4,60c-0.7,0.9-1.8,1.4-3,1.4"/>
		<path id="Path_720" class="st14" d="M98.4,62c-0.3,0-0.6-0.3-0.6-0.6c0-0.3,0.3-0.6,0.6-0.6c1,0,1.9-0.4,2.6-1.2
			c0.2-0.3,0.5-0.3,0.8-0.2c0.3,0.2,0.3,0.5,0.2,0.8l0,0C101,61.4,99.7,62,98.4,62z"/>
	</g>
	<g id="Group_318">
		<path id="Path_721" class="st13" d="M67.8,58.6c-0.5,1.4,0,3,1.3,3.7"/>
		<path id="Path_722" class="st14" d="M69.1,62.9c-0.1,0-0.2,0-0.3-0.1c-1.5-0.9-2.1-2.8-1.5-4.4c0.1-0.3,0.4-0.4,0.7-0.3
			c0.3,0.1,0.4,0.4,0.3,0.7c-0.4,1.1,0,2.4,1.1,3.1c0.3,0.2,0.3,0.5,0.2,0.8c0,0,0,0,0,0C69.5,62.8,69.3,62.9,69.1,62.9z"/>
	</g>
	<g id="Group_319">
		<path id="Path_723" class="st13" d="M71.5,63.5c1.1,0.6,2.4,0.8,3.6,0.6"/>
		<path id="Path_724" class="st14" d="M74.2,64.7c-1,0-2.1-0.2-3-0.7c-0.3-0.2-0.3-0.5-0.2-0.8c0,0,0,0,0,0c0.2-0.3,0.5-0.4,0.8-0.2
			l0,0c1,0.5,2.2,0.7,3.3,0.5c0.3,0,0.6,0.2,0.6,0.5c0,0.3-0.2,0.6-0.5,0.6C74.9,64.6,74.6,64.7,74.2,64.7z"/>
	</g>
	<g id="Group_320">
		<path id="Path_725" class="st13" d="M70.3,60c0.7,0.9,1.8,1.4,3,1.4"/>
		<path id="Path_726" class="st14" d="M73.3,62c-1.4,0-2.7-0.6-3.5-1.7c-0.2-0.3-0.1-0.6,0.2-0.8c0,0,0,0,0,0
			c0.3-0.2,0.6-0.1,0.8,0.1c0,0,0,0,0,0l0,0c0.6,0.8,1.6,1.2,2.6,1.2c0.3,0,0.6,0.3,0.6,0.6C73.9,61.7,73.7,62,73.3,62z"/>
	</g>
	<g id="Group_321">
		<path id="Path_727" class="st14" d="M72.6,20.5c-0.3,0-0.5-0.2-0.6-0.5c0-0.1,0-0.2,0.1-0.3c0.6-1.2,1.5-2.3,2.6-3
			c0.3-0.1,0.6,0,0.8,0.2c0.1,0.3,0,0.6-0.2,0.8l0,0c-0.9,0.7-1.7,1.6-2.2,2.6C72.9,20.4,72.8,20.5,72.6,20.5z"/>
	</g>
	<g id="Group_322">
		<path id="Path_728" class="st14" d="M60.9,30.3h-0.1c-0.3-0.1-0.5-0.4-0.4-0.7c0,0,0,0,0,0l0,0c0.5-1.9,1.2-3.7,2.2-5.4
			c0.2-0.3,0.5-0.4,0.8-0.2c0.3,0.2,0.3,0.5,0.2,0.8c-0.9,1.6-1.6,3.3-2,5.1C61.3,30.1,61.1,30.3,60.9,30.3z"/>
	</g>
	<g id="Group_323">
		<path id="Path_729" class="st14" d="M108.3,27.2c-0.2,0-0.4-0.1-0.5-0.3c-0.9-1.8-2-3.4-3.5-4.8c-0.6-0.5-1.2-1-1.9-1.4
			c-0.3-0.1-0.4-0.5-0.2-0.8c0.1-0.3,0.5-0.4,0.8-0.2l0,0c2.6,1.6,4.6,3.9,5.9,6.7c0.1,0.3,0,0.6-0.3,0.8
			C108.5,27.2,108.4,27.2,108.3,27.2L108.3,27.2z"/>
	</g>
	<g id="Group_324">
		<path id="Path_730" class="st14" d="M66.2,20.9c-0.3,0-0.6-0.3-0.6-0.6c0-0.1,0-0.2,0.1-0.3c1.2-1.7,2.8-3.1,4.6-4
			c0.3-0.1,0.6,0.1,0.7,0.4c0.1,0.2,0,0.5-0.2,0.6c-1.7,0.8-3.1,2-4.2,3.6C66.6,20.8,66.4,20.9,66.2,20.9z"/>
	</g>
	<path id="Path_731" class="st21" d="M85.6,12.6c-2.9,0.1-5.8-0.4-8.6-1.4c-0.4-0.2-0.6-0.6-0.4-1c0.2-0.4,0.6-0.6,1-0.4
		c5.3,1.7,10.9,1.7,16.2,0.1c0.4-0.1,0.8,0.1,0.9,0.5c0,0,0,0,0,0c0.1,0.4-0.1,0.8-0.4,0.9c0,0,0,0,0,0h-0.1
		C91.4,12.1,88.5,12.6,85.6,12.6z"/>
	<path id="Path_732" class="st21" d="M98,18c-0.3,0-0.6-0.2-0.7-0.5c-0.6-2-2-3.7-3.8-4.8c0.4,1.1,0.5,2.3,0.1,3.5
		c-0.1,0.4-0.5,0.6-0.9,0.5c0,0,0,0,0,0c-0.4-0.1-0.6-0.5-0.5-0.9c0,0,0,0,0,0v-0.1c0.5-1.3-0.4-3.4-0.8-4.1c-0.2-0.4-0.1-0.8,0.3-1
		c0,0,0,0,0,0c0.2-0.1,0.4-0.1,0.6-0.1c3.1,1,5.5,3.5,6.4,6.6c0.1,0.4-0.1,0.8-0.5,0.9c0,0,0,0,0,0C98.1,18,98.1,18,98,18z"/>
</g>
</svg>
