<svg id="圖層_1" data-name="圖層 1" xmlns="http://www.w3.org/2000/svg" viewBox="0 0 60 60"><defs><style>.cls-1{fill:#63342c;stroke:#63342c;stroke-width:0.91px;}.cls-2{fill:#e23e3e;opacity:0.2;isolation:isolate;}</style></defs><title>icon</title><path id="Path_477" data-name="Path 477" class="cls-1" d="M49.51,31.85a.81.81,0,0,0-.83.82,1,1,0,1,1-2.1,0,.83.83,0,0,0-1.65,0,2.71,2.71,0,1,0,5.41,0,.82.82,0,0,0-.82-.82Z"/><path id="Path_478" data-name="Path 478" class="cls-1" d="M57.71,31.89l-2.45-.79a1,1,0,0,1-.66-.67A16.07,16.07,0,0,0,50.73,24a21.77,21.77,0,0,0,.55-4.95c0-2.22-.48-3.53-1.36-4-.47-.25-1.91-1-9.7,2.55a2.7,2.7,0,0,0-.52.3c-.52-.14-1.06-.27-1.6-.39l-.19,0A11.86,11.86,0,0,0,39,13.06.87.87,0,0,0,37.24,13a10.16,10.16,0,0,1-6.66,9.07,25.47,25.47,0,0,0-7,0A10.17,10.17,0,1,1,36.18,8a.88.88,0,0,0,1.56-.79,11.92,11.92,0,1,0-17,15.44h0c-.54.14-1.08.3-1.61.47a.88.88,0,0,0-.49,1.14.87.87,0,0,0,1,.52,23.46,23.46,0,0,1,14.77,0A.87.87,0,0,0,35,23.1q-.81-.27-1.62-.48h0A11.9,11.9,0,0,0,37,19.08l.72.15.93.22,0,.11a10.43,10.43,0,0,0,.08,5.32A6.27,6.27,0,0,0,41,28.13,7.26,7.26,0,0,0,45.3,29.5a5.64,5.64,0,0,0,2.79-.64,5.28,5.28,0,0,0,2-2.91c.26.3.49.6.72.92A14.17,14.17,0,0,1,52.92,31a2.77,2.77,0,0,0,1.79,1.81l2.46.79A1.57,1.57,0,0,1,58.25,35v4.08a1.55,1.55,0,0,1-1.08,1.47l-4,1.27a2.69,2.69,0,0,0-1.51,1.22,17.42,17.42,0,0,1-7.28,6.59,1.39,1.39,0,0,0-.72,1l-1.28,6.71a.4.4,0,0,1-.39.32H37.91a.4.4,0,0,1-.39-.32l-.69-3.71a1.37,1.37,0,0,0-1.56-1.1,36.67,36.67,0,0,1-5.44.39,35.8,35.8,0,0,1-4-.23,1.38,1.38,0,0,0-1.51,1.11l-.67,3.52a.38.38,0,0,1-.38.32H19.13a.38.38,0,0,1-.38-.32L17.54,51a1.39,1.39,0,0,0-.71-1A15.43,15.43,0,0,1,8.34,35.62a16.76,16.76,0,0,1,2.13-8.53,15.22,15.22,0,0,1,5.68-5.53.88.88,0,0,0,.26-1.21.87.87,0,0,0-1.13-.3,16.6,16.6,0,0,0-8.45,12.4h0l-.26,0a4.33,4.33,0,0,0-.32-1.74A3.59,3.59,0,0,0,3.6,28.36a2.41,2.41,0,0,0-2.27,1,2.3,2.3,0,0,0-.44,2.51c.44.91,1.57,1.55,3.44,2l-.17.23A4.26,4.26,0,0,1,.9,35.79a.91.91,0,0,0-.9.91H0a.91.91,0,0,0,.87.91h.2a5.65,5.65,0,0,0,4.45-2.46,4.79,4.79,0,0,0,.64-1l.48.05h0c0,.47,0,.95,0,1.44a18.06,18.06,0,0,0,2.56,9.64,17.59,17.59,0,0,0,6.7,6.2L17,57.62a2.14,2.14,0,0,0,2.1,1.74h4.13a2.14,2.14,0,0,0,2.1-1.74L26,54.45a39.42,39.42,0,0,0,9.21-.15l.63,3.36a2.13,2.13,0,0,0,2.1,1.74H42a2.13,2.13,0,0,0,2.1-1.74l1.25-6.53a19,19,0,0,0,7.82-7.2.93.93,0,0,1,.54-.43l4-1.27A3.3,3.3,0,0,0,60,39.1V35A3.3,3.3,0,0,0,57.71,31.89ZM49.39,21.5c-.34,2.87-1.24,5.33-2.15,5.84a5.34,5.34,0,0,1-5.19-.62c-1.78-1.31-2.38-3.66-1.71-6.8h0a1.07,1.07,0,0,1,.6-.73,25.6,25.6,0,0,1,7.83-2.64.86.86,0,0,1,.32.05,8.89,8.89,0,0,1,.3,4.9ZM2.47,31.11c-.09-.18.12-.51.26-.69a.69.69,0,0,1,.56-.34h.09a2,2,0,0,1,1.26,1.24,2.87,2.87,0,0,1,.18.82C3.61,31.9,2.67,31.54,2.47,31.11Z"/><path id="Path_479" data-name="Path 479" class="cls-1" d="M27.87,10.94V8c1,.08,1.4.55,1.75.55s.64-.54.64-.83c0-.71-1.4-1-2.39-1v-.4c0-.18-.22-.33-.43-.33a.4.4,0,0,0-.43.33v.43a2.7,2.7,0,0,0-2.77,2.64v.07c0,1.86,1.45,2.39,2.76,2.86v3.42c-1.49-.12-1.88-1.14-2.37-1.15S24,15,24,15.36c0,.71,1.22,1.69,3,1.72h0v.46a.39.39,0,0,0,.42.33c.22,0,.44-.16.44-.33V17a2.82,2.82,0,0,0,2.66-3v0C30.53,12.05,29.14,11.41,27.87,10.94Zm-.77-.28c-.77-.29-1.4-.6-1.4-1.43S26.29,8.11,27.1,8Zm.68,5V12.56a1.7,1.7,0,0,1,1.28,1.64,1.37,1.37,0,0,1-1.28,1.43Z"/><path id="Path_756" data-name="Path 756" class="cls-2" d="M18.07,19.47S8.32,23.56,7.92,31.38A50.26,50.26,0,0,0,7.9,41l2.42,4.81,6.47,5.49,2.37,7.39h4.6l1.85-5.55,9.68,0,2.1,5.55h5.77l1.61-8.37L50.21,47l2.9-4.48L58.92,41V33.16l-5.8-1.71L51.5,25.21l-1.25-2.13,0-7.15H47.9l-7.59,2.52L39.1,19.5l-1.64-1.06-3.67,2.64v2s-1.11-.06-2.45,0-9.51,0-9.51,0Z"/></svg>