<svg id="圖層_1" data-name="圖層 1" xmlns="http://www.w3.org/2000/svg" viewBox="0 0 60 60"><defs><style>.cls-1{fill:#ffcf63;opacity:0.3;isolation:isolate;}.cls-2{fill:#63342c;stroke:#63342c;stroke-width:0.88px;}</style></defs><title>icon</title><path id="Path_755" data-name="Path 755" class="cls-1" d="M49,35.77l5.86-21.71L33.55,8.31.53,27.89,14.8,54.14Z"/><path id="Path_480" data-name="Path 480" class="cls-2" d="M59.88,9.32A.91.91,0,0,0,58.65,9h0l-4.11,2.36L34.17,5.86,1.6,24.76A3.19,3.19,0,0,0,.43,29.12L13.49,51.85A3.22,3.22,0,0,0,17.87,53L49.7,34.15l5.73-21.22,4.11-2.37A.91.91,0,0,0,59.88,9.32ZM48.14,33,17,51.46A1.39,1.39,0,0,1,15.06,51L2,28.22a1.38,1.38,0,0,1,.5-1.89h0L34.42,7.8l17.89,4.83-5.38,3.09a4.52,4.52,0,1,0,.91,1.57l5.37-3.09Zm-2-13.55a2.71,2.71,0,1,1-1.91-3.33h0a2.81,2.81,0,0,1,1.05.56L43.1,17.92A.91.91,0,0,0,44,19.51h0l2.21-1.28a2.7,2.7,0,0,1,0,1.2Z"/><path id="Path_481" data-name="Path 481" class="cls-2" d="M37.52,23.62a.85.85,0,0,0-.78-1.5l-.06,0-.77.45a7.56,7.56,0,0,0-4.77-3,4.94,4.94,0,0,0-3.83.88,5.3,5.3,0,0,0-2.14,3.55l-.72,5.14-9.26,5.32a5.91,5.91,0,0,1,2.54-7.3A.86.86,0,0,0,18,26.05a.85.85,0,0,0-1.15-.31,7.6,7.6,0,0,0-3.18,9.62L12.53,36a.85.85,0,0,0-.37,1.14.86.86,0,0,0,1.14.36l.07,0,1.18-.68a7.6,7.6,0,0,0,4.14,2.84,4.29,4.29,0,0,0,.62.14,4.93,4.93,0,0,0,3.83-.88,5.33,5.33,0,0,0,2.15-3.55L26,30.24l9.26-5.32a5.92,5.92,0,0,1-2.54,7.3.82.82,0,0,0-.26,1.16.84.84,0,0,0,1.1.3,7.6,7.6,0,0,0,3.17-9.62ZM23.61,35.14a3.62,3.62,0,0,1-1.46,2.42,3.32,3.32,0,0,1-2.54.58A6,6,0,0,1,16,36l8.13-4.67Zm3.23-10.85a3.6,3.6,0,0,1,1.45-2.42,3.29,3.29,0,0,1,2.54-.59,5.93,5.93,0,0,1,3.59,2.18L26.3,28.13Z"/></svg>