<svg id="圖層_1" data-name="圖層 1" xmlns="http://www.w3.org/2000/svg" viewBox="0 0 30 30"><defs><style>.cls-1{fill:#ffc856;}.cls-2{fill:#fff;}</style></defs><title>icon</title><circle id="Ellipse_60" data-name="Ellipse 60" class="cls-1" cx="15" cy="15" r="15"/><path id="Path_372" data-name="Path 372" class="cls-2" d="M18.09,13.83a22.28,22.28,0,0,0-2.3-1,5.22,5.22,0,0,1-1.27-.69,1.1,1.1,0,0,1,.25-2,2.3,2.3,0,0,1,.77-.16,5.68,5.68,0,0,1,2.9.54c.46.21.61.14.76-.34s.28-1,.43-1.52A.54.54,0,0,0,19.32,8h0a7.37,7.37,0,0,0-1.83-.53c-.83-.11-.83-.12-.85-1,0-1.17,0-1.17-1.19-1.16H14.9c-.55,0-.64.12-.65.67v.75c0,.73,0,.72-.7,1a3.92,3.92,0,0,0-2.82,3.67A3.74,3.74,0,0,0,12.88,15a24.78,24.78,0,0,0,2.64,1.15,4,4,0,0,1,1,.55,1.32,1.32,0,0,1,.33,1.83,1.39,1.39,0,0,1-.62.48,3.23,3.23,0,0,1-1.68.24,7.55,7.55,0,0,1-2.59-.74c-.48-.24-.61-.18-.77.34s-.25.9-.37,1.34c-.16.6-.1.75.48,1a8.13,8.13,0,0,0,2.33.63c.62.1.64.12.66.77,0,.3,0,.6,0,.89a.53.53,0,0,0,.45.59h.12c.43,0,.87,0,1.3,0a.5.5,0,0,0,.53-.46.41.41,0,0,0,0-.11c0-.4,0-.81,0-1.21a.63.63,0,0,1,.53-.73h0a4.36,4.36,0,0,0,2.26-1.49,4.1,4.1,0,0,0-.66-5.77A3.83,3.83,0,0,0,18.09,13.83Z"/></svg>